<svg xmlns="http://www.w3.org/2000/svg" viewBox="0 0 101.32 46.22"><defs><style>.cls-1{fill:#fff;fill-rule:evenodd;}</style></defs><title>car_white</title><g id="Capa_2" data-name="Capa 2"><g id="Capa_4" data-name="Capa 4"><path class="cls-1" d="M47.71,16C43.19,11.66,38,9.56,31.85,11c-.06.19-.11.39-.16.58.53.12,1.07.21,1.59.35A12.62,12.62,0,0,1,37,13.05a4.5,4.5,0,0,1,1.6,2.79c.26,1.59-.79,2.37-2.35,1.94a18.4,18.4,0,0,1-3.36-1.34c-2.19-1.11-3.24-1.07-5.13.45A10,10,0,0,0,26.55,18c-2.18,2.55-4.74,4.12-8.34,3,.88,2.11,3.71,3.11,6.27,2.23A30.66,30.66,0,0,0,28,21.55c2.33-1.17,3.49-1,5,1.1,2,2.79,4.25,4.32,7.79,2.53.11.15.22.31.34.46-1,1.62-1.85,3.46-3.17,4.8s-3.08,2.1-4.78,3.2c5.64.93,10.58-.23,14.66-4.55a12.8,12.8,0,0,1-6.91,9.11,20,20,0,0,1-12.56,1.59c-4.8-.84-9-3.08-13.45-6,4.62-.82,8.27-2.49,10.63-6.22-5.22,2.59-10.6,4.5-16.24,1.89-4.26-2-7.07-5.61-9.31-10a7.08,7.08,0,0,1,1.37.12c4.23,1.36,8.07.3,11.59-2.09,2-1.38,3.89-3.06,5.83-4.6s3.5-3,5.42-4.32C32.24,3.18,44.09,6.91,47.71,16Z"/><path class="cls-1" d="M58.8,28.9c.24.74.47,1.42.69,2.11s.45,1.34.64,2c.11.39.3.48.69.48,4.47,0,8.95,0,13.42,0,6.16,0,12.33,0,18.49,0a1.69,1.69,0,1,1,0,3.38c-.71,0-1.42,0-2.13,0H59.58c-1.45,0-1.84-.27-2.28-1.65q-1.41-4.3-2.8-8.61-3-9.14-5.93-18.26c-.49-1.54-1-3.07-1.48-4.61a.46.46,0,0,0-.52-.38h-9a1.66,1.66,0,0,1-1.46-.69A1.61,1.61,0,0,1,36,.93,1.62,1.62,0,0,1,37.46,0c.88,0,1.77,0,2.66,0H48a1.7,1.7,0,0,1,1.87,1.35c.49,1.51,1,3,1.46,4.52a.5.5,0,0,0,.57.4c2,0,3.93,0,5.9,0H85.07c2.17,0,4.32,0,6.48,0,2.61,0,5.21,0,7.82,0a1.7,1.7,0,0,1,1.78,2.49q-3,8.69-6.12,17.37l-.54,1.54a1.66,1.66,0,0,1-1.67,1.21H80l-11.11,0H58.8ZM52.6,9.67c0,.11,0,.18,0,.25.33,1,.66,2.08,1,3.12,1.29,4,2.6,7.93,3.86,11.9a.7.7,0,0,0,.82.59q16.38,0,32.75,0a.71.71,0,0,0,.8-.59c1.54-4.41,3.1-8.81,4.65-13.22.24-.66.47-1.33.73-2.06Z"/><path class="cls-1" d="M91.91,42.54a3.63,3.63,0,0,1-3.56,3.68,3.64,3.64,0,1,1-.16-7.28A3.62,3.62,0,0,1,91.91,42.54Z"/><path class="cls-1" d="M68,42.56a3.64,3.64,0,1,1-7.28,0,3.68,3.68,0,0,1,3.62-3.62A3.63,3.63,0,0,1,68,42.56Z"/></g></g></svg>