<svg xmlns="http://www.w3.org/2000/svg" viewBox="0 0 63.23 28.85"><defs><style>.cls-1{fill:#ca242a;fill-rule:evenodd;}</style></defs><title>carrito</title><g id="Capa_2" data-name="Capa 2"><g id="Capa_1-2" data-name="Capa 1"><path class="cls-1" d="M29.77,10c-2.82-2.7-6-4-9.9-3.15,0,.12-.06.25-.1.37.34.07.67.12,1,.21a8.08,8.08,0,0,1,2.32.73,2.8,2.8,0,0,1,1,1.75c.16,1-.49,1.48-1.46,1.2a11.47,11.47,0,0,1-2.1-.83,2.38,2.38,0,0,0-3.2.28,5.63,5.63,0,0,0-.76.7c-1.36,1.59-3,2.57-5.21,1.9a3.12,3.12,0,0,0,3.92,1.39,17.35,17.35,0,0,0,2.21-1.08c1.45-.73,2.18-.63,3.1.69,1.23,1.74,2.66,2.69,4.87,1.57a3,3,0,0,0,.2.29,17.66,17.66,0,0,1-2,3,17.36,17.36,0,0,1-3,2,9.56,9.56,0,0,0,9.14-2.83,8,8,0,0,1-4.31,5.68,12.46,12.46,0,0,1-7.84,1,22.32,22.32,0,0,1-8.39-3.74c2.88-.51,5.16-1.56,6.64-3.89C12.69,18.82,9.33,20,5.81,18.39,3.15,17.16,1.4,14.88,0,12.14a4.19,4.19,0,0,1,.85.07,8,8,0,0,0,7.24-1.3C9.36,10.05,10.52,9,11.72,8s2.19-1.9,3.39-2.7A10.12,10.12,0,0,1,29.77,10Z"/><path class="cls-1" d="M36.7,18c.15.47.29.89.42,1.32s.29.84.4,1.27c.07.24.19.3.43.3h8.38c3.85,0,7.69,0,11.54,0a1.07,1.07,0,0,1,1.13,1A1.08,1.08,0,0,1,57.9,23c-.45,0-.89,0-1.33,0H37.18c-.91,0-1.14-.17-1.42-1q-.88-2.68-1.75-5.37-1.84-5.7-3.7-11.41c-.31-1-.62-1.91-.92-2.87a.29.29,0,0,0-.33-.24h-5.6a1,1,0,0,1-.91-.43,1,1,0,0,1-.09-1.1A1,1,0,0,1,23.38,0c.55,0,1.1,0,1.66,0H30a1.08,1.08,0,0,1,1.17.85c.3.94.61,1.88.91,2.82a.31.31,0,0,0,.35.25H53.09l4,0,4.87,0a1.06,1.06,0,0,1,1.11,1.56c-1.26,3.61-2.54,7.22-3.81,10.83-.12.32-.23.64-.35,1a1,1,0,0,1-1,.75H36.7ZM32.83,6c0,.07,0,.12,0,.16l.63,2c.8,2.47,1.61,4.94,2.4,7.42a.44.44,0,0,0,.52.37c6.81,0,13.62,0,20.43,0a.44.44,0,0,0,.5-.37l2.91-8.25L60.69,6Z"/><path class="cls-1" d="M57.36,26.55a2.27,2.27,0,0,1-2.22,2.3,2.31,2.31,0,0,1-2.33-2.26,2.28,2.28,0,0,1,4.55,0Z"/><path class="cls-1" d="M42.41,26.56a2.27,2.27,0,1,1-4.54,0,2.31,2.31,0,0,1,2.26-2.26A2.26,2.26,0,0,1,42.41,26.56Z"/></g></g></svg>