<svg xmlns="http://www.w3.org/2000/svg" viewBox="0 0 45.73 47.22"><title>facebook</title><g id="Capa_2" data-name="Capa 2"><g id="Capa_1-2" data-name="Capa 1"><path d="M0,45.33V1.89A4.09,4.09,0,0,1,1.83,0H43.76a3.23,3.23,0,0,1,2,2v43.3a3.61,3.61,0,0,1-2,1.89H31.52c0-5.77,0-11.53,0-17.29,0-.62.16-.76.74-.74,1.52,0,3,0,4.57,0,.5,0,.73-.08.78-.68.2-2,.45-4,.73-6,.08-.57-.07-.64-.55-.63-1.88,0-3.75,0-5.63,0-.46,0-.66-.08-.64-.62,0-1.36,0-2.72,0-4.07,0-2.3,1-3.26,3.18-3.31q1.76,0,3.51,0c.37,0,.49-.1.48-.49,0-1.81,0-3.63,0-5.44,0-.41-.17-.47-.49-.5A36.44,36.44,0,0,0,32.6,7.3c-4.51.26-7.46,3.13-8,7.71a55.28,55.28,0,0,0-.1,6.17c0,.58-.11.79-.72.77-1.57,0-3.14,0-4.71,0-.46,0-.66.07-.65.61q0,3.06,0,6.1c0,.45.12.58.56.57,1.59,0,3.18,0,4.78,0,.57,0,.74.12.74.74,0,5.76,0,11.52,0,17.29H1.83A4.18,4.18,0,0,1,0,45.33Z"/></g></g></svg>