<svg xmlns="http://www.w3.org/2000/svg" viewBox="0 0 1207.91 866.55"><defs><style>.cls-1{opacity:0.22;}.cls-2{fill:#ca242a;}</style></defs><title>fondo</title><g id="Capa_2" data-name="Capa 2"><g id="Capa_1-2" data-name="Capa 1"><g class="cls-1"><path class="cls-2" d="M682.67,154.14c-1.54,9.66,13.53,4.25,13.53,4.25v-8.5l-6.82,1.93-2.84,3.07Z"/><polygon class="cls-2" points="389.83 260.06 394.66 279.83 401.69 269.94 393.79 260.06 389.83 260.06"/><polygon class="cls-2" points="742.37 479.55 705.93 488.02 719.49 468.53 724.15 478.28 734.75 478.28 742.37 479.55"/><path class="cls-2" d="M103.42,315.15c-1.54,9.67,13.53,4.26,13.53,4.26V310.9l-6.82,1.94-2.84,3.07Z"/><path class="cls-2" d="M466.17,81.41c-1.54,9.67,13.53,4.25,13.53,4.25v-8.5l-6.82,1.93L470,82.17Z"/><path class="cls-2" d="M459.35,704.2c-1.54,9.67,13.53,4.25,13.53,4.25V700l-6.82,1.93L463.22,705Z"/><path class="cls-2" d="M110.24,545.43c-1.54,9.66,13.53,4.25,13.53,4.25v-8.5L117,543.11l-2.84,3.07Z"/><path class="cls-2" d="M208.51,91.43C207,101.09,222,95.68,222,95.68V87.17l-6.81,1.94-2.85,3.07Z"/><path class="cls-2" d="M1119.86,33.77c-1.54,9.66,13.53,4.25,13.53,4.25v-8.5l-6.82,1.93-2.84,3.08Z"/><path class="cls-2" d="M854.31,135.26c-1.55,9.66,13.53,4.25,13.53,4.25V131L861,132.94,858.17,136Z"/><path class="cls-2" d="M292.75,578c-1.55,9.66,13.52,4.25,13.52,4.25v-8.51l-6.82,1.94-2.84,3.07Z"/><path class="cls-2" d="M1119.86,508.45c-1.54,9.67,13.53,4.26,13.53,4.26V504.2l-6.82,1.94-2.84,3.07Z"/><path class="cls-2" d="M1081.36,709.21c-1.55,9.66,13.52,4.25,13.52,4.25V705l-6.82,1.93-2.84,3.08Z"/><path class="cls-2" d="M977.49,164.15c-1.55,9.66,13.53,4.25,13.53,4.25v-8.5l-6.82,1.93-2.84,3.08Z"/><polygon class="cls-2" points="553.81 180.93 517.37 189.4 530.93 169.91 535.59 179.66 546.19 179.66 553.81 180.93"/><polygon class="cls-2" points="995.6 755.67 959.16 764.14 972.72 744.65 977.38 754.4 987.97 754.4 995.6 755.67"/><polygon class="cls-2" points="192.02 775.16 155.58 783.63 169.13 764.14 173.8 773.89 184.39 773.89 192.02 775.16"/><polygon class="cls-2" points="872.42 40.8 835.98 49.28 849.54 29.79 854.2 39.53 864.79 39.53 872.42 40.8"/><polygon class="cls-2" points="352.12 30.79 315.68 39.27 329.24 19.77 333.9 29.52 344.49 29.52 352.12 30.79"/><polygon class="cls-2" points="714.42 818.96 677.98 827.43 691.54 807.94 696.2 817.68 706.79 817.68 714.42 818.96"/><polygon class="cls-2" points="275.85 469.8 239.41 478.28 252.97 458.79 257.63 468.53 268.22 468.53 275.85 469.8"/><polygon class="cls-2" points="826.7 331.93 790.25 340.41 803.81 320.92 808.48 330.66 819.07 330.66 826.7 331.93"/><polygon class="cls-2" points="1117.69 236.33 1081.24 244.8 1094.8 225.31 1099.46 235.06 1110.06 235.06 1117.69 236.33"/><polygon class="cls-2" points="657.13 50.55 620.69 59.02 634.25 39.53 638.91 49.28 649.5 49.28 657.13 50.55"/><polygon class="cls-2" points="1147.46 807.8 1152.29 827.57 1159.32 817.68 1151.41 807.8 1147.46 807.8"/><polygon class="cls-2" points="85.52 0 90.35 19.77 97.38 9.89 89.47 0 85.52 0"/><polygon class="cls-2" points="447.38 448.9 452.21 468.67 459.24 458.79 451.33 448.9 447.38 448.9"/><polygon class="cls-2" points="1184.18 330.52 1189.02 350.3 1196.05 340.41 1188.14 330.52 1184.18 330.52"/><polygon class="cls-2" points="1159.32 619.78 1164.15 639.55 1171.19 629.67 1163.28 619.78 1159.32 619.78"/><polygon class="cls-2" points="989.67 458.64 994.5 478.42 1001.53 468.53 993.62 458.64 989.67 458.64"/><polygon class="cls-2" points="192.02 225.17 196.85 244.94 203.88 235.06 195.97 225.17 192.02 225.17"/><polygon class="cls-2" points="0 846.78 4.83 866.55 11.86 856.67 3.96 846.78 0 846.78"/><polygon class="cls-2" points="91.45 116.24 96.28 136.01 103.31 126.13 95.4 116.24 91.45 116.24"/><polygon class="cls-2" points="1196.05 77.29 1200.88 97.06 1207.91 87.17 1200 77.29 1196.05 77.29"/><polygon class="cls-2" points="453.31 558.93 458.14 578.7 465.18 568.81 457.27 558.93 453.31 558.93"/><polygon class="cls-2" points="933.73 609.89 938.56 629.67 945.59 619.78 937.68 609.89 933.73 609.89"/><polygon class="cls-2" points="638.91 260.06 643.75 279.83 650.78 269.94 642.87 260.06 638.91 260.06"/><polygon class="cls-2" points="395.76 360 400.6 379.77 407.63 369.89 399.72 360 395.76 360"/><polygon class="cls-2" points="309.75 807.8 314.58 827.57 321.61 817.68 313.7 807.8 309.75 807.8"/></g></g></g></svg>