<svg xmlns="http://www.w3.org/2000/svg" viewBox="0 0 57.87 53.41"><defs><style>.cls-1{fill-rule:evenodd;}</style></defs><title>instagram</title><g id="Capa_2" data-name="Capa 2"><g id="Capa_1-2" data-name="Capa 1"><path class="cls-1" d="M28.81,53.4c-4.65,0-9.31,0-14,0A14.75,14.75,0,0,1,3.15,48,12.67,12.67,0,0,1,0,39.48c0-8.48,0-17,0-25.43C0,6.38,6.79.08,15.1,0Q29.05,0,43,0C49.2,0,55.25,4.2,57,9.69a16.89,16.89,0,0,1,.81,4.92c.09,8.17.06,16.34,0,24.51,0,7.13-5,12.74-12.56,14.15a8.89,8.89,0,0,1-1.71.12Zm.57-47.72h0c-3.47,0-6.95,0-10.42,0a14.37,14.37,0,0,0-3.21.37c-5.67,1.36-9.46,5.81-9.63,10.88-.22,6.66-.11,13.32,0,20C6.2,43.16,12,48.5,18.63,48.54c7,0,14,.05,21,0,7.3-.06,12.86-5.26,12.89-12q0-9.16,0-18.32A16,16,0,0,0,52.2,15C51.12,9.8,45.79,5.72,40.07,5.68,36.51,5.66,32.94,5.68,29.38,5.68Z"/><path class="cls-1" d="M49.45,27.11v9.28a8.75,8.75,0,0,1-3.73,7.38,10.13,10.13,0,0,1-6.13,2q-10.05,0-20.11,0a10.22,10.22,0,0,1-8.11-3.39,8.1,8.1,0,0,1-2.19-5.46c0-5.88,0-11.76,0-17.64a11.91,11.91,0,0,1,.67-4.94,9.76,9.76,0,0,1,8.86-5.77c7.12-.06,14.25-.08,21.38,0,4.91,0,9.12,4,9.3,8.53.07,1.67,0,3.34,0,5s0,3.35,0,5ZM29.37,39.48c6.44.23,12.2-4.9,12.16-11.14,0-6.46-6-11.35-12.61-11.1-6.22.23-11.52,5.18-11.55,11C17.33,34.78,23.29,39.67,29.37,39.48ZM40.14,15.31a1.91,1.91,0,0,0,2,1.9,2,2,0,0,0,2.09-1.88,2.08,2.08,0,0,0-2.12-2A2,2,0,0,0,40.14,15.31Z"/><path class="cls-1" d="M29.41,36.64a8.51,8.51,0,0,1-8.94-8.19c-.06-4.64,3.89-8.29,8.9-8.33s9,3.63,9,8.13C38.42,33,34.53,36.64,29.41,36.64Z"/></g></g></svg>