<svg xmlns="http://www.w3.org/2000/svg" viewBox="0 0 324.86 99.61"><title>logotipo_una_tinta</title><g id="Capa_2" data-name="Capa 2"><g id="Capa_1-2" data-name="Capa 1"><path d="M22.53,68.62l.12.55-.06-.06-.18.24-.49.31a12.69,12.69,0,0,0-.73,1.28c.24-.07.36.18.36.36a1.47,1.47,0,0,1-.12.49c-.36.49-.67,1.4-1.34,1.4.06.48-.24.61-.61.79a3.17,3.17,0,0,1-.73,1.34c-.36,0-.06.43-.42.43l-.13.42c-.24.18-.73.49-.73.85-.24.55-1.15,1.22-1.15,1.83-.79.25-1.34,1.83-1.71,2.5-.3,0-.42.55-.49.79l-.3-.31c.25.13.25-.24.25-.36l.12-.18-.12-.13c-.25-.24.12-.42.3-.54l-.12-.31.12-.49s.24,0,.24-.06-.18-.12-.24-.18l.18-.55c.06,0,.18,0,.18-.12s0-.24.19-.24a.87.87,0,0,1,.18-.55l.06-.49.31-.55.06-.73v-.24c.12,0,.36-.06.36-.18l-.06-.18a5,5,0,0,0,.49-1l-.12-.06a1.38,1.38,0,0,1-.31-.67c0-.24.19-.3.19-.55l.36-.3-.06-.55.36-.3c-.06-.74.8-1,.8-1.77a1.92,1.92,0,0,0,.36-1l.25-.37c0-.24.24-.3.24-.55.06,0,.24-.18.18-.24l.18-.31-.06-.42.25-.19c.24-.54,1-1.39,1-1.94a3.3,3.3,0,0,0,.37-1l.24-.36c0-.49.24-.8.24-1.16l.43-.43-.06-.67.42-.36c-.06-.91,1-1.22,1-2.13A2.16,2.16,0,0,0,23,58.21c.25-.24.67-.61.67-1l.19-.42c0-.3.24-.3.24-.55a5.92,5.92,0,0,0,.31-1,1.23,1.23,0,0,1-.8.06c0-.06.06-.13,0-.13l-.18.07c-.12,0-.43,0-.49.18H21.8c0-.12.12-.31-.06-.31l-.37.06.12.31-.3.24-.37.06H21c.06,0,.36,0,.36.19s-.3.36-.43.42l-.42-.18c-.06.12-.18.12-.18-.06-.07,0-.19,0-.19-.06,0-.25.43-.67-.06-.67l-.3.18.12.31c-.06.12-.12.18-.24.18L19.42,56s-.12,0-.12.06.37.3.12.3h-.48l-.49.19a2.52,2.52,0,0,1-.85-.13c0-.06.12-.12.18-.18,0-.3.3-.3.55-.24.06,0,.24-.06.24-.19s-.06-.06-.12-.06h-.67l-.43.43L17,56.14l-.06.12a1.46,1.46,0,0,1-.55-.24l-.3.18-2.56.06h-.25l-.24.18c-.55-.06-1.34.19-1.95.19s-1.58-.19-2.25-.25l-.31.43-.85-.12a.16.16,0,0,0-.18-.18c-.37,0-.61.24-1,.24a8.44,8.44,0,0,0-2.13,0c.06-.18-.12-.31-.3-.31l-.3.19L2.5,56.51v.12c-.37-.06-.67.12-1,.12A14.14,14.14,0,0,1,0,56.57a17.75,17.75,0,0,0,1.89-.31l.3.12.55-.18a1.4,1.4,0,0,1,.67.18l.91-.3.55.12L5.3,56h.61l-.49-.25A.41.41,0,0,0,5,56l-.61-.19.19-.24.3-.12c.91,0,1.89-.12,2.8-.12a.69.69,0,0,1,.31.06.4.4,0,0,0,.42-.25h.31l.18-.42.67.18a6.34,6.34,0,0,1,1.16-.3l.3.06.49-.18c.12,0,.36.06.42-.13.67.07,1.28-.3,2-.3l.37.06c.12-.12.3-.43.48-.43a.07.07,0,0,1,.07.07v.12l.36-.06h.18l-.18-.13a8,8,0,0,0,1.28-.36l.12-.25.49.19c0-.19.42-.24.61-.37h-.49l-.3-.06-.19.06H16.2c-.19.43-1.47-.06-1.47.37-.3-.06-2.07,0-2.13.24l-1.09-.12-.12-.18s.24-.31,0-.31l-.49.18L10.11,53l-.06-.24a2,2,0,0,1-.73.36L8.52,53a1,1,0,0,1-.61.18A.22.22,0,0,1,7.67,53a2,2,0,0,0,1-.36c0-.06.12-.12.24-.12l.3.06c.19-.31.67-.25,1-.19l.55-.24.54.06.31-.36c.18.06.67.24.67-.13l.3-.3c.25.06.31-.12.31-.3V51c.67-.12,3.71-.6,3.71-1.21a.47.47,0,0,1,.31-.06.76.76,0,0,1,.36.06l.12-.19h.43l.12-.18.43.06.06-.18.42.06a6.05,6.05,0,0,1,1-.37c0-.6.85-.36,1.34-.42l.49-.37.42-.06-.06.13,1.71-1c.24.06.24.24.48.24a2.8,2.8,0,0,1,1.28-.73l.12-.12c.19.18.49.37.55,0a1.85,1.85,0,0,1,1-.12l.12-.12c.42,0,.18-.12.36-.67.25,0,.31-.18.55-.18s.18,0,.18-.13l-.06-.12a2.4,2.4,0,0,1,.79-.73V44l.49-.36c0-.49.18-.92.18-1.4,0-.19-.18-.67.07-.67h.3l.42-.49c0-.31,0-1.4.49-1.4-.06-.18.12-.24.31-.24h.12v-1a.16.16,0,0,0,.18-.18c0-.18,0-.24.25-.24a4.63,4.63,0,0,0,.67-1.71v-.06a3.38,3.38,0,0,0,.48-1.16c.49-.73.73-2,1.34-2.56l.18-.66c.13,0,.31-.06.31-.25l-.06-.24.36-.61c-.06-.43.43-.73.43-1.22s.55-.67.55-1.15A2.87,2.87,0,0,0,36.84,27a52.88,52.88,0,0,0-6.88-.3c-.73,0-1.46.24-2.13.24-.25,0-.73,0-.73-.36s1-.49,1.21-.55c.43.18.67,0,1.1,0,.24,0,1.34.43,1.4,0-.31-.12-.31-.55-.55-.55s-.36,0-.36-.18v-.12a11.91,11.91,0,0,0,2.07.06l.12-.12c-.06-.06-.43-.25-.43-.31s.49-.24.61-.24v-.18a13,13,0,0,1-2.62-.31l.55-.24a2.77,2.77,0,0,1,1,.18c.13,0,.8.06.8-.12s-.13-.24-.19-.37l-2.13-.36c-.06.36-.24.24-.3,0a14.21,14.21,0,0,0-2.25-.12,7,7,0,0,1-2.68-.25c-.13-.06-.25.25-.31.31l-4.26-.55-.18.24c-.13,0-.31,0-.31-.18,0-1.09.61-.61,1.34-.85l.31.06.79-.24c0-.25.36-.49.61-.49a4.93,4.93,0,0,1,1.34.3l1.52-.54a.41.41,0,0,1,.24-.13.33.33,0,0,1,.25.13.59.59,0,0,0,.54-.37l.8.06.12-.18c-4,0-7.86,0-11.81.24l.72-.43c.25,0,.8.13.8-.24.18,0,1.27.12,1.27-.24L20,19.48c0-.3.91-.24,1.16-.42H22c.36-.43,1.1-.31,1.58-.31v-.12c1.1-.36,2.86-.18,3.9-.79h1a1,1,0,0,1,.6-.3c1.71,0,3.29-.19,4.94-.19l.48-.24L37.69,17l.43-.37c.91,0,1.88.49,2.8.49.42,0,.42-.06.42-.49.79,0,1.46-.24,2.2-.24a1.84,1.84,0,0,1,.79-.36c.06,0,.06,0,.06.06a1,1,0,0,1,.54-.92c.07.06.19,0,.19-.06a.85.85,0,0,0-.12-.36c.06.06.36.12.36-.07s-.06-.12-.12-.18c.12,0,.43-.12.43-.24a.13.13,0,0,0-.13-.12l.25-.43c.12.06.24.06.24-.06a.94.94,0,0,0-.12-.43l.55-.54c-.18-.19-.12-.31.06-.31h.12l-.12-.18a.73.73,0,0,0,.48-.61l0-.12c.24-.12.6-.61.66-.61.37,0,.31-.37.43-.37l.06.06a1.47,1.47,0,0,1-.24.73h-.31a5.25,5.25,0,0,0-.67,2.2v.12c-.3.06-.06.3-.36.36a.75.75,0,0,1-.12.49h.12c.12,0,.18-.12.24-.18l.31.36a8.22,8.22,0,0,1-.49,1.1c0,.06,0,.31.12.31.43,0,1.22-2.44,1.4-2.81-.49-.18.31-1,.43-1.27.48-.86,1-1.71,1.46-2.62-.12-.12-.18-.49.06-.49l.18.06c.37-.73,1.16-1.58,1.46-2.19.06-.12.25-.55.43-.55a.21.21,0,0,1,.06.12c-.18.12-.3.43-.06.55a12.65,12.65,0,0,1-1.58,3l-.12.86c.42.3-.37.91-.67,1,.3.25-.43,1.28-.55,1.65.42.3-.12.72-.25,1-.12.12-.24.24-.24.37s.06.12.12.18l.79-1.28c-.24-.18-.12-.67.19-.67L50,13a3.21,3.21,0,0,1-.06.79A17.51,17.51,0,0,0,51.57,11h.06c.12,0,.12.12.12.18,0,.37-.36,1-.42,1.46l-.3.31.12.24c.36-.55.85-1,1.21-1.52-.12-.12-.3-.18-.3-.37a.45.45,0,0,1,.06-.3l.42-.12a16.15,16.15,0,0,0,3.17-4.39c.73-.24,1.16-2.31,1.77-2.31l.12.06.55-1c0,.18-.12.79.12.85l-1.58,2.8c.06-.06.3-.12.3,0a1.1,1.1,0,0,1-.24.61l.06.24a24.51,24.51,0,0,1-1.46,3.47l.12.25a3.21,3.21,0,0,1-.61,1.46l-.06.42c-.12,0-.31.07-.31.19v.12c-.12.24-.85,2.25-.85,2.37-.12-.12-.36.55-.42.67v.49h1.64c.06.24.24.24.43.24,1.09,0,2.25.55,3.41.67l.3.61.67.12c0-.42.3-.18.43,0,.06,0,.54,0,.54-.12s-.24-.3,0-.36h.25c.61,0,.73.48,1.28.48s.48-.06.48.43c1.16.12,2.2.61,3.41.85l-.67.18c0,.07,0,.25.13.25s.3-.06.3.18c.3,0,.18.25.49.25l.67.48a.16.16,0,0,0,.18-.18l-.06-.3c.3,0,.91.67,1.58.85l.12.3.49.25c.25,0,.43,0,.43.3v.24a1,1,0,0,1,.73.25c.3,0,.42.24.73.24a.47.47,0,0,0,.48.43l-.48.42a2.34,2.34,0,0,1,1.09.73c.13,0,.31-.06.31-.18v-.06c.12,0,.36.06.36.24.19,0,.37,0,.37.25v.24c.12,0,.3,0,.3.12a.51.51,0,0,1-.24.37l.49.54V27l.18.19c.06.3-.06.67.37.67-.07.24-.13,1.09.3,1.09l.12,1.95L74.34,32a1.27,1.27,0,0,1-.18.67c0,.36-.42,1.58-.49,1.95l-.91.79a.86.86,0,0,1-.79.85c.18.67-.55.24-.85,1-.25-.12-.43.07-.43.31l-.24.43c-.12,0-.19.06-.19.12s0,.3-.18.3l-.18.25c0,.73-1.52.18-1.52.73s-.55.06-.55.48l-.49.18c-.24.19-.67.61-1,.61s.24-.61-.67-.61C66,39.88,69,38,69.23,38c.31-.8.91-.13,1.16-1.22.12,0,.3,0,.3-.19s0-.3.24-.3l.67-.43a.22.22,0,0,0-.24-.24,2.64,2.64,0,0,0-1.28.67l-.06.49-.61.3c0,.55-1.09.49-1.09,1a6.65,6.65,0,0,0-2.13,1.28c-.37,0-.67.24-1,.24a.84.84,0,0,1-.67.24l-.24-.12C64.18,39.82,63,40.92,63,41s.18.12.24.12c0-.67,1-.73,1.46-.79-.18.18-.42.55,0,.55a1.21,1.21,0,0,0,.25-.8,1.74,1.74,0,0,1,.67.25h-.19c0,.42-.36.85-.54,1.22-.06,0-.12,0-.12.12s.12.36-.19.36l-.36.43c.06-.3-.25-.43-.49-.43l-.06,1a.83.83,0,0,0-.25.67l-.54.24c-.06,0-.37,0-.37-.12,0-.3.43-.49.43-.85h-.79c.06.06.42.48.12.48s-.85-.73-.85.25l.06.3-.8.18-.48.49H60c-.25,0-.25-.12-.25-.3a7.61,7.61,0,0,1,.12-1.16c.06-.06.19-.24.31-.24.36,0,.24.3.67-.61,0-.06,0-.12.06-.12s.24.3.42.3a.06.06,0,0,0,.07-.06v-.06a.39.39,0,0,1-.25-.31c0-.06.18-.06.25-.06l.48-.48v-.25l-.3.25c-.12,0-.37.06-.37.24a10.81,10.81,0,0,1-2,.91l-.3.49c-.3,0-.24.24-.61.24,0,.37-.61.13-.61.37a.48.48,0,0,0,.25.36.8.8,0,0,0-.67.25c0,.24.54.24.67.24l1-1,.25.06c0,.67.3.91.3,1.28l-.67.12-.37.49-.79.12-.06-.19c0-.18.18-.42-.12-.42l-.79.61c-.18-.06-.43,0-.43.18V46c-.3,0-.42.25-.73.25A.79.79,0,0,0,55.1,46a.13.13,0,0,0-.12.12c0,.37.25.31.25.61h-.67l-.49.49a3.13,3.13,0,0,0-1.77,1c.49,0,.55-.06.61.43a1.22,1.22,0,0,1-.67.18.33.33,0,0,1-.36-.24L52,48H50.9c-.18.18-.48.55-.73.55a.34.34,0,0,1-.3-.37c0-.42,1-.36,1-.79l1.28-.43.24-.66.73-.07c0-.18.25-.24.43-.24l.31.06c.12-.18,1.21-.36,1.7-.67a.79.79,0,0,0-.61-.24c-.12,0-.36.06-.36.24-.37,0-1.83.25-1.83.55V46c-.24,0-.85-.18-.85.25-.37,0-.49-.25-.8-.25,0,.25-.24.31-.42.31l-.31-.06a4.74,4.74,0,0,1-1.52.42c0-.55-.42.12-.48.24a1.52,1.52,0,0,0-1,.49c-.42,0-.49,0-.49.43a.32.32,0,0,0,.37.36h.42c-.18.13-.18.49-.18.67.31,0,.18-.24.49-.24l1.16-.43v.25c0,.24-.31.18-.43.18a5.83,5.83,0,0,0-1.71.61c.19-.37.13-.85-.36-.85-.24.91-.3,1.46-1.4,1.46-.12-.06-.37-.25-.37-.37s.43-.06.43-.18S45.12,49,45,49l-.67-.06.24.61-.79.19v.06c-.24,0-.43-.37-.73-.37-.12,0-.12.18-.12.24v.19l-.8.24a1,1,0,0,1-.18.67,7.09,7.09,0,0,1-1.58-.18,2.06,2.06,0,0,1-.61,1c.18,0,.73.12.73-.18,0-.67.91-.43,1.46-.43l.79-.36c.13,0,1.4.12,1.4-.25A5.53,5.53,0,0,1,46,49.87c.06,0,.31,0,.31.12s-.55.49-.67.55c0,.36-.92.73-1.22.73s-.37-.12-.31-.31c-.18,0-.24.19-.24.37v.18a.67.67,0,0,0-.55.24c-.55,0-.24-.06-.55.25H40.85l-.11.24H40v.19h-.48c-.37.79-1.34,1.82-1.34,2.73v.13a.41.41,0,0,0-.43.42v.12c-.3,0-.55.8-.55,1a.94.94,0,0,1-.3.79l-1.1,2.56c0,.36-.36.55-.36.91a1.87,1.87,0,0,1-.37,1.1c-.06,0-.12,0-.12.12,0,.36-.12.18-.55.36l-.18.8a.33.33,0,0,0-.18.3V64l-.06.86-.49.06a.68.68,0,0,0-.18.48v.13l-.43.36a4.59,4.59,0,0,1-.06.91V67l-.61.91-.37.18-.06-.42.19-.19c0-.54.48-1,.48-1.52v-.12l.25-.43c.12,0,.18-.06.18-.12,0-.24-.12-.3.18-.36l.12-.55-.36-.24.06-.74c-.06,0-.18.07-.18-.06,0-.3.36-.54.24-.85l-.24-.18-.37.55.06.06c0,.18-.18.42-.18.61a.65.65,0,0,0-.18.42l.06.25c-.12,0-.31.06-.31.24v.12s-.85,2.32-1.22,2.32c-.11,0-.11-.25-.11-.31.11-.3-.07-.79.24-1l.24-.49c.06.06.18.06.18-.06v-.12l-.24-.25c-.06.19-.31.37-.42.49,0,1.64-.92.67-.92,1.4l-.06.12.06.37c-.37.61-.67,1.28-1.09,1.89l-.55.18-.19.55-.36.36c0,1.46-.67.85-.67,1.46a1.3,1.3,0,0,0-.67.92c-.43,0-.55.6-.55.91l-.3.12v-.06l-.49-.24.43.3c-.43.18-.73.43-.73.91v.13l-.55.24-.49-.18.12-.43c.25,0,1.1-.55.61-.55.06-.12.18-.18.18-.3s-.12-.12-.18-.12V72.4l.18-.37.73-.61c.13-.42.49-.85.49-1.34,0-.06-.06-.12-.18-.12l-.12-.43.36-.06v-.54l-.18.36L25,69.17l-.24.79-.06.06-.12.73.3.31c-.3,0-.3.24-.67.24-.06-.06-.3-.36-.3-.18v.12l-.43.43-.18.48.3.25a9.92,9.92,0,0,1-1,1.7L22.1,74c-.18.36-1.7,3.41-2.13,3.41-.06,0-.06-.12-.06-.18l.24-.49-.06-.43c.06,0,.12-.12.12-.18l-.06-.18a1,1,0,0,0,.19-.61.28.28,0,0,0,.3-.3v-.13a3.56,3.56,0,0,0,.91-1.46c-.06-.36.25-.55.25-.91s.42-.61.36-1l.18-.18c0-.12-.48-.36-.54-.36l-.25-.31.37-.55.37-.24a10,10,0,0,1,1.27-1.58c0,.12.13.61.19.61s0-.13,0-.19.24-.12.24-.18l-.37-.24.61-.19c.06-.12.55-1.46.55-1.52l.18-.18c-.12-.12-.3-.49-.54-.49-.06,0-.06.06-.06.12l-.19-.36.85-.79c.13.06.61.24.61-.06l-.18-.31.67-.3L27.4,62.9c-.3-2.32.91-1.46.79-2.25l.18-.25c-.12-.12-.42-.55-.54-.55s-.13.06-.13.13l-.24-.43c.37,0,.43-.31.43-.61a.34.34,0,0,0,.42-.36l.43-.67-.06-.25c-.12,0-.24,0-.24.12l.06.13a.75.75,0,0,1-.61.42c-.37.49-.61,1-.92,1.52,0,.31.49,0,.49.49-.18.12-.18.43-.18.61a4.87,4.87,0,0,0-.73,1.64c.12.07.48.25.48.37s-.18.06-.24.06.06.18,0,.18-.24-.42-.24-.49l-.13.07a.77.77,0,0,1-.6.24c.06,0,.06.18,0,.18l-.19.49-.73-.12a.7.7,0,0,1-.18.67l-.06.18c0,.06-.79,1.28-.91,1.52.24-.06.42.19.42.43a.49.49,0,0,0-.18.55c-.3.42-.85,1.28-1.28,1.46l-.12.12v-.12h-.06l.06.12C22.53,68.5,22.53,68.56,22.53,68.62Zm-6.21,6.09v.06h.06c0-.06-.06-.18-.12-.18a.06.06,0,0,0-.06.06v.06Zm1.46,1.46c.06,0,.06-.12.06-.18h-.18C17.66,76.05,17.66,76.17,17.78,76.17Zm4.08-.61c0,.31-.18.79-.55.79a.16.16,0,0,1-.18-.18c0-.24.36-.67.55-.85C21.8,75.32,21.86,75.44,21.86,75.56Zm.18-1.7c.06,0,.06-.12.06-.12s0-.07-.06-.07H22C22,73.74,22,73.86,22,73.86Zm.18-.37c.12,0,.12-.12.12-.18l-.3-.06C22,73.31,22.16,73.49,22.22,73.49Zm.25-.54h.06c0-.13-.06-.13-.19-.13h-.05C22.29,73,22.34,73,22.47,73Zm.3-4.75a.14.14,0,0,0,.12-.13L22.65,68C22.65,68.07,22.71,68.2,22.77,68.2ZM23.87,72l.12.25a.06.06,0,0,0-.06-.07.2.2,0,0,0-.18.19h-.13C23.62,72.28,23.69,72,23.87,72Zm.18.37H24v-.12Zm.67-7.86.49-.49a1.18,1.18,0,0,0,.24.49l-.55.25Zm.3,3.29a.23.23,0,0,0,.19-.06.39.39,0,0,0-.25-.06Zm.31-.31a.13.13,0,0,0,.12-.12l-.24-.06C25.21,67.4,25.27,67.52,25.33,67.52Zm.24,1.22.12-.06a.36.36,0,0,0-.06-.24A.54.54,0,0,1,25.57,68.74ZM25.63,63l.06.12A.21.21,0,0,0,25.63,63Zm.13,3.65-.13-.18v.06Zm.18-3.89c.06,0,.06,0,.06-.07a.14.14,0,0,0-.12-.12c-.06,0-.06,0-.06.07A.14.14,0,0,0,25.94,62.78Zm0,5.66.18.18.25-.12-.31-.24Zm.43-1,.42-.18a.46.46,0,0,0-.3-.12c-.07,0-.12.06-.12.18Zm.05-.54.37.06c.06-.19.12-.37.18,0,.19,0,.31-.06.31-.25l-.06-.18.48-.79c-.18.12-.3-.06-.48,0L27,65.46ZM28.19,65c.12-.18.37-.43.37-.67,0-.06-.06-.12-.19-.12l-.12-.37.37-.06v-.12l-.49-.12a2,2,0,0,1-.67,1.22l.12.24.37-.55Zm.25-2.32c.06,0,.06-.12.06-.18l-.19-.06C28.31,62.53,28.31,62.71,28.44,62.71Zm-.07.55a1,1,0,0,0,.43-.3c0-.06,0-.3-.06-.3s-.12.3-.12.36Zm.25-1.09c.12,0,.12-.06.12-.12s-.12-.13-.24-.13h-.06C28.44,62,28.5,62.17,28.62,62.17Zm.24-.49a.13.13,0,0,0,.12-.12c0-.12-.12-.12-.18-.12h-.12C28.68,61.56,28.74,61.68,28.86,61.68Zm.24-5.42c.13,0,.13-.12.13-.18L29,56C29,56.08,29,56.26,29.1,56.26ZM29,62.71V63c0,.06.06-.12.12-.06S29,63,29.1,63c.43,0,.8-.43,1.22-.61a4.88,4.88,0,0,0,.18-.91c0-.19-.05-.31-.24-.31l-.24.19c0,.24-.25.36-.25.67v.12C29.65,62.23,29,62.59,29,62.71Zm.25-6.94a.12.12,0,1,0,0-.24.21.21,0,0,1-.13.06C29.16,55.65,29.23,55.77,29.29,55.77Zm.06,5c.06,0,.06-.07.06-.12v-.07l-.25-.06C29.16,60.65,29.23,60.77,29.35,60.77Zm-.19,2.13h.07c.12,0,.18-.12.3-.19l-.18-.24Zm2.14-4.45a.79.79,0,0,0,.24.61c-.43,0,.06.49-.49.49-.06-.06-.36-.43-.36-.12v.06A2.14,2.14,0,0,0,30,60.58c.06.43.18.37.54.37.06-.25.19-.37.25,0,.12,0,.24,0,.24-.12s-.18-.37.06-.37l.55-1c-.06-.31.49-.79.73-1,0-.18.25-.36.25-.54s-.19-.06-.25-.06l-.12-.49.43-.06c0-.19-.13-1,.24-1,0-.06,0-.36-.12-.36s-.12.36-.12.42C32.15,57.05,31.84,57.91,31.3,58.45Zm-.74-5.29-.18.91-.24.06c0,.12.06.18.24.18a4,4,0,0,0,.79-1.64c.37-.24.55-.85.74-1.22,0-.06,0-.43-.13-.43s-.18.37-.18.49C30.93,51.51,31.24,53.16,30.56,53.16ZM30.2,63.57l.12-.06c-.06-.06-.12-.13-.18-.13S30.14,63.57,30.2,63.57Zm.25-6.88c.05,0,.05-.25.05-.25s.31,0,.31-.06-.43-.3-.55-.36C30.26,56.14,30.32,56.69,30.45,56.69Zm.72-2.38h.13c0-.12-.13-.18-.25-.18S31.05,54.31,31.17,54.31Zm1-4c.12,0,.12-.12.12-.18l-.24-.06C32.09,50.11,32.15,50.29,32.21,50.29Zm.91,5.79c.06.06.12.36.25.36v-.12l.3-.18c-.06-.06-.18-.37-.3-.37s-.06.06-.06.13Zm1.59-3.78c0,.13.12.13.18.13s.24,0,.24-.13-.18-.24-.24-.3A.51.51,0,0,0,34.71,52.3Zm2.55-2.92a.26.26,0,0,0-.24-.24C37,49.38,37,49.38,37.26,49.38ZM37.32,46h.07c0-.12-.13-.18-.25-.18A.16.16,0,0,0,37.32,46Zm.13-.85c0,.12.06.24.18.24l-.18-.42Zm3.95-8.59-.06.12a.49.49,0,0,1,.31-.12l.24-.54a.81.81,0,0,0,.24-.61,8.34,8.34,0,0,1,.43-1l-.43-.18-.3.79c.06.31-.18.37-.18.61l-.31.43C41.34,36.17,41.4,36.41,41.4,36.53Zm1.34,12.12-.24.24.12.25h.73c.25,0,.67-.06.67-.43v-.06l-.42-.24A2.32,2.32,0,0,0,42.74,48.65Zm1.4-12.12c0,.12,0,.37-.18.37H43.9c0,.06,0,.36.12.36s.12-.18.12-.24l.31-.73a1.36,1.36,0,0,0-.06-.24c-.06,0-.06.24-.06.24Zm.19-6.76c0,.07.12.07.18.07s.24-.19.24-.37l.18-.3c-.18,0-.48-.06-.48.18l.06.36S44.33,29.71,44.33,29.77Zm.06,6c0,.12.06.12.18.12s.24,0,.24-.12a.49.49,0,0,0-.24-.36A.68.68,0,0,0,44.39,35.74Zm.06,2.07a.2.2,0,0,0,.18.19c-.06-.25-.06-.49.24-.49a5.09,5.09,0,0,0,.74-.86c0-.12,0-.66-.19-.66A4.67,4.67,0,0,0,44.45,37.81Zm.3-3c0,.12.12.3.25.3s.06-.12.06-.12,0-.36.18-.43l-.18.07C44.93,34.65,44.75,34.65,44.75,34.83Zm.31,13.58c.24-.06.73.06.73-.19a3,3,0,0,0-.86-.24Zm.42-32.82a.4.4,0,0,1,.06-.25c-.06.07-.12.13-.12.19Zm.31,17.9h.12c-.06-.12-.12-.24-.24-.24s-.06,0-.06.06S45.67,33.49,45.79,33.49ZM46.64,38c0-.25.24-.31.24-.55v-.06l.79-.37h1.16c.18-.37.79-.06,1.1-.67l1.1-.06c0-.12,1-.43,1.21-.43,0-.18.12-.24.3-.24h.13a.91.91,0,0,1,.67-.24,3.7,3.7,0,0,1,1.09-.49,3.17,3.17,0,0,1,1.28-.49l.31-.18a4.2,4.2,0,0,0,1.15-.43v-.06c.12,0,.55.06.55-.12l-.06-.24.85-.43.19-.24h.6l.49-.43a.35.35,0,0,0,.37-.3v-.12c.73,0,.91-.19.91-.92v-.24c-.73-.92-2.5,0-2.62-1.28,0,0,.31,0,.31-.06s-.25-.18-.31-.18c0-.25-.36-.25-.55-.25H56.26c0,.25.06.49-.24.49s-.67.06-.67-.3V29a11.86,11.86,0,0,0-2.81-.73,1.33,1.33,0,0,1-.6.31c-.25,0-.31-.18-.31-.37,0-.67,2.07-.36,2.32-.36,0-.19-.06-.25-.25-.25h-2l-.61.37c0,.06,0,.18,0,.18a1,1,0,0,1-.55-.3.35.35,0,0,0-.37.36v.06c-.49,0-.91.86-.91,1.4v.12l-.31.43c-.06,0-.18,0-.18.12s.12.31-.18.31l-.43,1.22c0,.3,0,1.09-.49,1.09.13.61-.36.85-.36,1.4l-.25.55c-.12,0-.3,0-.3.18s.12.31-.18.31A2.59,2.59,0,0,1,45.79,37c0,.49-.12.91-.12,1.28Zm.24,11.62c.31,0,.61-.24.92-.24s.24.24.24.43c0,.42-.49.48-.79.48-.79,0-.25.43-.49.43a.54.54,0,0,1-.42-.18ZM47,30.93c.12,0,.12-.12.12-.18a.14.14,0,0,0-.12-.12c-.07,0-.07.06-.13.06S46.88,30.93,47,30.93Zm.3,1.4c.12,0,.12-.12.12-.18l-.24-.06C47.13,32.15,47.19,32.33,47.25,32.33Zm.06-1.28c0,.13.06.37.18.43.31,0,.43-.67.49-.85l.37-.06s-.49-.12-.55-.12C47.8,30.75,47.31,30.57,47.31,31.05Zm.55-1.21a.42.42,0,0,1,.3-.13,8.71,8.71,0,0,0,.49-1.09l-.18-.12-.31.67C47.86,29.17,47.86,29.59,47.86,29.84Zm.85-14.68h.06V15.1Zm2,33.61c0,.31-.55.55-.73.61l-.18.49-1-.12.18-.61c.8,0,.13-.73.92-.73C49.93,48.89,50.72,48.47,50.72,48.77Zm-.91-34.58v-.13l-.19.49.13-.18A.22.22,0,0,0,49.81,14.19Zm5.11,13.88C55,28.07,55,28,55,28v-.06l-.3-.06C54.74,28,54.8,28.07,54.92,28.07Zm.85.18c0-.12-.12-.18-.24-.18h-.06C55.53,28.25,55.59,28.25,55.77,28.25Zm.49,16.63a.52.52,0,0,0,.31-.13l-.43-.06C56.14,44.75,56.2,44.88,56.26,44.88Zm1.1-16.38c.12,0,.12-.12.12-.19l-.25-.06C57.23,28.31,57.29,28.5,57.36,28.5Zm7.06-8.1h.18a.22.22,0,0,0-.24-.19C64.36,20.28,64.36,20.4,64.42,20.4Z"/><path d="M87.79,32.21h-.06c-.55,0-.24,2.74-.91,2.74l-.18-.06a4.26,4.26,0,0,0-.61,2l-.43.42c0,.55-.48.67-.48,1s.12.79-.25.79c0,.61.12.73-.61.73.18.79-.67.24-.67,1,0,.25.19.73-.18.92a5.79,5.79,0,0,0-.73,1.7c0,.37-.24.31-.24.61.36,0,.24.49.24.73l.3.43a2.82,2.82,0,0,1-.3,1.16c0,.42-.49.66-.49,1.15s-.79.67-.79,1.22a6.18,6.18,0,0,1-.24,1.46l-.25-.42.06-.43-.48-.37.24-1.76c.12,0,.18-.06.18-.12a.68.68,0,0,0-.18-.37c-.06,0-.55.18-.55.24h.12a12.14,12.14,0,0,0-.12,1.47c-.06,0-.24,0-.24.12s.18.12.24.18c0,.43-.42,0-.42.67.36,0,.12.3,0,.43s0,.3.06.3.12-.43.12-.49c.18,0,.36-.06.36-.24v-.18c.19.73.25,1.46.37,2.19-.49,0-.12.24.06.3,0,.86-.55,1.83-.55,2.74a10,10,0,0,0,.12,1.34l.43.49c-.37,0-.55-.06-.55.37,0,.6.43.66.92.66,1.15,0,2.31-.79,3.22-.79l.55-.42c0-.55.55-.49,1-.61a9.21,9.21,0,0,1,1.47-1.64c0-.55.79-.55.79-1.1.24.06.49,0,.49-.31l.48-.61c0-.42.73-.24.73-.79a1.48,1.48,0,0,1,.73-.85l1-.85a5.06,5.06,0,0,1,.91-1.58c.49.12,1-1.1,1-1.53l.18-.48c.55,0,.12-.49.55-.49A7.41,7.41,0,0,0,95.53,43l.6-.19a3.78,3.78,0,0,1,.8-1.52c.24.12.24-.42.3-.55l.43-.48c0-.31.24-.19.24-.61a.35.35,0,0,0,.43-.37l.24-.48c0-.31.24-.43.24-.73.19,0,.49-.19.49-.43a1.81,1.81,0,0,0-.12-.55c.85,0,1.64-1.46,1.77-2.25l.42-.55c0-.18.06-.43.24-.49l.25-.67c-.06-.24.18-.42.42-.42a6.44,6.44,0,0,1,1.53-2.56c0-.73.12-.91.85-.91.06,0,.12,0,.12-.06s-.24-.19-.3-.25v-.3l-.25-.12-.06-.67c.86,0,1.65-1.46,1.77-2.26l.42-.54c0-.19.07-.43.25-.49l.24-.67c-.06-.24.18-.43.43-.43a6.45,6.45,0,0,1,1.52-2.55c0-.73.12-.92.85-.92.06,0,.12,0,.12-.06s-.24-.18-.3-.24,0-.55.24-.67c0-.43.79-.49.79-1l.31-.67h.67c.06-.12.91-1.76.91-1.88a.13.13,0,0,0-.12-.13l.37-.18.3-.79.43-.31c0-.48.54-1.21.54-1.46l.49-.54a.42.42,0,0,0,.24-.43l.49-.43c0-.36.67-1.46,1-1.46h.06a.7.7,0,0,1-.31.67,1.83,1.83,0,0,1-.49,1c0,.42-.73,1.4-.73,1.58s.07.43-.3.43l-.43.48c.25-.06.73-.12.73.24-.3,0-.12.37-.06.49.25,0,.79-.12.79.25l.25.42c0,.8-.12.86-.67,1.34v.73l-.31.37c0,.12.07.61.19.61s.12-.31.12-.37l.42-.36c0-.06,0-.25.13-.25s.24.13.36.25l.61-1a.16.16,0,0,0,.18-.18c0-.18,0-.3.25-.3.06,0,.42.18.42.24h-.12c.06.12.25.67.37.67s-.06-.43.18-.43.55-.54.55-.85c0-.55.79-.37.79-.91.31-.37.31-1,.49-1.46a.82.82,0,0,0,.61-.25l.18-.67h.73l-.55.43-.12,1-.73,1a.16.16,0,0,0-.18.18c0,.12.06.24-.19.24l-.3.49c-.06,0-.24,0-.24.12s.18.31.3.37l.67-.18.18-.8c.12-.24.55-1,.85-1.09v-.37c.31-.3.43-1.4.74-1.4a.26.26,0,0,1,.24.25c0,.54-.91,2.55-1,3.41.49,0,0-.55.49-.55.43-.73.85-1.83,1.71-2.19,0-.49.06-.49.55-.49.18-.12.18-.37.18-.55l.48-.43c.25,0,.31-.24.31-.42,0-1.77.49-.67.49-1.34V9.93l.42-.31c0-.49.43-.67.79-.91.13-.37.06-1,.61-1h.06a1.76,1.76,0,0,1,.79-1.34l.07-.36c.06,0,.18,0,.18-.06s-.25-.25-.25-.37.07-.06.07-.06h.36l.06.49a.28.28,0,0,1-.3.3,1.12,1.12,0,0,1-.19.61V8c-.42.24.13.73-.79,1.22v.67c-.24,0-.36.18-.36.42v.06l-.37.43c0,.3-.24.42-.24.79-.25.37-.18,1.46-.49,1.46,0,.25.19.73-.18.73l-.55,1.1c0,.49-.49.73-.49,1.21-.36.19-.24.86-.24,1.16l-.24.19c-.18-.06-.49,0-.49.24l-.24.55-.06,1-.43.55a.76.76,0,0,1-.3.61c.06.24.18.85-.25.85v.67c-.06.06-.12.12-.18.12s-.67,1.1-.67,1.46l-.55.19a4.05,4.05,0,0,1-.49,1.88c-.3,0-.18.31-.54.31a1.24,1.24,0,0,1-.19.61c0,.18,0,.36-.18.36h-.3c0,.49-.31.43-.31.79,0,0,0,.13-.06.13s-.24-.19-.43-.37l-.06.12-.06.73.19-.42.18,1c-.06.06-.12.12-.18.12-.31,0-.31-.12-.31.37-.12,0-.24,0-.24.18s-.18.24-.31.43,0,.6-.3.6v.68c-.06.06-.12.12-.18.12h-.06a3.4,3.4,0,0,0-.61,1.46l-.31.12a1.18,1.18,0,0,1-.12.49l-.12-.06a5.12,5.12,0,0,1-.49,1.52c-.3,0-.18.3-.55.3a1.16,1.16,0,0,1-.18.61c0,.18,0,.37-.18.37h-.31c0,.48-.3.42-.3.79,0,0,0,.12-.06.12a5.61,5.61,0,0,1-.67-.61c0-.3.24-.18.24-.49l.25-.54c0-.06.06-.19-.06-.19s-.19.31-.19.37l-.42.49c0,.3-.31.36-.31.67l-.49.48v.86s-.18,0-.18.06.37.18.43.18c0-.37.42-.49.73-.49l.3-.73.19,1a.34.34,0,0,1-.19.12c-.3,0-.3-.12-.3.36-.12,0-.24,0-.24.13,0,.48-.74.24-.8,1.88a.41.41,0,0,0-.42.43l-.49.67a1.82,1.82,0,0,1-.49,1.34l-.24.12a1.73,1.73,0,0,1-.61.85c-.43,0-.43,1-.91,1,0,.85-.25,1.88-.25,2.55-.42.19-1,1.22-1.15,1.59,0,.85-1.28,1.46-1.28,1.94l-.67,1c0,.18-.06.43-.24.49V53.7l-.8,1.1a.89.89,0,0,0-.55.18.16.16,0,0,0-.18.18c0,.19-.06.31-.3.31l-.92.49c0,1.58-.67,1-.67,1.52-.12,0-.3,0-.3.18s0,.25-.24.25a.91.91,0,0,1-.25.67c0,.24,0,.36-.3.36h-.18l-.43.43a1,1,0,0,0-.67.3c-.36,0-.43,0-.43.37-.06.12-.18.36-.36.36l-.12-.06c0-.06,0-.43-.06-.43s-.25.67-.55.67-.31.07-.31.25,0,.3-.24.3a.68.68,0,0,1-.36.18c-.07,0-.13-.06-.13-.18,0-.43.49-.67.49-1.09v-.8l-.36-.06-.13.55-.42.37c-.25,0-.37,0-.37.3v.18c.06,0,.24,0,.24.12s-.18.19-.24.25a2.5,2.5,0,0,1-.12.36c-.06,0-.06-.12-.06-.18s-.61.12-.61.18.55,0,.55.19a6.55,6.55,0,0,1-.73.61c0-.61-.37.06-.43.24l-.49.24-.3.43-.55-.43c0,.19,0,1-.24,1a.85.85,0,0,1-.43-.19c-.24,0-.24.31-.24.43s.06.55-.31.55l-.18-.06-.49.49-.48-.06c.06.18.06.54-.25.54s-.54,0-.67-.24c-.12,0-.36-.06-.36-.24a.22.22,0,0,1,.24-.25c-.06-.12-.18-.36-.36-.36s-.07.18-.07.18a.74.74,0,0,0-.24.49c0,.24.43.12.43.24a14.75,14.75,0,0,1-1,1.4h-.55l-.18.24-.85.43c-.12.24-.55.18-.79.12a.16.16,0,0,1-.18.18c-.13,0-.31,0-.31.19s.31.12.31.24-.07.06-.13.06c-.3,0,0,.55-.54.55-.12-.12-.31-.3-.49-.3a.13.13,0,0,0-.12.12.5.5,0,0,0,.49.55l.36.3c.55,0,.85-1.22,1.64-1.22,0-.18.13-.24.31-.24h.42l.43-.43c.37,0,.49-.24.79-.24l.49-.55c0-.24.24-.3.43-.24a.27.27,0,0,1,.3-.25l.24.06a1,1,0,0,0-.3.55c0,.12.12.12.18.12a7.76,7.76,0,0,0,1.16-.18v.24c0,.25-.91.49-1.16.49-.61,0-.12,1.22-.61,1.22-.24.18-.55.49-.85.49a.13.13,0,0,1-.12-.12l-.37-.37c-.18,0-.61.18-.61.43a16.91,16.91,0,0,1-2,.79l-.42.3c0,.18,0,.43-.25.43-.54,0-1.15-.12-1.76-.12V70c0-.42.91-.42,1.22-.49l-.19-.42-.79-.18c0,.36-.24.24-.48.24,0-.24-.25-.24-.43-.24h-.43v.24h.86v.12c0,.49-.43.43-.8.43a4.3,4.3,0,0,1-.79.67H81l-.13.3H79.57l-.18-.3-.12.55a.84.84,0,0,0-.67.24H76l-.67-.31-.48-.48c-.68,0-1.29.06-2,0l-.24-.55c-.91-.18-1.46-.12-1.46-1.28l-.67-.06c.06-.24.06-.55-.24-.55a.31.31,0,0,0-.31-.43l-.79-.3c0-.49-.79-.73-1.22-1.46,0-.43-.48,0-.48-.55,0-.24.06-.42.36-.42s.43,0,.43-.31l-.49-.43c-.61,0-.73-1.76-.73-2.31-.79-.36-.61-1.46-.61-2.19,0-.18,0-.61.3-.61,0-1.71-.54-4.63.55-6.09,0-.49-.12-.79.19-1.16V50.36c.18,0,.24-.13.24-.31,0-.43.24-1.46.55-1.64,0-.49.24-1,.24-1.47a3,3,0,0,0,.43-1.27c-.18.06-.31-.55.12-.55h.12v-1c.12-.06.85-2.13,1-2.49v-.43l.24-.24c0-.49.49-.79.49-1.34l.42-1.1c0-.42,1-1.76,1-2.43.48,0,.48-.61.48-1,0-.85.49-1.09.49-1.76.31,0,.18-.25.49-.25a1.32,1.32,0,0,1,.24-.67.65.65,0,0,1,.19-.48h-.13a1.42,1.42,0,0,0,.25-.73c.24,0,.24-.19.43-.25a.05.05,0,0,0,0-.06A1.24,1.24,0,0,1,75,30.5a3,3,0,0,1,.36-1h.25a.22.22,0,0,0,.06-.18L75.8,29V29c.24-.48.36-1.09.61-1.64h.12V27h.3v-.18a.37.37,0,0,0,.25-.06v-.24h.12v-.18l.3-.49v-.31h.06V24.9c.49,0,.55,0,.55-.48.49,0,.43-.67.43-1a.32.32,0,0,0,.36-.36v-.19l.67-.24c0-.24-.06-.43.25-.43H80l.12-.79c.24,0,.43,0,.43.31s0,.42.24.42.43-.42.43-.66a4.13,4.13,0,0,1,1.22-1.34c0-.31.3-.31.3-.61l.55-.55,1.15-.43c0,.49.37.12.49-.06s.91-.24,1.16-.24v-.13h.06l.06.07L86.7,18c.18,0,.18.37.18.49a.28.28,0,0,1-.3.3h-.13l-.3.74a3.25,3.25,0,0,1,1.52.24c0,.06.18.55.18.55s0-.37.13-.37.24.19.3.24a.3.3,0,0,1,.31.31,1.66,1.66,0,0,1-.31.91c0,.31-.12,1.22-.49,1.22a2.43,2.43,0,0,0-.42,1.1.16.16,0,0,0,.18.18l.67-1.28c.43,0,.91,0,.91-.55l.73-.79c0,.67-.24,1.22-.24,1.77l-.18.24.18.12v.31l.24.18.25,1.7a6.17,6.17,0,0,0-.31,1c0,.12-.12,2.43-.55,2.43-.12,1.1-.85,1.41-.91,2.75l-.18.42ZM67.7,61.8l.55-.12v-.61c0-.42-.31.18-.31-.85a4.21,4.21,0,0,0-.73-.31C67.21,60.52,67.7,60.65,67.7,61.8Zm.43,3.53c.06,0,.12-.12.12-.18a.13.13,0,0,0-.12-.12l-.19.06A.22.22,0,0,0,68.13,65.33Zm.36-3,.43-.12-.43-.61Zm.43.55c-.18,0-.18.3-.18.42a1.44,1.44,0,0,0,.18.73c.55,0,.06.49.61.49.06,0,.18,0,.18-.12a.53.53,0,0,0-.24-.37c0-.36-.31,0-.31-1C69.1,63,69,62.9,68.92,62.9Zm.3-.49c-.06,0-.06.61-.06.67l.43.49Zm1.65,4.32c.06,0,.06-.12.06-.12a.4.4,0,0,0-.25-.42l-.48-.92c0-.06,0-.18-.06-.18s-.37.61-.43.73c0,.49.67.43,1,.43A4,4,0,0,0,70.87,66.73Zm1.76,1h.24v-.43h-.48C72.39,67.52,72.33,67.71,72.63,67.71Zm5.54-12.24c.13,0,.13-.12.13-.18l-.25-.06C78.05,55.29,78.11,55.47,78.17,55.47Zm.13-2.68c0,.06.12.43.24.43v-.13c.18,0,.24-.24.24-.36l-.24-.37ZM79,56.44c0,.13,0,.37-.18.37l.12,1.1.37-.61V56.08l-.55-.37c-.06,0-.18,0-.18.12a.4.4,0,0,0,.24.31Zm-.06-1.7c.06,0,.06-.12.06-.18l-.18-.06A.31.31,0,0,0,78.9,54.74Zm0,1c.25,0,.37-.06.37-.3V55c-.24,0-.49,0-.49.31v.42Zm.06-2a.49.49,0,0,0,.55.55v-1.4c.19,0,.25-.24.25-.36l-.49-.13A5.52,5.52,0,0,0,79,53.7Zm.31-5.35c0,.18.06.3.24.3a.79.79,0,0,0-.24-.49Zm.12,2.74.37.12v-.67l-.49-.18Zm.43-7.92h.36l-.06-.42h-.36Zm.06,3.9h.06c0-.13-.06-.19-.18-.19S79.76,47.07,79.88,47.07Zm0,10.84c.06,0,.06-.07.06-.07a.13.13,0,0,0-.12-.12h-.06C79.76,57.78,79.82,57.91,79.88,57.91Zm.67-13h.18a.26.26,0,0,0-.24-.25C80.49,44.75,80.43,44.94,80.55,44.94Zm.18-1.53H81c0-.24-.3-.36-.48-.42C80.49,43.29,80.43,43.41,80.73,43.41ZM81.1,42a.46.46,0,0,0,.3-.12L81,41.77C81,41.83,81,42,81.1,42Zm.24,2.32c.12,0,.36-.07.36-.25H81Zm-.18.73c.06,0,.06-.06.06-.12s-.06-.19-.18-.19H81C81,44.75,81,45,81.16,45Zm0,.61h.06c0-.13-.06-.13-.18-.13H81C81,45.61,81,45.61,81.16,45.61Zm.06-2.2.24.07a.47.47,0,0,0,.43-.31l.61-.42.48-1.1c.19-.06.19-.37.19-.49l-.49-.43c-.06.13-.31.73-.43.73s-.06-.24-.06-.3L81.7,41v.67c.07,0,.43,0,.43.06s-.43.3-.43.61a.56.56,0,0,1-.3.49l.3.3Zm.48,2.32c0,.12.19.12.25.12s-.18-.43-.25-.43Zm.8-6c-.06.3.36.3.48.3,0-.54.43-1,.43-1.52L83.9,38l-.12-.43-.37.06A4.69,4.69,0,0,0,82.5,39.76Zm1.46-3c0,.12.42.12.48.12s.19-.37.19-.55l-.43-.18Zm.79-.86a.12.12,0,1,0,0-.24.21.21,0,0,1-.12.06C84.63,35.74,84.69,35.86,84.75,35.86Zm2.07-3.65H86l-.13.12v.49l.49.06c0-.37.55-.31.55-.67Zm-.49,33.92-.18.36a3.38,3.38,0,0,0,1.16-.61l-.67-.36C86.64,65.82,86.33,65.82,86.33,66.13Zm.61,2.55h.61c.18,0,.3-.24.3-.42l-.54.06Zm1-3.83c.12,0,.12-.12.12-.19l-.25-.06C87.85,64.66,87.91,64.85,88,64.85Zm2.55-1h.25v-.43h-.49C90.29,63.63,90.23,63.81,90.53,63.81Zm1,1.65a1,1,0,0,1-.25.54c-.12,0-.24-.06-.24-.18a1.15,1.15,0,0,1,.24-.55C91.39,65.27,91.51,65.33,91.51,65.46ZM92,66c0,.43,0,.49-.42.49A.47.47,0,0,1,92,66Zm-.24-3.89c0,.06,0,.24.12.24s.18-.18.25-.24.36,0,.36-.13-.36-.3-.49-.36Zm2.68,1.58c0,.12-.24.12-.3.12l-.43.85c0,.25-.12.49-.37.49l-.54-.06-.31-.55a.64.64,0,0,0,.55-.49c.67,0,.67-.67,1.4-.67Zm-.49-3.29c0,.06.19.18.25.18,0-.48.48,0,.48-.36.31-.12.79-.43.79-.85.07,0,.19-.06.19-.13s-.12-.06-.19-.06l-.54.25c0,.42-.73.48-.73.91C94.19,60.34,93.94,60.34,93.94,60.4Zm2,2.26c.06.05.31.18.31.3s-.19.12-.25.12-.36,0-.36-.24.12-.49.12-.73Zm.55-1.1c0,.18-.31.24-.43.24l.19-.42C96.32,61.38,96.44,61.44,96.44,61.56Zm1.34-3.9c.18,0,.36-.18.55-.18,0-.18-.13-.31-.37-.31l-.3.06C97.66,57.3,97.66,57.66,97.78,57.66Zm-.12,1.28h.54c.07,0,.19,0,.19-.06s-.37-.3-.49-.37A.42.42,0,0,0,97.66,58.94Zm.61-.73c.06,0,.06-.12.06-.18s0-.12-.06-.12-.07.06-.13.06S98.14,58.21,98.27,58.21Zm.54,1.16c.25,0,.31-.25.31-.43l.18-.24c-.3,0-.49,0-.49.3Zm1.89-2.2c.12,0,.12-.12.12-.18l-.24-.06A.3.3,0,0,0,100.7,57.17ZM102,54.8c0,.43-.49.55-.49.73s.31.18.43.18a5.1,5.1,0,0,1,1.28-2.13c.18.06.24-.18.24-.3H103a1.42,1.42,0,0,0-.25.73A2.31,2.31,0,0,0,102,54.8Zm1.46-2.07c0,.06.12.24.25.24s0-.3.18-.48l-.12.06C103.68,52.55,103.5,52.55,103.5,52.73ZM104.36,30c.12,0,.12-.12.12-.18a.13.13,0,0,0-.12-.13c-.07,0-.07.06-.13.06S104.23,30,104.36,30Zm.06,22c.06,0,.06-.24.06-.31s.3,0,.3-.06a3.71,3.71,0,0,0-.55-.12C104.23,51.63,104.29,52.06,104.42,52.06Zm.3-1c0,.25.12.31.31.31l-.31-.49Zm.43-.66s0,.12.06.12.06-.06.06-.12l.42-.25c0-.06-.06-.24-.12-.24s-.06.24-.06.24S105.15,50.17,105.15,50.36Zm1-1h.06a3.1,3.1,0,0,1,.49-.85c0-.12-.43-.12-.49-.12A2.57,2.57,0,0,1,106.12,49.32Zm.85-1.64c0,.18.13.18.25.18l-.25-.43Zm1-3.54v.31c.18,0,.24-.18.24-.31V44C108.07,44,108,44,108,44.14Zm.73-.54a.17.17,0,0,0-.18-.19l-.31.55C108.43,44,108.68,43.84,108.68,43.6Zm.67-22.84c.12,0,.12-.12.12-.18a.13.13,0,0,0-.12-.12c-.06,0-.06.06-.12.06S109.23,20.76,109.35,20.76Zm.06,21.74c0,.18.06.25.24.25l-.24-.49Zm1.22-3.17a9.42,9.42,0,0,0-.49,1.22c0,.18.36.18.49.18a2.77,2.77,0,0,0,.67-1.46l-.43-.24C111,39.15,110.75,39.4,110.63,39.33Zm.36-3.71h.18c0-.12-.18-.18-.3-.18S110.87,35.62,111,35.62Zm.92-1.22a.19.19,0,0,0,.18-.18l-.43-.06Zm1.94-1.76-1.15-.49-.06.06c-.06.18-.25,1-.49,1.22a3.61,3.61,0,0,1,1.16-.31A4.36,4.36,0,0,1,113.85,32.64Zm-.24,1.28c.06,0,.49.06.49-.07s-.55-.48-.73-.48-.06,0-.06.06C113.31,33.67,113.31,33.92,113.61,33.92ZM115,21.31l-.55-.06C114.4,21.5,114.83,21.37,115,21.31Zm0-.61c0,.12.06.25.18.25.37,0,.49-.31.49-.61l-.49-.06C115.13,20.52,115,20.4,115,20.7Zm.91-1.7c0,.18.12.24.31.24l.24-.06c-.06-.18,0-.43.24-.43a.26.26,0,0,0-.24-.24l-.24.06C116.17,18.75,116.11,19,115.86,19Zm1.1-1.16c.12,0,.12-.12.12-.18a.13.13,0,0,0-.12-.12c-.06,0-.06.06-.12.06S116.9,17.84,117,17.84Zm1.09,3.84a.29.29,0,0,0,.31.3l.18-.06a.33.33,0,0,1,.18-.3v-.06l-.18-.31C118.54,21.68,118.05,21.25,118.05,21.68Zm.25-5.12c0,.18.06.25.24.25l-.24-.49Zm.79,4.69.12-.12h.12V21l-.42-.31.18.31Zm.43-1V20c-.07,0-.07-.06-.12-.06l-.31.06Zm5.84-9.55c.06,0,.06-.07.06-.13a.13.13,0,0,0-.12-.12h-.06C125.24,10.47,125.24,10.66,125.36,10.66Zm.49-.73c.06,0,.06,0,.06-.06s-.06-.19-.18-.19h-.07C125.66,9.74,125.73,9.93,125.85,9.93Zm.12-.55h.18c0-.12-.06-.12-.18-.12h-.06Z"/><path d="M166.33,21.74c.19,0,.37,0,.37.18s-.18.43-.12.67a3,3,0,0,0-.73,1.4.61.61,0,0,0-.31.61v.12l-.49.24a9.68,9.68,0,0,1-.42,1.41.43.43,0,0,0-.24.24c-.07.12-.13.42-.25.49-.18.48-.49,1-.67,1.46.18,0,.49,0,.49.18s-.24.49-.18.73l-.61,1c-.31,0-.49.91-.49,1.21v.19c-.43,0-.73.54-.73.91-.37.06-.37.73-.37,1-.12,0-.18.06-.18.19s-.06.3-.24.3c0,.12-.12.18-.25.18l-.3-.06c0-.3.18-1.28.61-1.28l.3-.55a.79.79,0,0,1,.19-.54c0-.61.67-.85.67-1.46l.24-.19-.31-.06a.91.91,0,0,0-.42.61c0,.61-.61.86-.61,1.46-.67.55-1,1.89-1.71,2.62-.12.06-.18.12-.18.24a1.14,1.14,0,0,0,.18.49.31.31,0,0,1-.24.12c-.12,0-.18-.06-.18.13v.12c-.12.12-.31.3-.31.48s.25.13.31.13.12-.67.3-.67.12.12.12.18a.55.55,0,0,1,.31.42c0,.19-.18.25-.31.37a.34.34,0,0,1-.24.43c-.06.18-.36.24-.55.24a.16.16,0,0,1-.18-.18.92.92,0,0,1,.24-.55c-.3,0-.54.12-.54.43v.06a4.52,4.52,0,0,0-1,1.46c.06.49-.49.73-.49,1.22-.24,0-.24.3-.24.42s-.06.49.18.49.43,0,.43.3a.67.67,0,0,0-.24.55l-.49.49L156,43.66c-.12,0-.18.06-.18.12s.12.36-.18.36c0,.13,0,.31-.18.31a.72.72,0,0,1-.43-.25c-.06,0-.18,0-.18.13s.61.42.61,1c0,.18-.07.18-.19.18H155v.74c-.18.18-.55.48-.73.48a.17.17,0,0,1-.19-.18l-.18-.06-.24.55a.62.62,0,0,1-.19.61c0,.61-.42.06-.54.54l-.19.73.92-.06-.06.49a5.61,5.61,0,0,0-1.4,2.13c.36,0,.3.18.06.31,0,.54-.49.85-.49,1.4-.55.06-.67.79-.67,1.22-.18,0-.36.06-.36.24l.06.18a2.23,2.23,0,0,0-.43,1.22l-.3.3-.19.61c-.18,0-.49.13-.49.31,0,.61-.66,1.15-1,1.64l-.06.85c-.12-.06-.43-.06-.43.12V60a6.62,6.62,0,0,1-.66,1.82c-.19-.12-.25.19-.25.31l.25.06a.85.85,0,0,1,.12.36c0,.31-.55.07-.55.43,0,.12.06.24-.12.24l-.25.43c0,.3-.24.3-.24.55l-.25.49c0,.24-.36.73-.36,1,0,.55.24.91-.36.91l-.37.55-.49.18V65.88c.13-.12.37-.36,0-.36h-.12l-1.09.12a1.16,1.16,0,0,1-.74.42l-.42.25.73.24c0-.3.36-.3.55-.24l.42-.55h.13c.12,0,.3,0,.3.18s-.24.49-.24.73a4.12,4.12,0,0,1-1.83.67c-.18,0-.55,0-.55-.24-.06,0-.24,0-.24-.12s.18-.12.24-.19,0-.18-.12-.18a.61.61,0,0,0-.43.25l-.48-.19H140l-.12.43-.85.12.06-.73c.48-.06-.19-.24-.31-.3l-.36-.37-.55-.24c-.12-.37-.37-.43-.37-.85l-.54-.25-.43.25c-.92.12-.25.79-.73.79-.12,0-.19-.06-.25-.19l-.3-.12v-.48c-.37-.31-.3-1.59-.37-2h-.18c0-.73-.24-.73-.3-1.22.24-.18.3-.43-.12-.43l-.37-1.46c.06-.36.37-1.09-.24-1.09-.37,0-.49-.49-.49-.8,0-.12.06-.36.18-.42s.25,0,.25-.13c0-.36-.61-.48-.67-1.09l-.19-3.1c0-.13.06-.31.19-.31H133c-.31-.12-.92-5.66-.92-6.64,0-.18,0-.91.31-.91.79,1,.61,2.8.67,4.08,0-.85,0-4.93-.12-5.42-.25.06-.31-.3-.31-.43,0-2-.24-4.08-.18-6-.67,1-1.28,2.07-1.95,3.1v.61A2.84,2.84,0,0,0,130,42c0,.43-.24.31-.54.37A16.11,16.11,0,0,1,128,45.06c.07.3-.24.48-.48.48l-.31.55c-.24.12-.24.49-.24.67s.06.43-.24.43a31.51,31.51,0,0,0-2.2,4.26v.12a.39.39,0,0,0-.48.37v.12c-.37,0-.67.85-.67,1.16,0,.55-.43.55-.43.91l-1.34,2.8c0,.43-.43.61-.43,1V58l-.42,1c-.12,0-.18,0-.18.12s0,.31-.25.31l-.42.18-.19.85c-.18,0-.3,0-.3.25l-.06,1.15-.55.13a.82.82,0,0,0-.24.66l-.49.31a8.4,8.4,0,0,1-.12,1.22l-.73,1-.43.19V65l.18-.24c0-.55.49-1.1.61-1.65a5.6,5.6,0,0,0-.67,1.34c0,.25-.18.31-.18.55v.06c-.24,0-.43.12-.43.37v.12c-.3,0-.6.79-.6,1a1,1,0,0,1-.37.79l-1.22,2.5c0,.37-.36.55-.36.91v.06l-.43,1c-.06,0-.18,0-.18.12,0,.37-.25.24-.55.37l-.18.79c-.12,0-.25.18-.25.3l-.06,1-.48.06a.75.75,0,0,0-.25.61l-.42.3a6.87,6.87,0,0,1-.13,1.1,5.42,5.42,0,0,1-.66.91l-.37.18v-.43L110,77c0-.61.55-1,.55-1.52v-.12l.24-.43c.13,0,.19,0,.19-.12s0-.3.24-.3l.12-.55-.36-.31.12-.66a.17.17,0,0,1-.18-.19,1.58,1.58,0,0,1,.3-.73l-.43-.3c0,.48-.36.79-.36,1.27a.89.89,0,0,0-.18.55v.12c-.19,0-.31.07-.31.25V74c-.06.06-.91,2.25-1.34,2.25-.12,0-.12-.24-.12-.3.24-.24,0-.79.3-1l.31-.49c.12.12.18-.06.18-.19L109,74c0-.18-.06-.43-.25-.49a3.06,3.06,0,0,0-.36,1c-.25,0-.79,1-.79,1.4-.06,0-.19,0-.19.06s.19.3-.12.3l-.24.55-.43.31a.68.68,0,0,1-.18.48,1.59,1.59,0,0,1-.55.86c0,.42-.42.55-.42,1l-.61.85c0,.19-.12.31-.37.31h-.12v.91c-.67,0-.55,1.46-1.16,1.46-.12,0-.18-.18-.18-.3l1-2a1.87,1.87,0,0,1,.37-1.1.13.13,0,0,0,.12-.12c0-.31-.12-.42.3-.49a3.78,3.78,0,0,1,.37-1.4c.18-.06.24-.18.43-.24a1,1,0,0,1,.18-.61l-.3-.43c.42-.06.06-.36.42-.36,0-.49.79-1.46.79-1.95V74c.13,0,.25,0,.25-.06s-.18-.12-.25-.12,0-.19-.12-.19c-.3,0-.42.43-.55.67-.24-.06-.36.19-.36.37v.12l-.55.79c.06,0,.37-.06.37.06s-.19.25-.19.43c-.79.12-.79.24-1,.91l.06.06-.06.37c-.43,0-.12.79-.67.79l-.31-.06c-.18.06-.24.3-.24.49l-.37.3c0,.12,0,.25-.18.25s-.24-.13-.3-.19c-.06.24-.25,1-.55,1-.12.3-1,2.19-1.34,2.19-.06,0-.06-.12-.06-.18l.43-.67.24-1.16a3.94,3.94,0,0,1-.91,1.64c0,.61-.19,1.16-.8,1.22l-.3-.42a24.5,24.5,0,0,0-1.28,2.49v.12c-.18,0-.3.06-.3.25v.12l-.49.3a3.07,3.07,0,0,1-.3,1l-.07-.25.25-.36-.06-.06c-.19,0-.73,1.09-.86,1.28,0-.25.25-.31.19-.55a4.21,4.21,0,0,1,.67-1.65c0-.3.12-1,.48-1.09l.06-1c0-.3-.06-.67.25-.85a5,5,0,0,1,.73-1.89c0-.12-.06-.79.18-.79l.12-.48c.12,0,.31,0,.31-.19,0-.85.48-1.58.48-2.43l-.06-.79.13-.07c.24,0,.3.19.3-.18l.61-1.28c.12-.06.12-.24.12-.36v-.12a.47.47,0,0,0,.43-.49c.55-1,1-2.07,1.58-3a2,2,0,0,1,.55-1.15c0-.12,0-.37.18-.37l.24-.55v-.54c.13,0,.43.06.43-.13,0-.54-.43-1.09.12-1.52l.49-1.15c.42,0,.06-1,.42-1l.19-.24v-.06a17,17,0,0,1,1-2.44c.31,0,0-.43.43-.43l.43-.24a.84.84,0,0,1,.12-.55c-.06-.48.42-.67.42-1.16l.55-.91c-.06-.42.37-.73.37-1.15.42,0,.12-.92.73-.92l.06-.49.43-.24c0-.18.06-.42.06-.61h.3l.12-.12c0-.61-.42-1.15.13-1.7l.54-1.28c.49,0,.12-1.16.49-1.16l1.4-3a.17.17,0,0,0,.18-.19c0-.18.06-.3.25-.3,0-.18.18-.24.36-.24h.12a1.21,1.21,0,0,1,.12-.67c-.06-.55.49-.8.49-1.28l.61-1c-.06-.49.43-.79.43-1.28.48,0,.12-1,.79-1l.12-.61c.12,0,.43-.06.43-.24s-.06-.43.18-.43.24.06.24-.06c0-.37.25-.37.25-.73a5.46,5.46,0,0,0,.85-1.52c.12,0,.24-.06.24-.19s-.06-.3.18-.3v-.61c1.47-1.7,2.14-3.78,3.48-5.42,0-.36.24-.91.67-1l-.13-.85c.55-.19.49.06.49-.55.12,0,.25-.06.25-.18s0-.25.18-.25l.18-.49.3-.18a2.58,2.58,0,0,0,.19-1l.61-1a1.72,1.72,0,0,0,.48-.49c0-.24.25-.24.25-.48,0-.49.67-.55.67-1l.18-.42a3.48,3.48,0,0,1,.85-1.77c0-.36.67-.55,1-.61v-.54c.12,0,.36.05.36-.19v-.79l.24-.18.49.24c0,.18-.06.43-.24.49l.3.48a.69.69,0,0,0,.19-.48v-.12a1,1,0,0,1,.6.18c.25,0,.37,0,.37-.24v-.19c.12.12.49.43.49.06V19.3l1-.67-.06-.61a1.81,1.81,0,0,0,.43-.48c0-.19.12-.25.3-.25a2,2,0,0,1,.79.25c.43-.25.12-.73.79-.73l.37-1.16.36.48c-.06.07-.36.55-.12.55h.06c0,.19-.06,1,.25,1,.6,0,.24.42.48.42a.41.41,0,0,0,.31-.24l.48-.18c.25-.24.68-.67,1-.67.12,0,.18.18.18.3.31,0,.49-.06.49.31.18.06.24.3.24.42l1.34.49c0,.24.19.3.43.3h.06a.94.94,0,0,0,.18.67c.61,0,.67.31,1,.8l.55.42c.48.12.36,1.89.36,2.19,0,.06,0,.31-.12.31l-.31-.06.07,1c-.25,0-.25.37-.25.49v.3c.25-.06.73-.3.73.13s0,.67.31.85v.79l-.25.43c0,2-.12,4.2-.12,6.08,0,.25.18.25.37.25a14.91,14.91,0,0,1,.3,2.86c-.73.36.25,3.59.25,4.38,0,.25-.07,1.28.3,1.28a1.53,1.53,0,0,0,.55-.24l-.12-.49.24-.24a2,2,0,0,1,.55-1.16c.06-.42,0-.91.55-1v-1l.24-.18.18-.36a.43.43,0,0,0,.25-.43l.36-.67c-.06-.55.43-.61.43-1.16V35l1-.85c-.06-.43.12-.61.12-1V33a.64.64,0,0,0,.25-.55l.54-.3.49-1.22a.37.37,0,0,1,.31-.48c0-.43,0-.49.42-.49.06-.31.24-1.16.67-1.16-.06-.49.37-.85.37-1.34V27.4c.42-.37.73-1,1.22-1.28.11,0,.24-.06.24-.18a1,1,0,0,0-.13-.43c.37-.18.07-.85.61-.85h.07c0-.37.3-1.16.73-1.22-.07-.55.42-.73.42-1.22a.79.79,0,0,0,.25-.66,2.42,2.42,0,0,1,.79-.8l.3-.67a.17.17,0,0,0,.19-.18c0-.12,0-.3.24-.3l.3-.43L156,19c.18-.06.25-.31.25-.49.42-.49.54-1,1-1.46a1,1,0,0,1,.3-.67c.19-.61.37-1.4,1-1.71l.3-.61a.34.34,0,0,1,.37-.42l.37-.49c0-.85,1.21-2,1.46-3,.12,0,.36.06.36-.12l-.06-.31a.47.47,0,0,0,.49-.42l.67-.92a31,31,0,0,0,2.19-2.68l.18-.48.43-.37c.06-.06.12-.37.24-.37a.15.15,0,0,1,.13.13l.36-.31a.49.49,0,0,1-.24-.36.22.22,0,0,1,.24-.19V3.53l.3.18c.07,0,.13,0,.13-.06s-.13-.12-.19-.18c.49-.79,1.71-1.82,1.95-2.56.43,0,.43-.91.85-.91L169,.55l-.42.36-.55,1c0,.24-.18.3-.18.55l-.49.42a10.47,10.47,0,0,1-.73,1.46L167,3.9l.43.42-1,1.53c-.07,1-.73,1.7-1,2.61l.85-.73.25.49-.19.49-.42.36c.06.37-.18.43-.18.73s-.43,1.4-.61,1.4H165l-.12.67a1.07,1.07,0,0,0-.18.61c-.18,0-.37.25-.43.43a.38.38,0,0,1-.3.49,1.45,1.45,0,0,0,.55.79c0,.06.18.48.24.48s.06-.18.06-.18c0-.49.61-.43.61-.73s.06-.73.06-1.09a2.74,2.74,0,0,1,.73-.13c.12,0,.25,0,.25.13s-.19.3-.31.36v.31l-.36.36.3.49c.06,0,.24,0,.24.12,0,.49-.48.91-.73,1.34-.18,0-.3,0-.3.24v.19l-.43.3a4.48,4.48,0,0,1-.73,1.7c-.06.06-.24.13-.24.25,0,.3.55.24.85.24h.06l.67-.79.06-.85c.37-.8,1-1.34,1.4-2.07a.41.41,0,0,0,.25-.43l.24-.37c.37,0,.55-.66.61-1a3.22,3.22,0,0,1,.79-1H169c.06,0,.31,0,.31.12s-.49.49-.67.61a4.91,4.91,0,0,1-1.22,2c-.18.06-.18.3-.18.42a4.89,4.89,0,0,0-.61,1l.06.48-.25.25.74.3a1.68,1.68,0,0,1,.78-.67c0-.43.56-1.28,1-1.28.06,0,.12.13.12.19-.24,0-.24.24-.18.42.12,0,.18.06.18.13a.9.9,0,0,1-.18.42l-.36,1.16c-.37.06-.61.54-.74.85s-.12,1.28-.42,1.28a16.74,16.74,0,0,1-1,1.77C166.46,21.5,166.39,21.68,166.33,21.74ZM101,78.24a.13.13,0,0,0,.12-.12l-.24-.06C100.88,78.12,100.94,78.24,101,78.24Zm.91-2.13c.06,0,.13-.12.13-.18l-.07-.06-.18.12A.13.13,0,0,0,101.91,76.11Zm.25.91c-.12.12-.37.31-.37.43s.12.12.18.12a1.37,1.37,0,0,0,.49-1c0-.06,0-.19-.06-.19s-.06,0-.12.07Zm1.76-3.53c0,.12,0,.25-.18.25,0,.18.06.42-.18.42h-.12a15.4,15.4,0,0,1-.74,1.46c0,.06,0,.31-.06.37l.31-.12c.06.06.18.3.3.3s.06-.12.06-.18c-.42-.18.31-1.4.43-1.58s.12-.25.12-.43l.43-.67c0-.06-.06-.24-.12-.24s-.06.24-.06.3S103.92,73.37,103.92,73.49Zm.55-.67c.06,0,0-.06,0-.12l.25-.36-.49-.06C104.23,72.34,104.41,72.82,104.47,72.82Zm.18,4.57v.06h.18l.13.61-.18.06c-.06.12-.37.67-.49.67s-.06-.12-.06-.18c0-.37.3-.55.24-1l.18-.12-.3-.43C104.47,77.08,104.65,77.21,104.65,77.39Zm.31.67H105l-.06.06Zm1.46-8.83c0,.06-.06.06-.06.12A.21.21,0,0,0,106.42,69.23Zm.3-.61h.13c.06,0,.12-.06.18-.06l-.12-.12Zm1,3c.06,0,.12-.07.18-.07s-.06-.12-.18-.12h-.06C107.64,71.54,107.64,71.67,107.7,71.67Zm.24-.43c.06,0,.06-.12.06-.18l-.18-.06C107.82,71.06,107.82,71.24,107.94,71.24Zm.73,2c.06,0,.06-.06.06-.12h-.12Zm4.63-6.09-.18.24a5.78,5.78,0,0,1-.73,1.65c-.43.06-.37.73-.37,1-.18.19-.49.43-.49.73,0,.13.13.13.25.13h.06l.18-.31c.18,0,.49-.06.49-.3l.42-.06v-.43c.19,0,.25-.12.25-.31v-.12l.24-.48-.12-.55a.13.13,0,0,0,.12-.12c0-.19,0-.31.24-.31a1.34,1.34,0,0,1,.31-.85l-.18-.12h-.19C113.6,67.1,113.42,67.16,113.3,67.16ZM112.93,72a.13.13,0,0,0,.13-.12l-.25-.06C112.81,71.85,112.87,72,112.93,72Zm.25-.43v-.12l-.18-.06A.19.19,0,0,0,113.18,71.54Zm-.12-.42c.12,0,.3,0,.3-.12s-.18-.25-.24-.31Zm.67-1.4a.06.06,0,0,0,.06.06c.06,0,.18,0,.18-.12V69.6C113.91,69.6,113.73,69.66,113.73,69.72Zm.3-.12a.14.14,0,0,0,.12-.13s-.06-.12-.12-.12-.06.12-.06.18v.07Zm3.47-9.2-.18.37a10.77,10.77,0,0,0,.79-.92.74.74,0,0,1,.24-.67l-.36-.24A6,6,0,0,0,117.5,60.4Zm3-6.09c.13.49-.3.49-.3.92v.06c0,.06-.85,1.22-.85,1.34a.28.28,0,0,0,.3.3l.25-.06c-.07-.49.3-.55.3-1l.43-.36.24-.55h.06c0-.42-.06-.67.37-.85l.18-.55-.25-.06Zm.07,4.08-.19.12c0,.07.12.12.19.12s.06-.05.06-.12Zm.12-.48-.12.12.18.12c.06,0,.06,0,.06-.06V58Zm5.54-14.13c0,.55-1.28,2-1.71,2.43v.61l1.77-1.76c-.06-.49.36-.55.36-1a.4.4,0,0,0,.25-.36c0-.06-.12-.06-.18-.06s-.13-.25-.25-.25-.12,0-.12.07S126.33,43.78,126.21,43.78Zm.85,1.58c.12,0,.12-.12.12-.18l-.24-.06C126.94,45.18,127,45.36,127.06,45.36ZM129,38.91c.12.55-.37.61-.37,1V40c-.24.25-.67.67-.67,1l-.3.49a.38.38,0,0,0,.36.3l.25-.06c-.06-.55.36-.67.36-1.16l.49-.42c0-.25.24-.37.24-.61.37,0,.49-.67.49-1l.36-.48-.42-.19Zm-1.16,3.71c0,.13,0,.31.18.31H128l-.24-.43Zm4.69-5.23h.06c.12,0,.12-.13.12-.25Zm2.37,23c.25,0,.25-.3.25-.42,0-.49-.12-.92-.12-1.4l-.43-.25A11.47,11.47,0,0,0,134.85,60.4Zm.25-44.87c-.25,0-.37-.06-.37-.31v-.36ZM140.46,65c-.07-.12-.31-.49-.31-.06a.45.45,0,0,0,.31.42c.24,0,.73-.48.85-.6s.42-.19.42-.37h.13l-.13-.06-.3-.06-.37.49A.77.77,0,0,0,140.46,65Zm.54-.79c.06,0,.06-.19.06-.19a2.43,2.43,0,0,0,.31-.06c0-.06-.49-.12-.55-.12S140.94,64.24,141,64.24Zm0-1,.55-.06a.63.63,0,0,1,.25-.54l-.61.05A.48.48,0,0,1,141,63.26Zm.49-27c0,.06,0,.12.06.12s.18-.24.18-.3l-.18-1.53A16.29,16.29,0,0,0,141.49,36.29ZM142,29l-.31-.42C141.8,28.8,141.73,29,142,29Zm.12,9.62c.12,0,.12-.12.12-.18a.13.13,0,0,0-.12-.12c-.06,0-.06.06-.12.06S142.1,38.6,142.16,38.6Zm.37,2.26h.12c0-.13-.12-.19-.25-.19S142.4,40.86,142.53,40.86Zm.36,22.4-.18.19h.79c.06,0,.18,0,.18-.07s-.36-.3-.48-.36C143.26,63.2,143,63.26,142.89,63.26Zm.43-1.15a.16.16,0,0,0,.18.18h.12l-.3-.43Zm2.37-2.32c-.18,0-.48,0-.48.25v.18c-.19-.06-.61,1.89-.61,2.25,0,.06,0,.24.12.24s.3-.42.36-.18v.13c.06,0,.31,0,.31-.07a.46.46,0,0,0-.12-.3c0-.18.06-.31.24-.31h.06c.06-.12.36-1.15.36-1.21h-.42C145.51,60.4,145.75,60.16,145.69,59.79Zm.43.73c.12,0,.12-.12.12-.18l-.24-.06C146,60.34,146.06,60.52,146.12,60.52Zm.12-2.31c.12,0,.12-.12.12-.18l-.24-.06C146.12,58,146.18,58.21,146.24,58.21Zm-.06,1.64c0,.13.06.19.18.19s.06-.13.06-.19l.73.13.07-1.53.42-.61c.24,0,.43-.12.43-.36v-.12a6.37,6.37,0,0,1,.73-1.1V56c.55,0,.06-.49.55-.49-.07.12-.13.67.12.67h.06c.06-.24-.06-.73.24-.85v-.61c-.3.06-.49.3-.79.3l-.61.85c0,.37-.24.68-.24,1-.49,0-1.1,1.71-1.22,2-.37.06-.49.42-.49.79v.18C146.36,59.79,146.18,59.79,146.18,59.85Zm4.38-7.67c0-.3.25-.36.19-.73l-.61.79v.49l-.74.61c.07.43.49,0,.56.55l.42.12c-.06-.18,0-.49.24-.49-.3-.91.49-.67.49-.85s-.36-.31-.55-.31Zm.8-2.92v.18c-.13.06-.43.31-.43.43s.12.12.18.12c.31,0,.73-.12.73-.49v-.18a6.08,6.08,0,0,1,.61-1c.18,0,.24-.13.24-.31V47.8c.13,0,.31-.06.31-.18s-.12-.31-.25-.31-.06.12-.06.18v.06c-.36,0-.18.74-.66.74C152,47.68,151.36,48.65,151.36,49.26Zm-.07-2.74c.07,0,.13-.12.13-.18l-.31-.06C151.11,46.4,151.17,46.52,151.29,46.52Zm1,3.35h.12c0-.12-.12-.18-.25-.18S152.14,49.87,152.27,49.87Zm.24-.43a.45.45,0,0,0,.24-.12c0-.06-.12-.12-.18-.12a.36.36,0,0,0-.24.06A.19.19,0,0,0,152.51,49.44Zm1.1-3.77c0,.06,0,.18.12.18l.24-.73a1.69,1.69,0,0,0,.49-.79V44c0-.12,0-.36.18-.36a3.18,3.18,0,0,0,.12-.73s0-.19-.06-.19l-.12.07C154.34,43.6,153.61,44.75,153.61,45.67Zm1,1.7a.33.33,0,0,1,.25.12l-.49.73C154.4,48,154.46,47.37,154.64,47.37Zm.73-4.26c0,.06,0,.3.13.3s.3-.61.36-.73c.24-.3.61-.67.61-1.09,0-.06-.06-.25-.12-.25s-.31.8-.31.92Zm2.26-1.52.12.06c0,.42-.49.49-.49,1-.49.06-.3.73-.73.79C156.65,43.05,157.14,41.59,157.63,41.59Zm1.09-2.38c0,.12-.06.12-.18.12a.29.29,0,0,1-.31-.3c0-.12.13-.18.25-.18S158.72,39.09,158.72,39.21Zm-.06-.85a.47.47,0,0,0,.31.43l-.37.06v-.67a1.22,1.22,0,0,0,.67-.25h.06c.06,0,.06,0,.06.07a1.83,1.83,0,0,1-.42.6Zm.85-9.86c.06,0,.13-.12.13-.19h-.25Zm.31-.49a.16.16,0,0,0-.18-.18h-.07C159.64,28,159.64,28,159.82,28Zm.61-1.64c.24,0,.18-.55.42-.55h.06l-.06-.19-.24-.3a.42.42,0,0,0-.43.43C160.18,25.88,160.31,26.37,160.43,26.37Zm1.4-10.78c0-.06,0-.06-.06-.06s0,.06.06.12Zm.12-.67H162c.12,0,.12-.12.12-.18s.18,0,.18-.07a.13.13,0,0,0-.12-.12Zm.85,14.67.31.12-.06-.48-.31-.12ZM163.35,19a1.32,1.32,0,0,1-.06.48c0,.07.12.25.18.25s.06-.49.43-.49H164v-.06s-.31,0-.31-.06.19-.18.19-.37h-.12Zm.43,7.42.12-.18h-.12Zm.3-.48.18-.06.19-.31c0-.06-.06-.3-.13-.3s-.06.43-.06.49Zm.24-15.22-.18.36a1.59,1.59,0,0,0,.67-1.09l-.24.36C164.45,10.41,164.26,10.53,164.32,10.72Zm.43-4h.06V6.64c0-.06-.06-.06-.12-.06h-.12A.27.27,0,0,0,164.75,6.76Zm.18-.37V6.33c0-.06,0-.24-.06-.24s-.06.06-.12.06S164.81,6.39,164.93,6.39Zm-.18,3.11c0,.18.18.18.3.18a.31.31,0,0,1,.31-.42l.12-.19V8.46C165.36,8.65,164.75,9.32,164.75,9.5Zm.37-4.08c0,.37-.19.18-.19.49l.37-.25c.12,0,.18-.12.18-.24s0-.3-.06-.3-.06.18-.06.18Zm.67,8.89h.12c0-.12-.12-.12-.18-.12h-.13C165.6,14.31,165.73,14.31,165.79,14.31Zm.12,8.52.06-.06-.06-.24-.12-.12A1.11,1.11,0,0,0,165.91,22.83Zm.79-10c.12,0,.36,0,.36.18s-.18.18-.3.18-.3,0-.3-.12.12-.18.18-.24Zm-.06,6.94h.12a.16.16,0,0,0-.18-.18C166.58,19.67,166.58,19.79,166.64,19.79Zm.18-.55c0,.06.12.12.18.18l.25-.36c0-.06-.06-.37-.19-.37s-.06.43-.06.49S166.82,19.18,166.82,19.24Zm.61-12.3c0,.18-.18.37-.18.55-.12,0-.37-.06-.37-.24a.85.85,0,0,1,.12-.37C167.06,6.88,167.43,6.88,167.43,6.94Zm1,9.38c0,.18.07.24.19.24l-.19-.43Z"/><path d="M200.12,65.76h.06l.06.43c.49.36.91.85,1.4,1.21l-.18.25A9.27,9.27,0,0,1,203,68.74l.43.19.06.48,1,.55c.49-.06.92.49,1.16.85l-.06.31,1,.42.12.37c1.15.24.91.73,2.07,1.22.06,0,.42.06.42.12a1.77,1.77,0,0,1-.61.24,6.22,6.22,0,0,0-1.46-.3l-.24-.24a8.32,8.32,0,0,1-1.22-.43,2.86,2.86,0,0,1-1.34-.85l-.91-.25c-.18-.12-1.89-1.28-2-1.28l-.06.13.24.54h.06a1.12,1.12,0,0,1-.18.13,3.75,3.75,0,0,0-1.1-.86l.19.43.42.24.25.37.79.36c.36,0,.55.43.85.43H203c.79.67,2.26,1.09,2.93,1.76.3-.12.48.07.54.37l.43.06a8.57,8.57,0,0,1,2,1.22,1.56,1.56,0,0,1-.79-.43l-.67-.12.06.06c.06.25-.25,0-.31-.06a3.71,3.71,0,0,0-.85.12l-1.89-.3c0,.06.13.3-.06.3s-.24-.12-.36-.18-.12,0-.12-.06a.36.36,0,0,1,.06-.24c-.06.06-.13.06-.13-.13l-.24.19v.24a3.19,3.19,0,0,0,1.65.79l.3.31a.42.42,0,0,1,.49.24.81.81,0,0,1,.73.18l.42.06.37.25c.55-.06.3.36,1.22.18l.24.12c.37-.12.12.24.43.24l.36-.06.43.37c.12-.06.48,0,.48.18s-.54,0-.66,0l-.74.25-.54-.13a8,8,0,0,0-1.77-.18s0-.12-.06-.12-.18.12-.24-.12c-.86,0-1.59-.43-2.44-.37,0-.06,0-.18-.12-.18s-.18.18-.24,0c-.67-.37-1.34-.61-2-.91a1.12,1.12,0,0,1-.73-.31,2.86,2.86,0,0,1-1.53-.67c-.54.06-1.4-.73-1.7-1a1.56,1.56,0,0,1-.73-.12.36.36,0,0,1-.49-.25c-.85-.18-1.34-1.21-2.25-1.21h-.12c.06-.13-.25-.13-.31-.13s-.06-.24-.18-.24-.24,0-.24-.18a4.18,4.18,0,0,1-1.34-1c-.12.06-1-.85-1.4-1h-.07l-.36-.37c-.37,0-2.37-2-2.68-2a5.12,5.12,0,0,0-1.89-1.46c0-.12-.06-.18-.12-.18-.24,0-.36,0-.36-.24a7.42,7.42,0,0,1-1.4-1.34c-.49,0-.55-.92-1.1-.92,0-.91-1.58-.85-1.58-1.64-.43-.61-.8-1.22-1.16-1.83-.18,0-.37-.06-.37-.24v-.12a5.12,5.12,0,0,1-1.21-1.34l-.07-.55-.36-.12a4.72,4.72,0,0,0-1.4-1.89.29.29,0,0,1-.31-.24l.07-.25c-.43,0-.37-.91-.74-.91l-.36-.49.24-.24c-.73.18-.48-.67-.48-1.1-.31,0-.43-.24-.73-.24,0,.43-.43.73-.43,1.16s-.61.42-.61.73c0,.06.06.12.12.18l-.67,1c-.36.25,0,.86-.42,1l-.25.43c0,.24-.18.3-.18.55l-.24.42c0,.55-.49.61-.49,1.09,0,.19-.06.43-.24.49,0,.43-.25.73-.25,1.22l-.24.18a11.58,11.58,0,0,0-.92,1.95c.43.12,0,.79-.24,1.1l-.3.79a.59.59,0,0,1-.25.55c0,.36-.18.48-.42.73l.18.36h-.24a2.45,2.45,0,0,0-.49,1.59,9.23,9.23,0,0,0-1.46,3c.55,0-.25,1.1-.37,1.28s0,.24-.12.24a.61.61,0,0,1-.42-.24,1.93,1.93,0,0,0-.61,1.09.17.17,0,0,0-.19.19c0,.12,0,.24-.18.24h-.3l-.19-.24c.31,0,.49-.79.55-1h.12c0-.06-.42-.18-.48-.18l-.43.55a2,2,0,0,1-.55,1.15c-.06,0-.18,0-.18.13s.12.3-.12.3-.31.31-.43.31-.12-.13-.12-.19c0-.42.24-.79.24-1.22.13,0,.43,0,.43-.24.18,0,.24-.18.24-.36v-.25a.29.29,0,0,0,.31-.3v-.12l.36-.55.06-.55.43-.55-.61-.18a11.28,11.28,0,0,0-.55,1.1c.37,0,.13.3,0,.42l-.18.49-.49.24-.48,1a.4.4,0,0,1-.43.48l-.43.25a3.41,3.41,0,0,0-.12,1.1h-.48c0-.68-.43.3-.49.42s-.18,0-.18.12.06.31-.19.31l-.24.42-.49.06.25-.54c0-.31.06-1,.48-1,0-.36-.12-1.22.25-1.52a8,8,0,0,1,.48-2.44c-.3,0,0-.24.13-.3s.42-1,.42-1.16a3.25,3.25,0,0,0-.06-.79c-.06-.06-.18-.24-.3-.24s-.06.18-.06.24c.54,0,.06.24-.19.24s-.3,0-.3-.18.3-.55.49-.73c0-.06,0-.3-.13-.3s-.3.36-.36.48c-.25.19-.61.49-.61.86l-.85,1.88c-.13,0-.25.06-.25.19s0,.24-.18.24c0,.36-.43,1.28-.91,1.28.06-.24.42-1.71.12-1.71-.49,0-.49,1-.49,1.34-.36.19-.24.73-.24,1l-.25.18-.24.43a.68.68,0,0,1-.18.48l-.67,1c0,.49-.49.73-.49,1.34a6.41,6.41,0,0,0-.91,2.07l-.37-.25s0-.18-.06-.18-.24.37-.24.43c-.55,0-.12.49-.61.49a3.33,3.33,0,0,1-.18-.74c0-.36.18-.6.18-1.09l.24-.25.18-.54c0-.19-.18-1.1.25-1.1a18.51,18.51,0,0,0,.73-2.56,1.16,1.16,0,0,0,.18-.6c-.49-.31,0-.8,0-1l.19-.3a9.07,9.07,0,0,1,.06-1.28c.12,0,.18-.06.18-.19a.76.76,0,0,0-.24-.42c0-.37.42-.73.42-1.1l.49-.24.24-.49c0-.61.18-1.16.18-1.7l-.18-.49c0-.18.12-.24.31-.24h.12l.36-.13a6.73,6.73,0,0,0,.31-1.82c.12-.06.12-.18.18-.31h.06l.12-.3-.24-.37c0-.36.43-.79.43-1.16l.48-.24.25-.48c0-.67.24-1.22.24-1.77-.37,0-.37-.79.06-.79,1,0,.85-1.22.85-2l.25-.25c0-.24.12-.36.3-.36h.06a4.22,4.22,0,0,1,.49-1.89l.18-.12h-.48a4.71,4.71,0,0,0-.74.43c-.18-.13-1.09.48-1.27.55-.31-.13-.37.24-.61.24l-.19-.06-.18.42a5.08,5.08,0,0,0-1.28.43c-.42-.12-.42.24-.73.24a9.25,9.25,0,0,0-1,.19l-.3.18c-.43-.18-.19.49-.49.3a.77.77,0,0,1-.37.19h-.06l-.43.18-.24.36c-.36-.06-1-.3-1.34.19s-.91.49-1.34.85a2.47,2.47,0,0,1-.61-.18,11.25,11.25,0,0,0,.8-.86l.54-.06V56c.25.24.19-.12.37-.12h.12l.3-.49c.49-.37,1.1-.55,1.46-1-.18-.12-.12-.18.07-.18a4.08,4.08,0,0,0,1.09-.73c-.24-.06.06-.24.18-.24.31.18.86-.61,1-.79,0,0,.18.06.18,0s-.06-.13-.12-.19l.37-.12.36.24a1,1,0,0,0,.06-.42v-.19H156c.12,0,.18.07.12.19h.18l-.12-.19.49-.12.18-.36c.12.06.18.06.18-.06L157,51c.3.13.55.37.73-.06l-.06-.18a.85.85,0,0,0-.37-.12c-.18,0-.67.55-.79.67l-.42.06c-.06.06-.06.12-.19.12s-.12-.12-.12-.18l-.42.3c0-.06-.07-.3-.12-.3s-.13.06-.19.12c.12.18.24.43-.12.24a.42.42,0,0,1-.37.25c.13,0,.25-.06.25-.19l-.12-.12-.25-.42.12-.31.25.06c.06-.18.24-.12.3-.3l.37-.24c.24-.43.67-.25.85-.55a2,2,0,0,0,.79-.43c.12-.3.06-.55.18-.85.49.06.55-.06.86-.37l.54-.06.37-.3a4.12,4.12,0,0,0-1.71.67l-.36.06-.3.3-.19-.48.25-.19c0-.06-.06-.24-.13-.24s-.12.12-.12.12a10.86,10.86,0,0,0-1.88.91,2,2,0,0,0-1.28.37l.06-.37.3-.24s.18.12.18,0a.27.27,0,0,0-.24-.18l-.42.42H153c-.18-.06-.36.13-.36.31l.3.06c-.06.06-.12.24-.24.24l-.73-.24-.19-.18.37-.13a14.21,14.21,0,0,1,2.74-1.94l.49-.06c.3-.25.67-.67,1.09-.73a7.59,7.59,0,0,1,3.6-2,1.65,1.65,0,0,1,.73-.43.86.86,0,0,1,.73-.36c.18-.31.54-.13.73-.55l.73-.43.06.06.3-.36c.43,0,.73-.25,1.16-.25a1.37,1.37,0,0,1,.85-.48l.24-.55a.17.17,0,0,1,.19-.18c.49,0,.3-.31.3-.74l.25-.24c0-.18,0-.55.24-.67a13.38,13.38,0,0,1,.91-2.07l.19-.79.3-.3c0-.25.12-.43.37-.43h.06c.06-.24.12-2,.55-2,.72-1.7,1.88-3.78,1.88-5.72l.49-.31.37-.55c.12,0,.18-.12.18-.24l-.06-.43c.24.12.42,0,.42-.24l-.18-.49a1.81,1.81,0,0,0,.43-.48c0-.31.24-.19.24-.49a1,1,0,0,0,.18-.67l.43-.24.24-.49.49-.43.06-.61.37-.48c0-.49.73-.55.73-1,.3-.24.12-1,.48-1l.25-.43.3.24.24-.24.07-.24-.25.24c-.12,0-.18,0-.18-.12,0-.31.36-.61.49-.79s0-.19.12-.19.3,0,.3-.24l.25-.49.42-.12.67.12c0-.42,0-.42.43-.42l.3-.73.49-.31a1.29,1.29,0,0,1,.67-.91c0-.55.37-.43.61-.79l1.16.67v-.92l.67.37c0,.3-.25.3-.25.61l.49.3.49-.36c0-.49.3-.67.67-.92,0-.06,0-.24.12-.24s.24.12.36.24a.4.4,0,0,0,.25.43c-.37,0-.19.79-.13,1h.43l.18.19c.67,0,1,.85,1.47.85.06,0,.06-.06.06-.12l1,.61a11.44,11.44,0,0,0-.49,2.49c0,.37.61.49.92.55a2.56,2.56,0,0,0-.43,1.16.8.8,0,0,0-.25.61c-.18,0-.24.18-.24.36v.18a7.89,7.89,0,0,0-.67,2c.43,0,.07.31-.06.43L186,25.82c.07.18-.18.24-.3.24l-.24.61.24.49c0,.61-.85.91-.85,1.4a1.16,1.16,0,0,1,.18.61c-.06,0-.18,0-.18.06s.18.18.24.18a.16.16,0,0,0,.18-.18,12.79,12.79,0,0,0,2.07-.92c.13,0,.31-.06.31-.18v-.06c.18,0,.42-.06.49-.24.05,0,.36,0,.36-.19l.55-.18c.24-.24.67-.67,1-.67.43-.18.92-1.16,1.4-1.16.13,0,.18.07.18.19s.19.24.31.24.12-.18.12-.24c.31,0,.49-.25.86-.25.54-.79,1.46-1.15,2-1.88h.55c.06-.06.12-.25.18-.25s.06.25.06.25a23.53,23.53,0,0,1,2.75-1.28l.91-.49c0-.06.12-.24.18-.24s.06.24.06.24c.49,0,.49,0,.49-.49.3,0,.18-.24.49-.24l.42.49,1.65-.92c0-.18.24-.24.36-.24s.79-.49.92-.49l.48-.42a52.62,52.62,0,0,0,6-2,.85.85,0,0,1,.67-.25,28,28,0,0,0,4.08-1.64,1.55,1.55,0,0,1,.55.06c0,.12-.31.25-.43.25,0,.54-.61.66-1,.66l-.25.25c-.3,0-.18.24-.48.24l-.92.43c-.48,0-1.22.73-1.22.73l-.79.36c-.54,0-.49.73-.91.73,0-.48-.61.43-.67.49l-1,.61c0,.43-.61.49-.61.73,0,.06.06.12.12.18s-.18.25-.31.25-.12-.18-.12-.25a.17.17,0,0,0-.18.19.46.46,0,0,0,.12.3l-.18.49h-.3l-.19.24-.42.18h-.25l-.18.25c-.24,0-.91.12-.91.42-.37.06-2.13.49-2.13,1,0,.12.12.12.18.12a7.24,7.24,0,0,0,2.37-1c.06-.06.12-.25.19-.25s.06.25.06.25c.06.18.3.24.48.24h.37l.06-.43c.12,0,.42,0,.42-.18.25.12.49.06.49-.24h.92c0-.31,2.37-.86,2.67-.86.13,0,.25,0,.25.19a1.27,1.27,0,0,1-.18.42H210l-.36.49-.79.37c-.06.06-.12.12-.19.12-.24,0-.3-.25-.3.24l-.36.61-.55.24a.23.23,0,0,1-.25.25c-1,0-.18.55-.85.55h-.12a1.16,1.16,0,0,0-.18.6c.3,0,.24.25.61.25a.75.75,0,0,0,.6-.25c.06,0,.37,0,.37.12s-.12.13-.18.13c0,.24.36.24.55.24h.3a2,2,0,0,0,.55-.49h.61l.67-.48c.24,0,.36-.25.61-.25-.19.67-.19.8-1,1,0,.48-2.13,1.16-2.13,1.28a.86.86,0,0,1-.85.73l-1.71,1.34c-.73,0-1.76.91-2.49.91,0,.24-1.77,1.1-1.95,1.1l-.43.48c-.55,0-.24-.06-.55.25-.3,0-.42-.25-.73-.25l-.49-.24s-.18,0-.18.06.85.43,1,.49a.34.34,0,0,1-.31.36c-.12.12-1,1.16-1.22,1.16s-.06-.12-.06-.18a.8.8,0,0,0-.67-.25c-.24.37-1,.55-1,.67,0,.43-.31.25-.67.37l-.49.49c0,.12-.06.12-.18.12s-.55-.12-.55.12l-.18.49c.3,0,0,.18-.12.24l-.37-.43-.06.25c0,.12.12.18.24.18l.07.67.36-.18a.41.41,0,0,0,.43-.25c.18,0,.43-.06.48-.24a1.88,1.88,0,0,1,.55-.12.22.22,0,0,1,.24.24l-.36.37c-.12,0-.37,0-.43.18a1.34,1.34,0,0,0-.85.49,1.11,1.11,0,0,0-.79.48l-.61.25c-.18.24-.91.36-1.16.42,0,0-.18,0-.18.07s.18.24.3.3a5,5,0,0,1-1.58.61c0,.06,0,.12-.06.12a.51.51,0,0,1-.3-.18l-.43.18c.43,1-.79.36-.79,1.1a1.76,1.76,0,0,0-.79,1h-.18c-.19,0-.19-.12-.19-.31a.46.46,0,0,0-.3-.12c-.12,0-.18.06-.18.19s-.79.48-1.22.48l-.18.43c.36,0,.24.31,0,.36l-1,.37a8.56,8.56,0,0,0,1,2.74.32.32,0,0,1,.36.37v.12a7.32,7.32,0,0,1,1.58,2.68l.49.36c0,.12,0,.37.18.43a1.39,1.39,0,0,0,.49.85.42.42,0,0,0,.24.43c.13.48.67,1,.67,1.52a1.82,1.82,0,0,0,.61.73l.37.91c.3,0,.55.73.61,1,.3,0,.42.24.66.24-.05.18-.12.67.19.67v.61a4,4,0,0,0,1,1c0,.19.06.43.25.49,0,.12.06.43.24.43l-.24.24c.67.18,2.25,2.25,2.92,2.62l.12.3.61.37.18.3.37.31a1.65,1.65,0,0,0,.42.67l.25.12c.48.49.67,1.16,1.34,1.52a.58.58,0,0,1,.54.12C199.81,65.52,199.88,65.76,200.12,65.76Zm-47.86-16c-.18,0-.42-.06-.42-.25v-.06Zm.85,2.92h-.24l.55-.55Zm.61,25.08c0,.13.07.31.25.31l-.25-.43Zm.49-29.34c0,.06.12.12.12.18l.18-.06a.41.41,0,0,0,.13-.24v-.07c-.13,0-.19.19-.25.25S154.21,48.35,154.21,48.41ZM155.79,51l.06.13a.31.31,0,0,1,.49.06v-.37L156,51S155.79,50.9,155.79,51Zm1.1-.54c0,.06,0,.12.06.12a.21.21,0,0,0,.12-.06l-.18-.12Zm2.8-2.74.24-.13-.24-.36a.72.72,0,0,1-.3.3Zm.67-.67c-.06,0-.18.06-.18.12a.21.21,0,0,0,.06.12l.12-.12ZM161,74.34v-.42h-.49C160.48,74.34,160.54,74.34,161,74.34Zm.12-.6c.12,0,.12-.13.12-.19a.13.13,0,0,0-.12-.12c-.06,0-.06.06-.12.06S161,73.74,161.09,73.74Zm1-7.68c0,.19.25.19.37.19,0-.31.24-.43.24-.73l-.36-.43C162.31,65.46,162.06,65.7,162.06,66.06Zm.61-1.7.06.55h.13l.36-1.22a.6.6,0,0,0-.3-.24C162.92,63.81,162.67,64,162.67,64.36Zm2-5.66c-.06.24.31.24.43.24,0-.31.24-.43.24-.73l-.36-.43Zm.06,12.84a.17.17,0,0,0,.19.19l-.19-.49Zm.31-2.49c.12,0,.12-.12.12-.18l-.24-.07C164.93,68.87,165,69.05,165.05,69.05Zm.79,4h-.25c-.36,0-.42-.12-.42-.48C165.48,72.52,165.84,72.64,165.84,73Zm-.49-16,.06.55.43-.24c0-.31.24-.43.24-.73a.64.64,0,0,0-.49-.55C165.59,56.38,165.35,56.63,165.35,57Zm.24,11.51v-.12l-.24-.43A1.73,1.73,0,0,0,165.59,68.5Zm0,2.92c0,.18.07.31.25.31l-.25-.43Zm1-3.77.25.06v-.49l-.25-.12Zm.25-1.22c0,.12.06.24.18.24s.06-.06.06-.12l-.18-.12Zm.24-14.31c.12,0,.12-.12.12-.18l-.24-.06C167,51.94,167.06,52.12,167.12,52.12ZM167,53.46a1.85,1.85,0,0,0,.24.61V54c0-.18-.06-.55.24-.55V53l-.24-.24C167.24,53,167,53.16,167,53.46Zm.3,13.88c0,.12.12.18.24.18l-.24-.42Zm.06-1v.12c.18-.18.61-.49.61-.79a.13.13,0,0,0-.12-.12h-.06l-.06.48C167.54,66,167.36,66.06,167.36,66.31Zm.37-4.63a.36.36,0,0,0,.24.06v-.06l-.12-.06h-.12Zm.67-.37v-.12l-.25-.49A1.78,1.78,0,0,0,168.4,61.31Zm1.09-.91.25.06V60l-.25-.13Zm.43-1c.06,0,.06-.06.06-.12s-.06-.13-.18-.13h-.06C169.74,59.31,169.8,59.43,169.92,59.43Zm.06-2.86c0,.12.06.24.18.24s-.12-.37-.18-.37Zm.18,2.61h.19c.24,0,.24-.18.24-.36s.3-.31.3-.49a.13.13,0,0,0-.12-.12l-.61.06Zm0,.92c0,.12.12.18.25.18l-.25-.43Zm1-6.46a.12.12,0,1,0,0-.24.21.21,0,0,1-.12.06C171.08,53.52,171.14,53.64,171.2,53.64Zm.24-.67c.12,0,.12-.12.12-.18l-.24-.06C171.32,52.79,171.38,53,171.44,53Zm.12,1.4c0,.07.18.13.25.13,0-.31.3-.06.42.06.49,0,.19-.92.67-.92l.43-1c.18-.12.42-.37,0-.37v-.61l.24-.48c0-.06,0-.31-.12-.31s-.12.25-.12.31a.69.69,0,0,0-.19.48c0,.61-1.33,1.65-1.33,2.62C171.81,54.31,171.56,54.31,171.56,54.37Zm.37,1.4c.12,0,.12-.12.12-.18l-.24-.06C171.81,55.59,171.87,55.77,171.93,55.77Zm2.13-5.23-.49-.06C173.57,50.72,173.94,50.6,174.06,50.54Zm2.43,3.59c.13,0,.13-.12.13-.18l-.25-.06C176.37,54,176.43,54.13,176.49,54.13Zm1,1.4-.24-.49c-.31,0,0-.48-.37-.48L177,55Zm.24.24c-.06,0-.24,0-.24.13s.18.24.24.3.25,0,.25.18,0,.25.24.25Zm.37-37.87c.12,0,.12-.12.12-.18a.13.13,0,0,0-.12-.12c-.06,0-.06.06-.12.06S178,17.9,178.08,17.9ZM180,50.23c.06,0,.06-.06.06-.12a.13.13,0,0,0-.13-.12h-.06C179.84,50.05,179.84,50.23,180,50.23Zm1.76-18.69c.06,0,.06-.06.06-.12s-.06-.12-.18-.12h-.06C181.55,31.42,181.61,31.54,181.73,31.54Zm.25-.43c.06,0,.06-.06.06-.12s-.06-.12-.19-.12h-.06C181.79,31,181.85,31.11,182,31.11Zm1.21-1h-.36l-.37,1c0,.06,0,.19.06.19a9.06,9.06,0,0,0,1.16-1c0-.06,0-.61-.12-.61S183.25,30,183.19,30.08Zm1.65,17.23c0,.06,0,.24.12.24s.24-.18.3-.24l-.24-.43-.31-.06-.12-.24-.48-.18c.06-.06.42-.49.12-.49-.12-.37-.25-1.64-.85-1.64-.13,0-.19.18-.19.3l.25.24c0,.13-.06.13-.13.13s-.36,0-.36.24c0,.43.18,1,.67,1-.06.25.06.43.3.43,0,.18.25.24.43.24h.24Zm-1.65-18.2c0,.06.06.06.12.06.25,0,.43.18.55.18s.06-.43.06-.49a1.24,1.24,0,0,0,.43-.73c0-.06-.06-.06-.12-.06l-.31-.43c-.12,0-.3.07-.3.19l.06.48C183.5,28.5,183.19,28.8,183.19,29.11Zm.49,2.25c0,.06.18.12.24.12l.25-.43-.06-.24c-.19,0-.19.37-.19.49S183.68,31.3,183.68,31.36Zm.43-1.22c0-.06-.06-.24-.19-.24V30C183.92,30.14,183.92,30.14,184.11,30.14Zm.6.24c0,.07,0,.19.07.19s.06-.12.06-.19a.28.28,0,0,0,.3-.3c0-.06,0-.18-.06-.18s-.06.24-.06.24S184.71,30.2,184.71,30.38Zm.43,11.21c.12,0,.12-.13.12-.19a.13.13,0,0,0-.12-.12c-.06,0-.06.06-.12.06S185.08,41.59,185.14,41.59Zm2.8-2.26c-.12,0-.12-.18-.12-.24l-.49-.06-.36.49c-.12-.19-.37-.37-.37,0l-.67.24-.48.61c0,.24.36.24.48.24s0-.24.13-.24.12.12.12.24a8.84,8.84,0,0,0,3.16-1.52c.06,0,.31,0,.31-.06s-.55-.31-.67-.36C188.61,38.85,188.37,39.33,187.94,39.33Zm-2.37,8c.12,0,.12-.12.12-.18a.13.13,0,0,0-.12-.12c-.06,0-.06.06-.12.06S185.51,47.37,185.57,47.37Zm0,7c.12,0,.12-.12.12-.18l-.24-.06C185.45,54.19,185.51,54.37,185.57,54.37Zm.24-6.57c.12,0,.12-.12.12-.18l-.24-.07C185.69,47.62,185.75,47.8,185.81,47.8Zm.12-25.94c0,.18.06.3.25.3l-.25-.42Zm.25,26.36.12.07h.06l-.18-.13s-.25,0-.25.06ZM186.12,55h.06c0-.12-.06-.12-.19-.12h-.06C185.93,55,186,55,186.12,55Zm.06,1.16.55.3c.3.49,1.33,1.77,2.06,1.77.13,0,.19-.06.19-.18l-.73-.31-.19-.67c0,.07-.12.55-.24.55v-.18a.64.64,0,0,0-.25-.55l.25-.24-.25.12c-.11-.12-1-.73-1-.92s.06-.06.13-.06a1.21,1.21,0,0,0-.07-.24c-.06,0-.06.24-.06.24C186.24,55.77,186.18,55.71,186.18,56.14Zm.3-7.25c.12,0,.12-.12.12-.18l-.24-.06C186.36,48.71,186.42,48.89,186.48,48.89Zm.79,1h.06c0-.12-.12-.18-.24-.18A.16.16,0,0,0,187.27,49.93Zm.06,12.91a.22.22,0,0,0,.24.24l.25-.06a2.72,2.72,0,0,1,.43.91l.3-.36a6.64,6.64,0,0,1-.55-.73l-.91-.49Zm.13-33.61c.11,0,.11-.12.11-.19l-.24-.06C187.33,29,187.39,29.23,187.46,29.23ZM187.33,58c0,.18.13.18.24.18l-.24-.43Zm.55-8.89c0-.06.06-.06.12-.06s0-.25.13-.25.36.86.36.92C188.37,49.62,187.88,49.32,187.88,49.14Zm1.52,1.52c-.12.18-.12.49.19.49.24.3,1.34,1.58,1.34,2.13,0,.06,0,.12-.12.12l-.55-.06a4,4,0,0,1-.43-1.46,1.41,1.41,0,0,1-.61-.92c-.18-.3-.49-.54-.49-1C189.16,50,189.1,50.48,189.4,50.66Zm.19,9.92.67.07-.43-.37c0-.18-.18-.24-.31-.24l-.3.06Zm0-22.4c0,.18.06.24.24.24l-.24-.49Zm.67-.73c-.13.12-.25.24-.25.36s.19.12.25.12h.91l.91-.48c0-.06,0-.25.13-.25s0,.55.18.55.18-.24.24-.3l.85-.49a2.5,2.5,0,0,1-.36-.12c0-.06.18-.06.18-.06l-.36-.49c-.31,0-.31.24-.61.24A4.24,4.24,0,0,1,190.26,37.45Zm.48-.73c0,.24.19.24.43.24l-.12-.43-.31-.24Zm.67,18.08-.24-.67h.24c.31,0,.24.18.24.43l.49.48c.37,0,.31.49.67.49V56l-.48-.13-.25-.36c0-.06,0-.18-.12-.18s-.24.18-.31.24C191.65,55.29,191.78,54.8,191.41,54.8Zm.92,2.25v-.54l.36.12a1.06,1.06,0,0,1,.37.67c.06,0,.24,0,.24.12s-.3.36-.49.36C192.81,57.48,192.75,57.05,192.33,57.05Zm3.16-27.4c-.79.06-.42.49-.91.49a3.54,3.54,0,0,0-1.77,1.34l.86-.24.61-.61c.61,0,.61-.49,1-.49A.41.41,0,0,1,195.49,29.65ZM194,58.7c-.3,0-.3-.25-.3-.49.3,0,.66.18.66.49Zm.85.48-.3.25-.19-.73Zm.31,6.21v-.18l-.19-.06C194.94,65.21,195,65.39,195.13,65.39Zm.48.31a.06.06,0,0,0-.06-.06c-.06,0-.12.06-.18.12Zm.12-3.72c-.06-.12-.18-.12-.3-.12A.46.46,0,0,0,195.73,62Zm-.06-28.19a.46.46,0,0,0,.31-.12.13.13,0,0,0-.12-.12.47.47,0,0,0-.31.06C195.55,33.67,195.61,33.79,195.67,33.79Zm.19-4.32c.12,0,.12-.12.12-.18l-.25-.06C195.73,29.29,195.8,29.47,195.86,29.47Zm1.7,5.6a.4.4,0,0,1-.36.37,2.21,2.21,0,0,1-.61.61h-.49c-.18,0-.37,0-.37-.19v-.24h.67l.31-.43c.24,0,.43-.24.49-.48Zm-1.7,31.48a6.85,6.85,0,0,0,1.82,1.1l.49-.06-.49-.19c-.06.06-.18-.06-.12-.12l-.18-.36h-.06l-.06.3a1,1,0,0,1-.55-.61l-.55-.24c0-.06-.06-.24-.12-.24v.24Zm.12-5.24v-.12c0-.06,0-.12.06-.12s.43.49.49.61ZM196.22,29c0,.06,0,.25.12.25.37,0,.43-.43,1-.43-.06-.06-.18-.3-.25-.3s-.12.24-.12.3C196.65,28.8,196.47,29,196.22,29Zm.18.61h.07c0-.12-.07-.12-.19-.12h-.06C196.22,29.59,196.28,29.59,196.4,29.59Zm.43-.12c.12,0,.12-.12.12-.18l-.24-.06C196.71,29.29,196.77,29.47,196.83,29.47Zm0,32.33c.43,0,.55.37.73.67a3.28,3.28,0,0,1,1.28,1.46l-.49.06a3.11,3.11,0,0,0-.42-1c-.25.12-.55-.43-.61-.61l-.55-.55Zm.06,5.12.06-.06c-.06-.07,0-.13-.06-.19Zm.31,1-.31-.24C197,67.89,196.89,67.89,197.2,67.89Zm.12-38.66c.06,0,.06-.12.06-.19L197.2,29C197.2,29,197.2,29.23,197.32,29.23Zm.24,41.71.19.36.42-.06.18.36.31.25h.3c-.24-.12-.73-.37-.73-.73l-.67-.25Zm.19-37.39a.06.06,0,0,0,.06-.06.13.13,0,0,0-.13-.12h-.06C197.62,33.43,197.68,33.55,197.75,33.55Zm.36-5.17c.12,0,.12-.13.12-.19a.13.13,0,0,0-.12-.12c-.06,0-.06.06-.12.06S198.05,28.38,198.11,28.38Zm0,4.74c.12,0,.12-.12.12-.18l-.24-.06C198,32.94,198.05,33.12,198.11,33.12Zm1.95.67-.18.49-.43.37a4,4,0,0,0-1.22.18c0-.49.67-.61,1-.79l.42-.49C199.81,33.55,200.06,33.61,200.06,33.79Zm-1,35.5.49-.06-.36-.12a.19.19,0,0,0-.19-.18.8.8,0,0,0-.3.18Zm.19,2.92c.12,0,.12-.12.12-.18V72l-.24.06C199.15,72.09,199.21,72.21,199.27,72.21Zm-.06-7.85a.36.36,0,0,1,.24-.06c.12,0,.18.24.18.3a2.18,2.18,0,0,1,1,.55l.06.31-.37-.07-.18-.3-.37.24A2.1,2.1,0,0,0,199.21,64.36Zm.12-36.47c0,.06,0,.12.06.12s.06-.18.06-.18a1,1,0,0,0,.79-.37c.18,0,.49-.06.55-.24s-.06-.25-.12-.25-.06.19-.06.25A4.93,4.93,0,0,0,199.33,27.89ZM200,73c.06,0,.06,0,.06-.12l-.06-.3-.31-.18A1.89,1.89,0,0,1,200,73Zm-.12-45.78L200,27c.3,0,.48-.18.79-.18a.22.22,0,0,0,.06-.18c0-.19-.3-.24-.43-.31l-.54.67Zm.54,46.15.49-.12-.49-.18Zm.13-7.12-.07-.37.31.06.36.43c.07,0,.19,0,.19.06s-.25.24-.31.3C201,66.49,200.79,66.25,200.55,66.25Zm.12,6.33a.13.13,0,0,0-.12-.12h-.07C200.48,72.52,200.61,72.58,200.67,72.58Zm.12.06a1,1,0,0,1,.24.43l.31-.12h-.06Zm.43-46.09c0-.13-.07-.25-.19-.25C201,26.49,201,26.55,201.22,26.55Zm-.07.48c.07,0,.07-.12.07-.18l-.19-.06C201,26.85,201,27,201.15,27Zm.49-.73c.06,0,.06-.06.06-.12s-.06-.12-.18-.12h-.06C201.46,26.18,201.52,26.3,201.64,26.3Zm.06,44.51h.06v-.06Zm.25-3.53c-.13,0-.19-.18-.19-.3a.83.83,0,0,1,.67.24Zm.12,6.76c-.06-.06-.12-.18-.18-.18a.06.06,0,0,0-.07.06C201.89,74,202,74,202.07,74Zm-.06-48c.06,0,.06-.06.06-.12s0-.12-.06-.12a.21.21,0,0,0-.12.06C201.89,25.94,202,26.06,202,26.06Zm.73,48.28.06-.18-.31-.3c-.06,0-.24.12-.24.18l.24-.06Zm.06-6.94c0,.06-.12.19-.18.25l-.19-.43Zm.24,6.15c.06.06.06.12.19.12Zm.19-47.49.18-.24c.06,0,.3,0,.3-.12s-.18-.13-.24-.13S203.29,25.88,203.23,26.06Zm1.76-1.4-.3.18c-.13,0-.67,0-.67.12s.54.37.67.37c0-.55.91-.37.91-.49s-.3-.36-.43-.42Zm-.91,49.68h.06l.06.13.18.06-.18-.31C204.14,74.22,204.14,74.28,204.08,74.34Zm2.49,1.1.49.37a8,8,0,0,1-1.16-.25l-.18-.3Zm.07-53.34h.05c0-.12-.05-.12-.18-.12h-.06C206.45,22.1,206.51,22.1,206.64,22.1ZM207,74.65c0,.06,0,.06.06.06a.13.13,0,0,0,.12-.12Zm1.4-52.49v.25a5.72,5.72,0,0,0-1,.24C207.43,22.22,208.1,22.16,208.4,22.16Z"/><path d="M277.68,16c0,.07.06.43.18.43s0-1,.61-1c.25,0,.18.54.18.67,0,.6,0,1.27-.72,1.27a.29.29,0,0,1-.31-.3l.06-.18-.49.48c0,.31-.06.43.31.43h.24l.12.55c-.24,0-.42,0-.42.3v.18c-.06,0-.31,0-.31.13s.19.24.31.3l1.09-.91.37.48-.55.25c-.49,0-.61.91-1.16.91l-.67,1c.31,0-.18-.25.86-.25l-.19.49c-.18,0-.48.06-.55.24l-.66.25c0,.3-.25.18-.25.48l-.49.61-.48.18c-.24.31-1,1.65-1.46,1.65,0,.67-.74.67-.74,1.22-.54,0-.6,1-1,1-.24.24-.73.92-1.16.92-.12-.13-.48-.43-.48,0A1.43,1.43,0,0,1,269,28l-.37.67c.12.06.49.24.49.36S269,29,269,29l-.86.73c0,.07,0,.37-.06.37s-.36-.55-.42-.67c-.43,0-.68.85-.68,1.22.13,0,.43,0,.43.12s-.3.43-.43.61l-.24.12a3.2,3.2,0,0,1-.48.91c0,.31-.25,0-.25.37l.25-.06.54-.43c.49,0,.79.31,1.28.31l.19-.31c5.11,0,10.41-.91,15.4-.91l.18.24h.92l.48-.24h.43l.24.24s.25,0,.25.06-.31.13-.37.13l-.55.24c-1.64-.18-3.35.79-5.11.79l-.43.24a34.16,34.16,0,0,0-4.81.92l-.18.18c-.85,0-1.52.24-2.44.24,0,.19-.24.37-.24.55s.18.06.24.06a23.48,23.48,0,0,1,4.57.06c.12,0,1.34.19,1.34.37s-.18.06-.24.06-.55-.06-.55.24l-.8-.24c0,.3-.48.24-.66.24a11,11,0,0,0-2,.31l-.43.36c-.3,0-.48.31-.85.31-.19,0-.61-.19-.61.18l-3.29.73-.36.24a.17.17,0,0,0-.18.19l.06.24,1.09-.06.37.37.73-.07.61.31c.06,0,.24,0,.24-.12,0-.31-.73-.12-.73-.25s.61-.18.67-.18h.36l.25.24h1l.18-.24c.25,0,1.83.18,1.83-.18.31,0,1-.18,1,.24l-.07.18c-1.88,0-4,.86-5.72.86-.24,0-.49-.06-.49-.31.07,0,.61-.06.61-.18s-.36-.06-.42-.06l-1.22.49c.24,0,1-.19,1,.24-1.64,0-3.28,1.22-4.87,1.22-.06,0-.24,0-.24-.06,0-.25,1.22-.43,1.22-.8,0-.12-.49-.12-.61-.12a.46.46,0,0,0-.37.18c-.24-.12-.54-.06-.54.25l-.61.24h-1.1a.75.75,0,0,1-.61.31c-2.19,0-.67,1-1.7,1-.19,0-.49-.06-.49.24a1,1,0,0,1-.67.31c-.3,0-1.1-.06-1.1-.49-.67,0-.67.67-1.21.67-.13,0-.25.06-.25.19s0,.3-.24.3c0,.43-.49.06-.49.73.49,0,.49,0,.49-.49a.35.35,0,0,1,.3.37.34.34,0,0,1-.3.36,2.34,2.34,0,0,1-.73,1c0,.3-.55,1.46-.79,1.46s-.13-.18-.13-.25l-.3-.24c-.06-.06-.12-.18-.18-.18s-.06.06-.06.12a.22.22,0,0,1-.25.24l-.18-.06.12-.36-.36-.19a.78.78,0,0,0-.25.61l-.42.49c0,.06,0,.3.12.3s.24-.18.3-.3l.49-.3c0,.3-.24.42-.24.73l-.43.42s0,.19.06.19c.61,0,.92-.86,1.4-1.28a.06.06,0,0,1,.06.06c0,.3-.48.79-.67,1,0,.49-.67.55-.67,1a4.09,4.09,0,0,0-.85,1.15c-.12,0-.42,0-.42-.18s.3-.43.3-.67-.18-.18-.3-.18l-.49.49v.54h.49c0,.49-.13.49-.55.49l-.61.31.49-.06a.4.4,0,0,1,.24.3c0,.12-.18.12-.24.12,0,.79-1.53.43-1.53,1.52l-.42.49a1.74,1.74,0,0,1-.43,1.22l-.24.12a3.38,3.38,0,0,0-.55.79c0,.49-.73.55-.73,1.22l-.43.24c0,1-1.76,1.89-1.76,2.68l.42.06c0-.06,0-.12.06-.06l.19.73-.92.55-.12.61c.31,0,0,.43-.12.49a2.18,2.18,0,0,0-1,.73c0,.24-.25.36-.25.61-.24-.07-.42.18-.42.42l-.8,1.22c-.48,0-.24.67-.91.67v.73c-.3,0-.49.31-.55.55-.36,0-.61.61-.67.91-.61,0-1.76,1.71-2,1.71l-.24.48a.27.27,0,0,0-.3.25c0,.18.06.42-.25.42,0,.31.06.55-.3.55l-.37.55-.12.67-.91.12c0,.43-.67.49-.67,1l-.31.61c-.18,0-.36,0-.36.25V74c-.37,0-.49.73-.49,1-.3,0-.55.18-.85.18a13.25,13.25,0,0,1,.43-1.65l.54-.48-.12-.43c.43,0,.06-.55.49-.55V71.3l.42-.49a7.34,7.34,0,0,1,.74-1.82c-.37,0-.19-.25,0-.37a5.77,5.77,0,0,0,.85-1.58c-.37,0,0-.37.12-.43.49,0,.61-1.4.73-1.76,0,0,.24,0,.24-.06s-.18-.19-.24-.25l.43-.36c0,.3.42.06.54,0,0-.31-.24-.49-.24-.8.06-.06.24-.24.37-.24s.12.12.12.24l.24-.12-.24-.18.48-.49V62c.07,0,.25,0,.25-.12s-.18-.24-.25-.3.25-.25.37-.25c.31,0,.55.19.55-.3l-.24-.24a1.28,1.28,0,0,0-.68.18,8.81,8.81,0,0,0-.48,1.34l-.49.42c0,.07,0,.25-.06.25s-.24-.18-.3-.25l-.37.67a.49.49,0,0,0-.36-.24c-.13,0-.13.18-.13.24a.51.51,0,0,1,.25.37c0,.12-.19.12-.25.12,0,.43,0,.55-.42.55a.49.49,0,0,0,.24-.37c0-.18-.12-.18-.24-.18l-.61-.36v-.43l.3-.18c0-.24.25-.24.25-.49a.84.84,0,0,0,.24-.67c0-.67.73-.73.73-1.22l.73-1.09c0-.49-.3-.85-.3-1.34.36,0,.54.06.54-.37l.31-.67.55-.42.3-.67a27.78,27.78,0,0,1-2.13,2.43L237,59l-.49-.49.18-.42a.41.41,0,0,0-.36-.25c-.06,0-.06.13-.06.19l-.31.48c-.36.07-.61.73-.67,1a6.56,6.56,0,0,0-.85,1c-.49.18-1,.92-1.4,1.34V62c-.06,0-.18-.48-.18-.54.3,0,.36-.25.3-.49.06,0,.25,0,.25-.12s-.25-.13-.31-.13-.49.61-.49.8l-.24.18c-.18,0-.25.18-.25.37s0,.42.07.42a.61.61,0,0,0,.42-.24c0,.55-.73.67-1.21.67l-.43-.19.36-.3c0-.3.31-.36.31-.67l.24-.49a1.09,1.09,0,0,1,.31-.73c.49,0,.24-1,.61-1l.48-1.1c0-.48.55-.73.85-1l.43-1.1.49-.48a.83.83,0,0,1,.24-.67c0-.37.43-.92.43-1.34l.79-1.1c0-.49.73-.55.73-1,.67-.61,1-1.53,1.7-2a1.32,1.32,0,0,1,.68-1c0-.55.6-.61.6-1.22l1-1.7c0-.12-.49-.12-.55-.12h-1.34c0-.25-.18-.25-.36-.25-.61,0-.8-.6-.8-1.15l.49-.19.24-.24c-.18,0-.24-.24-.24-.36-.24,0-.24-.25-.49-.25l-.6.25-.61-.13c0-.12-.06-.36.12-.36h.3l.12-.3h.61l.06-.19a5.42,5.42,0,0,0,2.62-.55c0-.12-.61-.12-.67-.12a.61.61,0,0,0-.42-.24c-.12,0-.12.12-.12.18a28,28,0,0,1-3.17.06c-.55,0-.25.43-.73.43a13.48,13.48,0,0,1-2.19-.18l.12-.49c.54,0,.85-.55,1.15-1l.74-.12.6-.91c.55,0,.49-.49,1.1-.49,0-.48.91-.55,1.22-.55,0-.24.3-.24.42-.24h.25l.06-.67c.3,0,1.89.12,2.07-.18.49,0,.79-.49,1.28-.49l.55-.37c0-.06.06-.18.12-.18s.55.18.55-.06c.3-.12,1.21-.06,1.21-.42.73,0,.31-.67,1.77-.25,0-.18.24-.24.37-.24.48,0,.66-.18,1.09-.18l.49-.43.67-1.34c0-.43.42-.73.67-1,0-1,1.28-1.21,1.28-2.37l.42-.3A5.08,5.08,0,0,1,253,28.19c0-.61.18-.67.67-1a.85.85,0,0,1,.18-.55l.31-.67a2.08,2.08,0,0,0,.85-.91c.06,0,.18-.06.18-.13s-.12-.36-.24-.36-.06.12-.06.12a11.77,11.77,0,0,1-2.07.06c-.12,0-.91,0-.91.25a.27.27,0,0,1-.25.24l-.24-.06a.27.27,0,0,0-.25-.25H251c0,.49-.24.37-.61.37l-.18-.24c-.12,0-.3.06-.3.18v.06h-.37c-.18,0-.24-.06-.24-.24-.55,0-1.65.48-2.38.48l-.36.25c-2.32,0-4.45.18-6.76.18,0,.18-.12.3-.37.3-.73,0-.67.31-1.52.07l-.61.24a4.82,4.82,0,0,1-1.34-.19,18.85,18.85,0,0,1,2.5-.85c.12-.06.42,0,.42-.06s-.3-.06-.36-.06l-.91-.18s0-.18-.06-.18-.19.18-.25.24a.81.81,0,0,1-.61-.24c-.79-.19-1.58-.37-2.37-.49l-.43-.49c-.06,0-.12,0-.12-.06s.25-.3.3-.36l.25-.06.24-.43.49.24c.61,0,1.34-.24,2.13-.24l.49-.49c.61,0,.73.12.73-.55A5.49,5.49,0,0,1,236.7,22a8.71,8.71,0,0,1,1.71-.42,26.69,26.69,0,0,0,3.41-1.16.45.45,0,0,0,.49-.49c.42,0,.73-.24,1.15-.24l-.18-.49.55-.18c.06-.18.3-.25.48-.25a.94.94,0,0,1,.67-.24c0-.18,1-.49,1.28-.49a.84.84,0,0,1,.73-.3c.19-.36,1.22-.24,1.53-.24.06-.19.3-.19.42-.19a6.56,6.56,0,0,1,1.64-.48c.25,0,.68.12.68-.25h1.15l.43-.49a2,2,0,0,1,.79.25c1.83,0,3.71-1,5.6-1l.12-.24H260l.12-.18a2.59,2.59,0,0,1,1.16.18l.49-.24c.3,0,1,.18,1-.19.25,0,2.62-.12,2.62-.48h1c.18.24.85.3,1.15.36,0-.36.67.12.67-.3l1.71-.31.48-.3a1.33,1.33,0,0,0,.68-.24h.85l.42-.19c0,.19.24.19.37.19l.36-.19h1.4l.19-.24a3.63,3.63,0,0,1,1.58.24l.12.43c.49,0,.49.36.55.73.3-.06,1.1.85,1.1,1.22A.34.34,0,0,0,277.68,16ZM232.07,63.26c-.18.06-.79.19-.79-.12Zm1.47-3a.13.13,0,0,0,.12.12c.18,0,.3-.18.42-.3l-.12-.49c-.12,0-.12.49-.12.55S233.54,60.1,233.54,60.22Zm1.58,6.15-.37.18.49-1Zm2.25-4.08c0,.06.19.12.25.12a.34.34,0,0,1,.36-.3h.12c-.18-.06-.18-.31-.18-.43-.24,0-.3.24-.3.49v.06C237.56,62.23,237.37,62.23,237.37,62.29ZM238.53,61c.12,0,.12-.12.12-.18l-.24-.06C238.41,60.83,238.47,61,238.53,61Zm.55-38.6a.36.36,0,0,0,.24-.06c0-.13-.06-.19-.18-.19a.4.4,0,0,0-.25.06A.17.17,0,0,0,239.08,22.41Zm.12,22.34c.18,0,.37-.06.37-.24h-.68ZM240.36,55l-.55-.3c0,.3-.24.42-.24.67A1.2,1.2,0,0,0,240.36,55Zm-.06-.79c0,.19.18.19.3.19s.24-.13.24-.31V54l.49-.49c.31,0,.31-.43.24-.61.07,0,.25,0,.25-.12s-.18-.24-.31-.3C241.33,52.91,240.3,53.83,240.3,54.25Zm1.21,3.59c0,.43.19.49.55.49l-.18-.49-.37-.24Zm.49-5.66h.06c0-.12-.18-.18-.3-.18S241.88,52.18,242,52.18Zm.61-.91a1,1,0,0,0-.3.61c0,.06,0,.12.12.12l.36-.73.67-.37.43-.79a.4.4,0,0,0,.24-.3.49.49,0,0,0-.12-.31c-.3,0-.3.43-.3.61C243.1,50.11,243.16,51.27,242.61,51.27Zm2.8-31.72c-.18.06-1.7.48-1.7.73s.48.18.67.18a.27.27,0,0,0,.3-.25.76.76,0,0,0,.61-.24h.55v-.49Zm1.28,38.9c0,.31-.24.31-.55.31l.55-.67Zm.61-22.16c.06,0,.06-.12.06-.18l-.18-.06C247.18,36.11,247.18,36.29,247.3,36.29Zm.06,20.76c0-.3.24-.42.24-.67l.49-.36.3-.61a1.76,1.76,0,0,0,.49-.49c0-.24.18-.24.18-.48l.49-.49c.25-.06.06-.86.43-1.1,0,0,0-.12.06-.12s.18.24.18.31v.54c-.3.37-.91.86-.91,1.34-.43,0-.67.91-.67,1.22a3.55,3.55,0,0,0-1,.91Zm2.5-6.82c0,.06.36.06.42.06s.3,0,.3-.06-.48-.3-.6-.36C250,50,249.86,50.11,249.86,50.23Zm1.28-31.17c.12,0,.12-.12.12-.18l-.25-.07C251,18.88,251.07,19.06,251.14,19.06Zm1.27-.25a.14.14,0,0,0,.13-.12c0-.12-.13-.12-.25-.12h-.12A.26.26,0,0,0,252.41,18.81Zm.49,10.42H253a.22.22,0,0,0-.24-.19C252.78,29.11,252.78,29.23,252.9,29.23Zm.55-1.16c0,.06.06.18.12.18s.12-.18.12-.24l.18-.3-.18.24C253.63,28,253.45,28,253.45,28.07Zm.61-10.29a1,1,0,0,0,.3-.12l-.49-.06C253.87,17.72,253.93,17.78,254.06,17.78Zm2.92-.67-.06.24c0,.13.12.19.24.19.49,0,.85-.19,1.34-.19l.37-.24.67-.06v-.49l-.25-.12C259.29,16.87,257.4,17,257,17.11Zm1.4,24.11c.06,0,.12-.12.12-.18s0-.18-.12-.18-.12.06-.18.12S258.26,41.22,258.38,41.22Zm1.83-1.09c0,.42-1.4,0-1.4.54,0,0,0,.43.06.43a5.87,5.87,0,0,0,1.34-.43c0-.06,0-.12.06-.12s.18.31.36.31.06-.19.06-.19a5,5,0,0,0,.79-.18c0-.18-.91-.49-1-.49S260.21,40,260.21,40.13Zm.12-24s-.12,0-.12.07a2.56,2.56,0,0,0,.79.18.66.66,0,0,0,.55-.25s.18,0,.18-.05-.43-.19-.49-.19C261.24,16.26,260.51,16.13,260.33,16.13Zm1.58,25.27-.24.37L261,41.4Zm-.43-6.94H262c.06,0,.19,0,.19-.12s-.31-.3-.43-.3-.06.06-.06.12Zm1.89-2.37-.79.55-.06.91.85-.55.25-.36c0-.13,0-.55.24-.55.24-.37.12-.67.67-.67-.06-.12-.3-.49-.43-.49s-.06.12-.06.18c-.18.07-.42.07-.42-.18-.07,0-.31,0-.31.12s.24.13.31.13C263.62,31.54,263.37,31.72,263.37,32.09Zm0-16.5a2.65,2.65,0,0,0-.73.12c0,.06.31.06.31.06.18,0,.67-.3.67,0a7.87,7.87,0,0,0,2.92-.49l-1-.18Zm.86,17.53c.12,0,.36.06.36-.06s-.49-.49-.61-.49a.14.14,0,0,0-.12.13C263.86,33,263.92,33.12,264.23,33.12Zm3-4.38c0-.49.24-.12.36.06a.79.79,0,0,0,.31-.49c0-.12-.06-.12-.12-.12s-.12.31-.25.31-.06-.19-.06-.25a.61.61,0,0,1-.24-.42c0-.12.12-.12.18-.12a14.33,14.33,0,0,0,1.34-1.47l.67-.12-.55-.3s0-.31-.06-.31-.18.25-.18.31c-.24,0-.61.12-.61.42-.3,0-.67.55-.79.79a1.28,1.28,0,0,1-.67.92c-.37.85-1,1.22-1.46,2,.67,0,.67-.73,1.16-.73l.3-.43a.16.16,0,0,0,.18-.18c0-.24,0-.43.24-.43ZM266.05,30c0,.24-.24.18-.24.42,0,.07,0,.25.12.25s.73-.73.85-.86a.44.44,0,0,1,.12-.36l-.12.06C266.42,29.47,266.42,30,266.05,30Zm.37,1.28c.12,0,.12-.13.12-.19a.13.13,0,0,0-.12-.12c-.06,0-.06.06-.12.06S266.36,31.24,266.42,31.24Zm.48-16.08c.12,0,.12-.12.12-.18l-.24-.06C266.78,15,266.84,15.16,266.9,15.16Zm0,11.87a.12.12,0,0,0,0-.24.21.21,0,0,1-.12.06C266.78,26.91,266.84,27,266.9,27Zm1.22,1c.06,0,.06-.12.06-.18l-.18-.06C268,27.83,268,28,268.12,28Zm1.4-13.58-.3.18-.79.06c-.06.07-.19.19-.19.31s.07.12.13.12.12.31.24.31.06-.19.06-.19,1.46-.36,1.46-.67c0-.12-.18-.12-.24-.12l-.19-.24Zm-.3,13c0,.12.18.12.24.12s.24,0,.24-.12-.12-.24-.24-.37C269.34,27.16,269.22,27.28,269.22,27.4Zm.79-1.83c.12,0,.12-.12.12-.18l-.24-.06C269.89,25.39,270,25.57,270,25.57ZM270.62,15l-.49-.06C270.13,15.16,270.5,15,270.62,15Zm2.19,8.46c0,.43-.25,1-.73,1l-.43.3-.18.31c0,.12,0,.36-.18.36l-.12-.06c-.07.18-.37.24-.55.24l-.37.67c0,.06.06.25.12.25v-.25l.55-.42,1.1-.73c.36-.31,1.28-1.89,1.76-1.89.25,0,.31-.25.25-.43l.24-.3-.24.24C273.3,22.71,273.36,23.44,272.81,23.44Zm-2.44,14.49c.19-.06,1.28-.36,1.28,0Zm1.71-15.46c.06,0,.06-.06.06-.12s0-.19-.12-.19a.19.19,0,0,0-.12.06C271.9,22.29,272,22.47,272.08,22.47Zm-.18,15.77c0-.06.3-.06.36-.06s.79-.18.79.18C273,38.36,271.9,38.36,271.9,38.24Zm1.88-17.84a4,4,0,0,0-1,.67.72.72,0,0,1-.18.49,5.92,5.92,0,0,0,1-.74C273.6,20.7,273.6,20.46,273.78,20.4Zm2-1.59v.43c-.49.24-1.88,1.4-1.88,2.13l-.25.19.25.06c0-.31,2.31-2.56,2.55-3.05,0-.06-.06-.24-.12-.24s-.06.24-.06.24Z"/><path d="M310.43,83.36l.55,1a.27.27,0,0,1-.18.18l-.18-.06c0,.43.61,1.4.67,2.13.54.25.79.92,1.21,1.34-.18.31.37.92.55,1.16-.18.3.06,1,.18,1.28-.18.36.61.79.37,1s.24.19.24.43l-.06.18a7.74,7.74,0,0,0,.86,1.34,1.17,1.17,0,0,0,.36.43,2,2,0,0,1,.18,1.16c.24.18.19.42.43.54-.19.37.12,1,.24,1.34l-.12.86c.25.18.18.42.43.6l.18,1.22c-.06.06-.06.12-.12.12-.31,0-1.71-3.89-2.19-4.2-.13-.3-.49-1.58-.92-1.58h-.06a.13.13,0,0,0,.12.12h-.42l-.86-1.34c.13-.3-.3-.24-.3-.49l.06-.12c-.24-.12,0-.36-.36-.49.73-.54-.67-.6-.31-1.09-.12-.06-.24-.12-.24-.24l.06-.13a2.85,2.85,0,0,1-.85-1.52v-.12l-.49-.37c.24-.42-.31-.3-.06-.73-.12-.06-.25-.18-.25-.3v-.12l-.48-.25-.12-.36c-.07-.06-.25-.18-.25-.24a.51.51,0,0,1,.18-.31c-.24-.18-.3-.55-.54-.61-.13-.24-1.22-2-1.22-2.13a.45.45,0,0,1,.12-.24l-.43-.43a9.54,9.54,0,0,0-.79-1.4l.06-.61-.48-.42a2.6,2.6,0,0,1-.43-1.16l-.73-1c.24-.42-.43-.85-.73-1,.3-.43-.06-.61-.06-1a.36.36,0,0,1,.06-.24c-.43-.24-.49-.79-.92-1.1l.31-.67a1.09,1.09,0,0,1-.43-.48c-.24-.13-.18-.37-.42-.55-.12-.37-.37-1.52-.73-1.71.06-.36-.37-.36-.37-.67a.41.41,0,0,1,.19-.36l-.49-1c-.19-.12-.12-.36-.31-.48A15.91,15.91,0,0,0,298.92,65l-.36-1,.06-.12v-.06l-.24-.49v.25l-.31.42c.13,0,.31.06.31.19s-.37.42-.49.48h-.37c.07.13.07.43-.12.43h-.12l-.55.55c-.3-.12-.24.12-.61.12a4.1,4.1,0,0,1-1.58,1.1c-.12.48-1,.3-1.1.79l-.66-.19c0-.12,0-.3.18-.3a1.09,1.09,0,0,1,.43.06l.54-.36a.34.34,0,0,1,.31-.37h.06a12.44,12.44,0,0,0,1.4-1l-.25-.06c-.06,0-.06.06-.06.12l-.73.48c-.18-.12-.42-.12-.42.19a5.55,5.55,0,0,1-.85-.43.73.73,0,0,1,.12-.36c-.86,0-1.46.79-2.38.79-1.46,1.09-3.16.73-4.57,1.46l-.6-.31a13.17,13.17,0,0,1-3.48-.06c-.12.37-.54.43-.91.43l-.48-.06c-.07-.19-.07-.61-.19-.73-.24.42-.55.79-.85,1.22-.06.06-.12.42-.3.42l-.37.49c-.06,0-.18.36-.18.42l-.31.31-.49.73c-.36.61-1,1.1-1.21,1.83-.19.12-.25.6-.43.79a21.08,21.08,0,0,0-1.46,1.89c-1,1-1.64,2.25-2.56,3.28a9.14,9.14,0,0,0,.61-1.15l.37-.31.12-.42a5.54,5.54,0,0,0,1.34-2.07c0-.31-.3-.55-.18-.86l.12-.12a12.29,12.29,0,0,1,.67-1.22c0-.06,0-.18-.06-.18a.6.6,0,0,0-.06.18c0-.18-.19.19-.19.19l-.24.12-.3.79-.31.12-.3.55a.54.54,0,0,1-.31.18V74.1c0-.43.73-1.95,1.16-1.95a5.82,5.82,0,0,1,.43-1.15c.06,0,.06-.19.06-.25a6.4,6.4,0,0,1,.91-1.58,13.13,13.13,0,0,0-2.19,2.56l-.73.79c-.19.06-.31.43-.37.61a1.16,1.16,0,0,0-.43.61l-.72.67a2.1,2.1,0,0,1-.61.79,4.05,4.05,0,0,1-.67,1,.22.22,0,0,1-.06-.18c0-.3.36-.73.54-1s.37-.55.49-.92l.37-.36a28.58,28.58,0,0,1,2.74-4.45c.12-.3.36-.3.36-.79,0-.06.06-.06,0-.06-.49,0-.61.73-.85,1.16l-.12-.37a3.57,3.57,0,0,1-.43.85l-.67.49c-.06.37-.24.37-.37.67-.12.06-2.43,2.62-2.67,3-.19.61-.86.92-.92,1.16a.85.85,0,0,0-.3.49,1.09,1.09,0,0,1-.61.55c-.06.24-.24.36-.3.6l-.8.74-.42.06a2.82,2.82,0,0,1-.31.73l-.67.6c.25-.48,1-2.07,1.46-2.25A28.72,28.72,0,0,1,269,74.41a1.09,1.09,0,0,0,.06-.43v-.06l-.06.24v-.49a9.35,9.35,0,0,1,1.28-1.7,5,5,0,0,1,.24-.55c.12.18.31-.18.31-.24A10,10,0,0,1,272.32,69l.24-.55.3-.31c0-.06.13-.42.25-.42h.06l.18-.61.12-.12c.07-.12.13-.43.37-.43h.06a9.2,9.2,0,0,1,1.28-2.13l-1-.3c-.18,0-.54,0-.54-.25v-.06l-.43-.24c-.43-.06-.24-.79-.67-.91a4.09,4.09,0,0,1-1.22-.8c.06-.42-.18-.24-.18-.48,0-.68-.37-.25-.37-.68a6.4,6.4,0,0,1,.19-1l-.31-.36c.06-.19-.06-.25-.06-.43v-.12c-.49-.06-.12-.55-.06-.79-.12,0-.24-.06-.24-.19s.12-.42.12-.61l-.43-.3c.12-.06.37-.24.37-.43s-.06-.06-.12-.06l-.25-.67.12-.55c-.36,0-.42.37-.42.67v.07c-.55-.13-.55.48-.61.91l-.43-.24a1.7,1.7,0,0,0,.13-1.53l.18-1a.36.36,0,0,0-.31-.43,9.72,9.72,0,0,0,.37-.91c0-.12-.18-.18-.31-.18a6.16,6.16,0,0,0,.92-2.5c.55.18.91-1,1-1.46.73.18.55-2.8,1.22-2.92.06-.25.31-1.71.55-1.71s.06-.91.55-1.28c.06-.36.18-1.52.73-1.52h.06c.06-.43.18-1,.73-1L275,39c0-.12.06-.43.24-.43h.12a10.37,10.37,0,0,1,1.16-2.07l.24-.48.37-.55c.12-.49.61-.61.79-1.1a18,18,0,0,1,1.77-2h.06v-.3c.06-.12.12-.18.24-.18h.06l.49-.49c.06-.49,1.09-.49,1.21-.92l.8-.73a1,1,0,0,1,.36-.6,1.94,1.94,0,0,0,1.58-1c.43.06.92-1.1,1.16-1.4a7.58,7.58,0,0,0-.06-1.16c-.36-.24-.12-.79-.49-1.15l.06-1-.6-1.22c.18-.18-.25-1.58-.31-1.88a.79.79,0,0,0-.12-.8c.3-.36-.24-.79-.24-1.15l.06-.19-.13-1.33c-.36-.37-.12-.92-.6-1.22A6.4,6.4,0,0,0,283,13.7c.12-.24.43-.18.55-.43l1.22-.18c.3-.36,1.1,0,.79-.67a2.13,2.13,0,0,0,.12-.61l-.06-.48a.56.56,0,0,1-.06-.67,4.54,4.54,0,0,1-.3-.79c0-.13.18-.74.36-.74a.36.36,0,0,1,.37.37,1.81,1.81,0,0,1-.12.55l-.07.24c.07,0,.19-.18.25-.24l.42.91a.32.32,0,0,1,.13.24c0,.31-.31.55-.31.86a.36.36,0,0,0,.18.36c.31-.48.73.31.86.55a1.24,1.24,0,0,1,.54,1l.37.55v.31l.18.24.12.43a.59.59,0,0,1,.55.12l.43-.49c.18.06.55.12.55.37l-.06.18c.54.43.48,1.16.79,1.7l.12-.3c.12,0,.49-.06.49-.24a.48.48,0,0,0,.61-.13.61.61,0,0,0,.6-.18l.74-.24c0-.06.12-.13.18-.13s.55.19.61-.05l.55-.43a3.77,3.77,0,0,0,1.82-.12.5.5,0,0,1,.61-.43c0-.18.18-.18.31-.18s.79.18.79-.06a12.09,12.09,0,0,1,2.13-.55l1.34-.18c.48,0,.91-.13,1.34-.13a6.64,6.64,0,0,0,1.7-.3,7.52,7.52,0,0,0,1.16-.06c.3,0,.61.06.85-.18l.55.06.3-.25c.55.07,2.74.07,3,.67.24.06.91-.06.91.31v.12a.76.76,0,0,1,.61.3.13.13,0,0,0,.12-.12c.61-.67.55-.3.85-1.28l.12.07.25-.25c-.06-.06.18-.18.18-.18l.24-.31.25-.18c.06.06.12-.18.12-.18l.24-.43c.19-.36.61-.61.86-.91l.24-.12c.24-.43.55-.43.73-.91.49-.19.55-1,.79-.92.37-.12.85-1,1-1.34l.54-.36c.06-.06.19-.49.31-.37l.24-.3S320.79,5,321,4.81c.06.06.12-.18.12-.18.12-.25.36-.31.55-.79h.06l.06-.06.3-.19a8.78,8.78,0,0,0,.67-.73v.37c.06-.06.13.24.19.3V5.12c.12,0,.12-.13.18-.19V5l.37-.18V4.75c.3-.31.18-.43.61-.43l.24-.73.42-.06c.06.06.06.06.06.12a2.52,2.52,0,0,1-.48,1.1v.37l.12.06v.61a.27.27,0,0,0,0,.3h.06c-.06.18-.37.67-.31.91l-.48,1c-.06.12-1,2.86-1.28,2.86s-.67.85-.67,1.22.3.24-.06.91h-.06l-.06.24a3,3,0,0,1-.67.85v.07a4.39,4.39,0,0,0-.49.91h-.12a2,2,0,0,0-.55.73c-.31-.12-.18.31-.31.49s-.73.48-1,.91v.06l-.24.12c-.13.31-.49.55-.49.86l.18.18-.06.42.49.07c-.12.36,0,.36,0,.6v.19c.18.06.18.3.18.42.55.8,1,1.59,1.65,2.32a1.34,1.34,0,0,0,.36,1c-.18.61-.06,1.28-.24,1.89l.12.79c.06,0,.3-.06.3.06a1,1,0,0,1-.06.43c.31.06.37.85.37,1.09.12.07.36.13.36.31a.31.31,0,0,1-.12.24l-.24.06a.81.81,0,0,1-.31.37c-.48-.06-.36.24-.48.55a1,1,0,0,1,.42.73c0,.06-1.4,4.2-1.52,4.68-.3,0-.37.19-.37.43a3,3,0,0,1,0,.79,1.27,1.27,0,0,0-.36.61c.91.12-.61,1.71-.73,2-1-.3-.12,1-.85,1-.49,1.82-1.65,3.53-2,5.23-.61-.12-.61.06-.79.61-.49-.06-.61,1-.67,1.28l-.61.24a1.64,1.64,0,0,1-.37.73c-.18-.06-.24.25-.24.37-.18.3-.25.73-.55,1,0,.12-.06.31-.18.31l-.18-.06c-.13.36-.43.48-.49.85l-.67.91a.41.41,0,0,1-.43.25l-.3-.06c-.06.24-.12,1.27-.49,1.27a.46.46,0,0,1-.3-.12c-.55.8-1.22,1.59-1.83,2.32-.12-.12-.24.12-.31.24a14.8,14.8,0,0,1-2,1.83l.06.36.24.31.61-.79a.64.64,0,0,1,.49.3c-.07.31-.43.55-.61.67h.18c.55,0,.49-1,1-1h.06c.31-.37.31-1.22.8-1.22v.06c0,.55.24-.12.3-.31s.43-.18.43-.36-.13-.06-.19-.06l.61-.18L308.3,54c.31.06.73-.67.85-.92.31.07.07-.42.37-.42h.06l.67-.49a.46.46,0,0,0,.31-.43,9.08,9.08,0,0,0,1.82-1.94l.25.3.06-.24c-.37-.06.48-1,.61-1.16l.66-1.09a8.91,8.91,0,0,0,.43-1.22l.43.42-1,1.71a1.08,1.08,0,0,1-.36.61l-.18.48a16.81,16.81,0,0,0-1.83,2.56c-.24-.12-.06.37-.43.37H311l-.85.3a6.15,6.15,0,0,1-1.65,2.07c-.6,0-.91.67-1,1.16-.24,0-.43.24-.49.49l-1.28,1.58-.54.3a1,1,0,0,0,.48.55l-.06.31a.27.27,0,0,1,.18.18.22.22,0,0,1-.06.18,3.5,3.5,0,0,0,.43,1.1c.43.3.12.85.49,1.15a15.88,15.88,0,0,0,.61,1.95l.3.12c-.18.19-.24.43,0,.61-.18.25.3.86.43,1a.18.18,0,0,0,0,.24c.12.12.42.25.42.43a.46.46,0,0,1-.12.3l.06.61a.7.7,0,0,1,.37.55.48.48,0,0,0,.24.43l.12.48a1.64,1.64,0,0,1,.31.55c.3.18.24.37.48.55l.19.49c-.12.24.24.24.24.42,0,1,.43.79.43,1l-.06.12v.67c.54.3.67,1,.85,1.58.12.06.36.18.36.31l-.06.18.19.67c.18.06.12.24.3.36l.24.43c-.36.49.43.61.43,1v.06l.55,1a.41.41,0,0,1,.24.36c0,.31-.06.49.24.68a1.48,1.48,0,0,0,.43.6,9,9,0,0,0,.67,1.77c.43.3.18.85.49,1.09a11.07,11.07,0,0,1,.85,2.2c-.24.36.43.73.43,1.09l-.06.19a1.1,1.1,0,0,1,.48.79.36.36,0,0,1-.06.24c-.48-.24-.36-.73-.79-1,.18-.37-.18-.25-.18-.49l.06-.18c-.55-.67-.79-1.71-1.34-2.44l-.18-.06c-.37,0-.67.61-1,.43a.51.51,0,0,1-.3.18c-.12,0,.06-.25.06-.3s-.18-.13-.18-.19.06-.24-.13-.3a.78.78,0,0,0-.6-.55v.06a4.3,4.3,0,0,0,.18.85c.49.18.49.67.55,1.1l.36.61-.12.55.3.36a1,1,0,0,0,.37,1l.18,1.21a1.58,1.58,0,0,1,.43,1,5.8,5.8,0,0,1,.91,1.7c-.06.07-.12.19-.24.19-.31,0-.55-.61-.67-.86-.31-.24-.24-.85-.55-1l-.3-.49-.13-.67c-.06,0-.42.12-.42-.06l.06-.12c-.43-.24-.79-1.58-1.22-1.89s-.18-.91-.49-1.09a12.35,12.35,0,0,0-.79-1.34l-.3-.13-.18-.66C310.19,82.44,310.37,83.24,310.43,83.36ZM267.57,76.9c0,.06,0,.18.06.18s.06-.18.06-.24,0-.06-.06-.06h-.06Zm1.89-18.81c-.13.24,0,.49,0,.79v.18l-.49-.48v-1Zm-.25-2.93c-.06.13.12.13.18.13l-.12-.43Zm.12,18.64c.06,0,.06-.13.06-.13l-.06-.12S269.27,73.8,269.33,73.8Zm.43-21.25-.37.36a.25.25,0,0,0,.19.06c.06,0,.3-.12.3,0a3.84,3.84,0,0,1-.18.8s0,.24.06.24l.49-1.16a.73.73,0,0,0-.31-.55,15.9,15.9,0,0,0,.86-2.55l-.19-.31C270.49,50.36,269.94,51.63,269.76,52.55ZM270,73c.06,0,.06-.3,0-.3S269.88,73,270,73Zm1-23.92V49a.13.13,0,0,0-.12-.12C270.92,49,270.92,49.08,271,49.08Zm.3,9.25a.13.13,0,0,0,.12.12c.07,0,.13-.06.19-.12l-.25-.18Zm.61,1c.12,0,.19-.25.19-.31l-.37-.36.12.24C271.89,59,271.77,59.37,272,59.37Zm.12-12c0,.18.19.25.31.25s-.12-.55-.18-.55S272.07,47.31,272.07,47.37Zm2.38,16c0,.06.06.06.12.06h.12c0-.06,0-.12-.12-.12S274.45,63.26,274.45,63.32ZM275.73,68c0,.06,0,.12.06.12s.06-.18.06-.24,0-.12-.06-.12S275.73,68,275.73,68Zm.36-18.14c0,.12.06.18.13.18a.72.72,0,0,0,.36-.18l-.18-.25.3-.24c.06-.3.24,0,.3-.37l-.24.13A.84.84,0,0,0,276.09,49.87Zm.61,17.05v.24l.37-.55a2.4,2.4,0,0,1,.3-.67c-.12.06-.18-.18-.18-.18l-.06.18-.19.49a1.31,1.31,0,0,0-.66.85A2,2,0,0,1,276.7,66.92Zm-.18-15.59c0,.12.06.24.18.24-.12.12-.3.25-.3.43a.13.13,0,0,0,.12.12c-.12.24-.06.49.24.49-.06-.67.24-.31.37-.67l-.24-.61s-.13,0-.13-.06.18-.25.31-.31l-.43-.06A1.16,1.16,0,0,0,276.52,51.33Zm.24-3,.13.3a2.43,2.43,0,0,0,0-.85Zm.18-1.59v0Zm.31,6.94c0,.06,0,.13.06.13s.18-.25.18-.31-.06-.06-.12-.06h-.06A.36.36,0,0,0,277.25,53.64Zm.06.49a.13.13,0,0,0,.12.12c.06,0,.12-.06.18-.12a.13.13,0,0,0-.12-.12h-.12Zm.24,15.65s0,.12.06.12.13-.18.13-.18-.07-.06-.13-.06h-.06Zm.12-17.35a.35.35,0,0,0,.37.3.13.13,0,0,0,.12-.12,2.19,2.19,0,0,0-.36-.86A2.28,2.28,0,0,0,277.67,52.43Zm.07-4.33c0,.12.06.12.12.12h.06v-.06c0-.12-.12-.12-.18-.12Zm.79,20c0-.06.06-.24,0-.24a.06.06,0,0,0-.06.06Zm2.92-.79c0,.12.06.25.18.25v-.07c0-.12,0-.36-.12-.36S281.45,67.28,281.45,67.34Zm.3-29.89c.31,0,.37-.25.37-.49s0-.24-.06-.24c-.24,0-.49.48-.49.67Zm-.18,13,.25.36.12-.55-.25-.42Zm.25,2.31.06.55c.6.06-.49,1,.36,1.09.12-.06.24-.36.31-.48a.72.72,0,0,0-.49-.61C282.18,52.91,282.24,52.79,281.82,52.73Zm1.09.67c.24,0,.37-.36.55-.49a4.13,4.13,0,0,1,.55-.85l.24-.49c.79-.67,1.1-1.64,1.89-2.31h.06a12.81,12.81,0,0,0,1.77-3c.24,0,.42-.31.48-.55l.37-.31c.18.12.49-.79.49-.85l.24.12h.06a1.93,1.93,0,0,1,.3-.61c.13-.24.25-.3.31-.6a3.2,3.2,0,0,0,.55-.61,5.31,5.31,0,0,1-.37-1l.06-.12-.61-1-.06-.54-.36-.67c.12-.12-.06-.25-.19-.31s-.12-.42-.36-.49l-.06-.36c-.49.06-1.1,1.16-1.34,1.52-.43-.06-.18.37-.55.37h-.06c-.12.73-.61.79-.73,1.34a3.12,3.12,0,0,0-.37.55c-.3-.07-.36.42-.36.61-.06.73-.67,1.21-.79,1.82a.45.45,0,0,0-.31.43c-.06.06-2,4.81-2,5a1,1,0,0,0,.31.67l-.25,1.16.19.06-.12.85.18.24c-.06.19,0,.37.24.37Zm4.75,15.22c0,.25-.43.49-.67.61l-1.46-.18a.46.46,0,0,1-.12-.31c0-.12.18-.12.3-.12a.93.93,0,0,1,.43-.06,1.75,1.75,0,0,1,.73.24c.24,0,.3-.3.36-.48Zm.12-16.44v.06h.12l.07-.12V52l-.07-.12A.63.63,0,0,0,287.78,52.18Zm1-1.16c.06,0,0,.31,0,.25l.36-.55c.06-.43.43-.67.55-1l.43-.37c-.06-.06.12-.18.12-.24l-.12-.19a1.58,1.58,0,0,0-.61.67c-.24.06-.43.8-.49,1a1.33,1.33,0,0,0-.67.85A2.36,2.36,0,0,1,288.82,51Zm0,15.35c.06,0,.06-.12.06-.18l-.18-.06C288.7,66.19,288.7,66.37,288.82,66.37Zm.12-45.55a.06.06,0,0,1,.06-.06V20.7h-.24Zm.12-.18.06-.06h-.06Zm3.66,45.73-.25.42-1,.43c-.06.3-.43.3-.67.3h-.31l-1,.86c-.12,0-.31-.06-.31-.18,0-.31.43-.61.67-.61.06-.31.43-.43.73-.43h.19l.24-.49c.43-.06,1.16-.06,1.34-.61C292.59,66.06,292.47,66.31,292.72,66.37Zm-2.87-46.16.31-.18a.89.89,0,0,1-.25-.85l-.54.24Zm-.24,33.68V54l.06.06c.06,0,.12-.18.12-.18v-.12h-.12ZM290,20.46l.18.73.3.06c.06,0,.12,0,.12-.06l-.12-.06-.18-.43Zm.6,2,.25-.12-.18-.67-.25-.06c-.06,0-.18.06-.18.12s.12.12.18.12C290.28,22.22,290.83,22.16,290.64,22.47Zm-.12,42.92c0,.19.25.25.37.25s.18-.06.24-.18a.48.48,0,0,0,.55-.37,1,1,0,0,1,.43-.06c.24,0,.61.06.79-.18,0-.12-.18-.25-.37-.25a.13.13,0,0,0-.12.13l-.85-.07-.37.73A.86.86,0,0,0,290.52,65.39Zm.06-13.15h.06V52l-.06.06Zm.19-4.81v.19h.06l.06-.13v-.12l-.06-.06Zm.42,6.34-.06.18-.06.06.06.06c.12,0,.18-.12.25-.18Zm.12-35,.19.31-.06.36.3.19c.06-.12.24-.19.37-.25l.67.06.24-.24c.73.12.73-.24,1.28-.24l.3.06.49-.18a1.05,1.05,0,0,0,.61-.19l1.4-.24a1,1,0,0,0-.73-.37c-.61,0-1.28.19-1.89.19l-.24.18-.49-.12-.61.24a7.74,7.74,0,0,0-1.16.12C291.8,18.69,291.44,18.63,291.31,18.81Zm0,32.28.07.06c.06,0,.12-.13.12-.19s0-.06-.06-.06h-.06Zm.19,12.78c0,.06,0,.12.06.12s.12-.12.12-.18,0-.12-.06-.12-.06,0-.12.06Zm.06-16.62.06.06v-.06l.06-.12V47c0-.07,0-.07-.06-.07A.59.59,0,0,0,291.56,47.25Zm.24-26.36.31.67-.06.12a8,8,0,0,1,1.7-.79c.37,0,.73-.31,1.09-.31v-.12c0-.12,0-.18-.11-.18a.28.28,0,0,0-.31.18c-.24-.12-.67-.12-.73.18h-1.46Zm.06,25.93c0,.06,0,.06.06.06v-.06Zm1.71,4.69a1.69,1.69,0,0,1-.37-.73c0,.18-.42.67-.42.73a3.83,3.83,0,0,1-.55.79l.3.06c0,.07-.12.49,0,.49s.37-.36.61-.36a.66.66,0,0,1,.49-.19c.06,0,.12,0,.12-.06a.26.26,0,0,0-.24-.24c-.19,0-.07.3-.31.3a.32.32,0,0,1-.3-.3v-.18A.46.46,0,0,0,293.57,51.51Zm-1.16-.06v-.06l-.06.06ZM293,63l-.3.3a2.93,2.93,0,0,1,1-.3c.12-.25.24,0,.37-.3l-.31.12C293.57,62.71,293.14,62.59,293,63Zm1.16-30-.13-.24-.42.55.06.12L294,33Zm-.43,1,.43.85c.36.24.12.91.48,1.16v.24a1.8,1.8,0,0,0,.67.67v-1c.25.13.49.37.73.13,0-.06,0-.13.06-.13l-.18-.6a.2.2,0,0,1-.18-.19.46.46,0,0,1,.12-.3l-.06-.37-.43-.73a2.13,2.13,0,0,1-1-.36A1.65,1.65,0,0,1,293.75,34Zm2.19,28.74h-.12l-.24.36a.58.58,0,0,0-.55.43l-.49-.06-.24.54c-.37,0-.31.13-.37.43l.55-.18c0-.12,3.29-1.59,3.29-1.89,0-.12-.18-.12-.25-.12h-.66A1.55,1.55,0,0,1,295.94,62.78Zm-1.28-30.21c.07,0,.13-.12.18-.18a.2.2,0,0,0-.18-.06.19.19,0,0,0-.18.18C294.54,32.57,294.54,32.57,294.66,32.57Zm.73,1.89c-.18.12-.3.37-.06.55l-.06.85a2.56,2.56,0,0,1-.73-1.58.65.65,0,0,1,.06-.3Zm-.85,30.39c0,.06,0,.18.06.18s.13-.12.13-.18l-.19-.06Zm.67-2.32c.24,0,.24-.3.24-.48s0-.07-.06-.07-.24.19-.3.25a.31.31,0,0,0-.49.18C294.79,62.41,295,62.53,295.21,62.53Zm.24-30c.31.31.31.8.67,1l.37,1.16c-.12.18-.18.42,0,.55l.18-.25c.12-.06.12-.3.19-.42.06-.31.3-.25.36-.49.12-.06.18-.37.18-.49a8.79,8.79,0,0,0,1.1-1.1c.18,0,.24-.24.24-.36l.31-.18.18-.67.42-.12.25-.61H300l.12-.25c.25.07.43-.36.49-.54l.3-.25.12-.3a6.11,6.11,0,0,1-1.7.79.75.75,0,0,1-.49.12l-.36.18c-.31-.06-.18.43-.55.43s-.49-.12-.49.37c-.36.12-1.15.48-1.28.85l-.36.42Zm.37,29.35c0,.13.37.19.43.19l.42-.25v-.12a.34.34,0,0,0-.3-.36Zm1,3c.06,0,.06-.12.06-.18s0-.13-.06-.13a.21.21,0,0,0-.13.06C296.73,64.73,296.73,64.91,296.86,64.91Zm0-3.84a.13.13,0,0,0,.12.12c.06,0,.12-.12.12-.18l-.18-.06ZM298,17.42l-.73.36L298,18l.61-.18.85.18.55-.67-.55-.36C299.29,17.48,298.13,17.05,298,17.42ZM298.07,64c-.18,0-.24,0-.24.19C298,64.18,298.07,64.12,298.07,64Zm1-22.34s.12-.12.12-.19S299.11,41.59,299.11,41.65Zm5.6-6c-.06,0-.3-.12-.24.06l-.31.25c-.06.24-.18.85-.3.73l-.31.24c0,.12-.3.3-.3.43s0,.12-.06.12l-.12.3c-.49,0-.31,1.16-.8,1.16-.06,0-.06-.12-.12-.12s-.18.24-.18.3l-.12.31c-.37,0-.67,1.21-.91,1.21s-.61.67-.68.86v.12L300,42c.06-.06-.85.92-.61,1a.46.46,0,0,0-.12.3.33.33,0,0,0,.12.25c-.24.36.49.6.49,1,0,.12-.25.3-.12.37l.42.24-.12.49.06.54.06.13c.06-.25.13-.92.43-.92h.06l.67-1.22a.82.82,0,0,0,.55-.12,1.51,1.51,0,0,1,.36-.67c.06-.42.55-.67.92-.79l.24-.61c.06,0,.12,0,.12-.06a.51.51,0,0,0-.18-.3c.06-.31,0-.61.43-.61l.42-.25.19-.67c.36.07.36-.6.91-.6h.12c.55-1.34,1.1-2.68,1.52-4.08l.25-.31.3-1.52c.12-.06.3-.24.3-.37s-.24-.12-.24-.18.24-.24.37-.3a.94.94,0,0,0,.12-.37.54.54,0,0,0-.18-.42c.06-.31.3-.25.3-.55l-.06-.37c.06.12-.49.8-.61.92.06.06,0,.12-.06.06l-.43.6-.12.13h-.12v.24l-.12-.06c-.06.12-.25.61-.43.61s-.3.43-.36.43-.19.18-.25.42c-.3.24-.42.67-.73.91-.06.07-.06-.06-.06-.06h-.06v.13C304.89,35.32,304.83,35.68,304.71,35.68Zm-5.18-19.6c0,.18.25.05.31,0l-.31-.06Zm.86.18.73.06s.18,0,.18-.06-.55-.43-.67-.49Zm.06,1.4c0,.12.3.12.36.12l.31-.24C301,17.54,300.45,17.54,300.45,17.66Zm1.1-.18c.05,0,.12-.19.12-.25a.06.06,0,0,0-.07-.06l-.18.06C301.42,17.29,301.42,17.48,301.55,17.48Zm.12,44.38.06.55.3.12.06-.12c-.24-.18-.12-.36-.36-.55Zm.42-34c.12,0,.12-.12.12-.18l-.24-.07C302,27.71,302,27.89,302.09,27.89Zm0,23.56c0,.12.24.3.3.37l.07-.13-.31-.3Zm.61-34.89c-.06.18-.31.18-.43.18h-.12v.19c0,.55.85,1,1.4,1s.43-.61.49-1c-.06.24-.43.24-.61.18,0,.18-.18.25-.3.25l-.49-.07c0-.12.06-.3.24-.3s.31.18.37-.06c.06,0,.36-.12.36-.25s-.12-.06-.18-.06,0-.3-.18-.3h-.06C303.19,16.62,302.82,16.56,302.7,16.56Zm-.06,10.29a.19.19,0,0,0,.18.18c.12-.18.43-.42.49-.54l-.43.06A.4.4,0,0,0,302.64,26.85Zm.43-7.55h.18l-.43-.18C302.82,19.24,302.94,19.3,303.07,19.3ZM302.88,53v.31l.19-.24Zm.31-17.35v.12c0,.06,0,.25.12.25.12-.25.3-.55.61-.61a7,7,0,0,1,1-1.4c.18.12.18-.19.18-.25l-.05-.48c-.13.36-.37.54-.49.85l-.92,1A2,2,0,0,0,303.19,35.62ZM303.37,67a.14.14,0,0,0,.06-.25l-.12-.36.06.36C303.31,66.86,303.25,67,303.37,67ZM304,42.75c-.12,1.15-.31.48-.49,1l.61-.24.91-1.77.31-.12s0-.25.06-.25c.24,0,1-1.34,1.28-1.58l-.61-.18-.49.55c-.18.91-.91,1.52-1.09,2.43C304.28,42.5,304.28,42.75,304,42.75Zm0,25.63c-.12.3.18.18.18.36a.24.24,0,0,1-.06.19h.37a.34.34,0,0,0-.12-.19l-.31-.85c.12-.24-.37-.18-.37-.49l-.06.19Zm.49-32.82V35.5l-.06.06Zm.18,33.91a.12.12,0,1,0,0-.24l-.12.18C304.59,69.47,304.65,69.47,304.71,69.47Zm-.06-14.79c0,.12.06.12.12.12v-.06c0-.06-.06-.18-.12-.18Zm.06-38.06a8.77,8.77,0,0,0,2.56.8v-.31a5.55,5.55,0,0,0-2.38-.85C304.71,16.26,304.71,16.44,304.71,16.62Zm.67,45.79-.49.3a.9.9,0,0,0,.37.74c.06.18.24.6.48.6a.22.22,0,0,0,.25-.24c0-.43-.37-.67-.37-1.1v-.12Zm.06-27.95V34.4c-.06,0-.06,0-.06.06Zm.73,38.73-.06.18a1.1,1.1,0,0,0,.61.24.22.22,0,0,0,.18-.06c-.3-.18-.36-.48-.67-.6.06-.25.06-.61-.18-.74v-.3c-.12-.06-.24-.12-.24-.24l.06-.13c-.06-.12-.19-.48-.37-.48a.13.13,0,0,0-.12.12,1.71,1.71,0,0,0,.79,1.34C305.87,73,306.17,72.88,306.17,73.19ZM305.44,54c0,.12,0,.18.12.18a.13.13,0,0,0,.12-.12l-.24-.12ZM306,32l-.06.3v.06c.36,0,.55-.54.55-.91-.07,0-.13.24-.13.24Zm.36,33.43-.06-.07a.2.2,0,0,0-.18.19Zm2.2-29.9c-.13.36-.74,1.7-1.1,1.7h-.12c0-.06-.06-.3-.19-.3s-.12.18-.12.24c-.18.06-.3.25-.42.43v.24c0,.31.3.43.3.73,0,.12-.06.55.06.55.31,0,.43-.79.43-1l.3-.18a.81.81,0,0,1,.49-.61c.18.36.3-.74.3-.8.13-.42.61-.79.74-1.15l-.49-.19C308.73,35.32,308.67,35.56,308.55,35.56Zm-1.95,17.6v.12c.12,0,.18-.19.24-.24.3.05.37-.43.37-.61l.24-.31-.43-.06C306.9,52.55,306.6,52.55,306.6,53.16Zm1.15-23.08-.06-.43a4.23,4.23,0,0,1-.91,1.4l-.12.49.06.12c.06,0,.06-.18.12-.3.06.06.18-.06.24-.12l.25-.43v-.06l.06-.12.3-.49v.06l-.12.25c.06.05.37-.37.49-.37s.12.12.12-.06-.12,0-.12-.06l.06-.19v-.36C307.88,29.41,307.94,29.9,307.75,30.08Zm-.91,38.42c.12,0,.18,0,.18-.12s-.06-.06-.06-.12h-.06c-.12,0-.12.12-.12.24ZM307,29.77c0,.07.06.07.12.13v-.19s0-.12-.06-.12S307,29.71,307,29.77ZM307.14,69c.07,0,.13,0,.13-.12s0-.07-.06-.13l-.19.19C307.08,68.93,307.08,69,307.14,69Zm.13,3.41c0-.06-.19-.12-.25-.12v.18s0,.12.06.12a.14.14,0,0,0,.13-.12Zm0,2.19c.06,0,.18,0,.18-.06a.13.13,0,0,0-.12-.12l-.25.12A.24.24,0,0,0,307.27,74.59Zm-.13-42.87c.07,0,.13-.12.13-.18s0-.12-.06-.12h-.07Zm.13,45.06a.13.13,0,0,0,.12-.12c-.06,0-.06-.06-.12-.06a.14.14,0,0,0-.13.12A.21.21,0,0,1,307.27,76.78Zm.48-3.23c.06,0,.25,0,.25-.06s-.67-.24-.49-.61h-.12a.06.06,0,0,0-.06.07l.12.12A.33.33,0,0,0,307.75,73.55Zm-.24,1.65a.21.21,0,0,0,.06-.12c0-.06,0-.13-.06-.13l-.12.19A.21.21,0,0,0,307.51,75.2Zm.24-4.87a.06.06,0,0,0,.06-.06.12.12,0,1,0-.24,0A.22.22,0,0,0,307.75,70.33Zm1.53-40.92-.37.67a3.09,3.09,0,0,1-.12.73l-.31,1.52c-.06.31-.18,1.52-.54,1.52h-.06a3.32,3.32,0,0,0-.19.8.26.26,0,0,0,.25.24c.61,0,1.15-2.92,1.46-4.39l-.12-.42.06-.55Zm.48,51.09c-.18,0-.18-.25-.12-.37l.31.06a.94.94,0,0,0-.43-.73c-.37-.25-.18-.79-.49-1.1-.06-.18-.18-.79-.42-.79s-.25.18-.31.25c.06.3.18,1.39.61,1.58l.37.55c-.19.36.12.85.42,1Zm-.61-47.86c0,.18-.18.36.07.42,0-.12,0-.49-.07-.49Zm.13-16.56c0,.12.12.12.18.12v-.07c0-.11-.12-.11-.18-.11Zm1.82,67.21-.06.13.92-.06-.25-.19c-.06,0-.3.25-.3.12a.37.37,0,0,1,.06-.24l-.24-.42c-.37-.19-.67-1.83-1-1.83-.12,0-.18.18-.18.3a6.9,6.9,0,0,1,.55,1.53C311.16,82.87,310.8,83.05,311.1,83.29Zm-.67-6.08a.2.2,0,0,1-.12-.07c-.12,0-.24.07-.24.13l.06.12A.51.51,0,0,0,310.43,77.21Zm.43-51-.06.06v-.12a1.18,1.18,0,0,0-.24.49l.06.06A1.18,1.18,0,0,0,310.86,26.18Zm-.18-.06h.06c0-.06,0-.06.06-.12v-.06Zm.48,19.36c0,.13.07.25.19.25l.36-.49.12-.55-.18-.18A2.13,2.13,0,0,0,311.16,45.48ZM311.47,79c.06,0,.06,0,.06-.06a.22.22,0,0,0-.06-.18l-.12.18C311.41,78.91,311.41,79,311.47,79Zm.18-28a.14.14,0,0,0,.12.13V51a.13.13,0,0,0-.12-.12Zm.43-.18c.06,0,.12-.12.12-.18l-.31-.06C311.89,50.6,312,50.78,312.08,50.78Zm.06-1.89c0-.12,0-.54.24-.54h.06a1.2,1.2,0,0,1,.67-.92,1.71,1.71,0,0,0,.43-.73l.42.06a2.07,2.07,0,0,1-.42.61c-.12-.06-.85.92-.91,1.22-.43,0-.07.42-.49.42Zm.3,43.54c.06,0,.12-.12.12-.18l-.12-.06c-.06,0-.12.12-.12.18S312.38,92.43,312.44,92.43Zm.49,1.1c.06,0,.06,0,.06-.13a.19.19,0,0,0-.06-.12l-.18.18C312.81,93.46,312.87,93.53,312.93,93.53Zm1.28-71.06c-.12,0-.31.36-.37.48s-.06.19-.06.25l.06.06a5.81,5.81,0,0,0,.55-.73v-.06Zm1,23.93a.85.85,0,0,1-.12.36,1.33,1.33,0,0,1-.3-.67.16.16,0,0,1,.18-.18H315A.69.69,0,0,1,315.18,46.4Zm-.06,50.11c.06,0,.12,0,.12-.12s0-.06-.06-.13l-.18.19C315.06,96.45,315.06,96.51,315.12,96.51Zm.3-50.54a.34.34,0,0,1-.36-.3c0-.13.06-.19.18-.19h.07Zm0-.49c-.05,0-.11-.06-.11-.18a1.81,1.81,0,0,1,.42-.91c.37,0,.18-.79.73-.79A4.36,4.36,0,0,1,315.42,45.48ZM318,16.32l.06.18v-.06l.06-.18h.07c.12-.18.12-.61.36-.67C318.23,15.59,318,16,318,16.32Zm2.5,11.32c0,.07,0,.19.12.19s.06-.12.06-.19-.06-.06-.12-.06h-.06Z"/></g></g></svg>