<svg xmlns="http://www.w3.org/2000/svg" viewBox="0 0 93.59 69.26"><defs><style>.cls-1{fill:#fff;}.cls-2{fill:#898989;}</style></defs><title>mastercard</title><g id="Capa_2" data-name="Capa 2"><g id="Capa_1-2" data-name="Capa 1"><path d="M5.86,69a9.59,9.59,0,0,1-1.22,0,.51.51,0,0,1-.34-.36c0-2.29,0-4.58,0-6.92h1.5c0,.21.07.42.12.78a2.64,2.64,0,0,1,2.37-1,2.83,2.83,0,0,1,2.18,1.27,3,3,0,0,1,3-1.25,2.51,2.51,0,0,1,2.4,2.34c.1,1.67,0,3.36,0,5.1H14.35c0-.26,0-.5,0-.74,0-1.19,0-2.38,0-3.57A1.54,1.54,0,0,0,12.65,63a1.71,1.71,0,0,0-1.74,1.77c0,1.19-.05,2.38,0,3.57,0,.69-.31.71-.81.7s-.88,0-.84-.67c.06-1.15,0-2.3,0-3.44S8.71,63,7.75,63A1.73,1.73,0,0,0,5.88,64.8c0,1.1,0,2.21,0,3.31Z"/><path d="M83.32,62.43V58.75h1.51V69H83.37c0-.22-.05-.42-.1-.73a3.19,3.19,0,0,1-2.78.92A3.45,3.45,0,0,1,78,67.6a4.16,4.16,0,0,1,.5-5.15C79.8,61.19,81.61,61.14,83.32,62.43ZM79,65.25a2.21,2.21,0,0,0,2.15,2.42,2.23,2.23,0,0,0,2.3-2.35A2.28,2.28,0,0,0,81.24,63,2.21,2.21,0,0,0,79,65.25Z"/><path d="M68.42,62.39c0-.27.06-.46.09-.7H70v7.24H68.53c0-.19-.07-.39-.09-.53-3,1.47-5.11.89-5.9-2.53a3.45,3.45,0,0,1,1.61-3.81A3.33,3.33,0,0,1,68.42,62.39Zm-4.31,3a2.2,2.2,0,0,0,2.25,2.33,2.36,2.36,0,1,0-2.25-2.33Z"/><path d="M23.41,61.66h1.47v7.27H23.42c0-.18-.09-.39-.15-.67a3.28,3.28,0,0,1-3.06.82,3.38,3.38,0,0,1-2.11-1.36,4.18,4.18,0,0,1,.39-5.27,3.52,3.52,0,0,1,4.78-.08C23.31,62.14,23.35,61.94,23.41,61.66ZM19,65.32a2.21,2.21,0,0,0,2.23,2.36A2.37,2.37,0,1,0,19,65.32Z"/><path d="M47.19,67l.69,1c-1.28,1.5-4.44,1.47-5.78-.07a4.08,4.08,0,0,1-.64-4.32,3.26,3.26,0,0,1,3-2.18,3.51,3.51,0,0,1,3.73,4.44H42.88C43.07,67.78,44.76,68.2,47.19,67Zm-.64-2.4a1.69,1.69,0,0,0-1.74-1.75,1.78,1.78,0,0,0-1.91,1.75Z"/><path d="M26.48,68.26l.62-1c1,.19,1.9.4,2.81.51a1.83,1.83,0,0,0,1-.25.81.81,0,0,0,.38-.63.82.82,0,0,0-.47-.56,11.87,11.87,0,0,0-1.37-.3,10.55,10.55,0,0,1-1.37-.34,1.81,1.81,0,0,1-1.3-1.72,2.05,2.05,0,0,1,1.08-2,5.38,5.38,0,0,1,4.92.34l-.61,1.14c-.76-.18-1.42-.36-2.1-.48a1.62,1.62,0,0,0-.93.09c-.28.14-.64.45-.65.71s.38.58.66.66c.76.21,1.56.25,2.31.48A1.91,1.91,0,0,1,33,67.09a2,2,0,0,1-1.25,1.65A5.66,5.66,0,0,1,26.48,68.26Z"/><path d="M39.79,61.63v1.44H37.27c0,1.35,0,2.62,0,3.89a.77.77,0,0,0,.94.68c.46,0,.92-.16,1.47-.26l.44,1.22a3.63,3.63,0,0,1-3.3.32c-1-.4-1.2-1.32-1.22-2.28s0-1.85,0-2.77c0-.62-.17-.87-.79-.78a4.83,4.83,0,0,1-.67,0V61.64H35.6V59.47h1.56v2.16Z"/><path d="M61.62,62.37l-.69,1.17c-2-.77-3-.68-3.73.28a2.61,2.61,0,0,0,.07,3.08c.77.94,1.84,1,3.63.18l.7,1.16a4.17,4.17,0,0,1-5.34-.07,4.09,4.09,0,0,1-.21-5.51A4.24,4.24,0,0,1,61.62,62.37Z"/><path d="M51.55,68.94H50V61.68h1.44l.14.72a2.52,2.52,0,0,1,3-.73c-.16.49-.31.93-.46,1.41l-.54,0c-1.3-.2-2,.34-2,1.66S51.55,67.47,51.55,68.94Z"/><path d="M73.7,61.63c0,.25.06.45.1.77a2.57,2.57,0,0,1,3-.75c-.07.27-.15.48-.18.69-.1.59-.35.8-1,.67-1.1-.21-1.81.49-1.84,1.69s0,2.29,0,3.44v.71c-.11.06-.17.11-.23.11-1.34.12-1.34.12-1.34-1.21,0-1.8,0-3.59,0-5.39,0-.62.19-.81.76-.73A6.42,6.42,0,0,0,73.7,61.63Z"/><path class="cls-1" d="M89,68.7c-.36.27-.6.59-.79.56s-.56-.41-.53-.59.37-.45.57-.68Z"/><path class="cls-1" d="M19,65.32a2.23,2.23,0,1,1,2.23,2.36A2.22,2.22,0,0,1,19,65.32Z"/><circle cx="27.42" cy="27.42" r="27.42" transform="translate(-0.79 0.82) rotate(-1.69)"/><circle class="cls-2" cx="66.18" cy="27.42" r="27.42" transform="translate(-0.78 1.96) rotate(-1.69)"/></g></g></svg>