<svg xmlns="http://www.w3.org/2000/svg" viewBox="0 0 97.42 83.88"><defs><style>.cls-1,.cls-2{fill-rule:evenodd;}.cls-2{fill:#fdffff;}</style></defs><title>parece_limon</title><g id="Capa_2" data-name="Capa 2"><g id="Capa_1-2" data-name="Capa 1"><path class="cls-1" d="M48.56,83.8a82.64,82.64,0,0,1-11-.48,48.41,48.41,0,0,1-16.9-5.55A39.46,39.46,0,0,1,3.32,58,39,39,0,0,1,.11,39.52,43.5,43.5,0,0,1,7.73,17.43C12.88,10.15,19.89,5.51,28.28,2.72,36,.14,44-.23,52.07.1A56.27,56.27,0,0,1,63.86,1.88a49.61,49.61,0,0,1,18.88,9.26A39.27,39.27,0,0,1,97.42,42a38.5,38.5,0,0,1-8.78,24.65C83.56,73,76.93,77.13,69.4,80a59.32,59.32,0,0,1-11.75,3.09A36.9,36.9,0,0,1,48.56,83.8ZM4.26,45.22c1,17,15.42,34,36.3,35.07A37.13,37.13,0,0,0,67.7,71.1c9.74-8.46,14.22-19.33,13.4-32.2A38.45,38.45,0,0,0,45.72,3.4a37,37,0,0,0-29,9.93C7.42,21.87,3.27,32.58,4.26,45.22Z"/><path class="cls-2" d="M4.26,45.22c-1-12.64,3.16-23.35,12.46-31.89a37,37,0,0,1,29-9.93A38.45,38.45,0,0,1,81.1,38.9c.82,12.87-3.66,23.74-13.4,32.2a37.13,37.13,0,0,1-27.14,9.19C19.68,79.17,5.31,62.18,4.26,45.22Zm29.52-3.29q0-10.65,0-21.3c0-1.39-.1-1.42-1.37-.83a23,23,0,0,0-8.29,6.27C18.94,32.41,17,39.61,19,47.58A23.62,23.62,0,0,0,32.34,63.85c1.44.69,1.44.69,1.44-.89Q33.8,52.45,33.78,41.93Zm17.67-.11V52.19c0,3.69,0,7.37,0,11.06,0,.51-.23,1.36.87.86,9.88-4.49,14-12.71,14.75-21.7A20.19,20.19,0,0,0,66,35.32,23.5,23.5,0,0,0,53,19.9c-1.46-.71-1.56-.63-1.56,1Z"/><path class="cls-1" d="M33.78,41.93q0,10.51,0,21c0,1.58,0,1.58-1.44.89A23.62,23.62,0,0,1,19,47.58c-2-8,0-15.17,5.14-21.51a23,23,0,0,1,8.29-6.27c1.27-.59,1.37-.56,1.37.83Q33.8,31.28,33.78,41.93Z"/><path class="cls-1" d="M51.45,41.82V20.92c0-1.65.1-1.73,1.56-1A23.5,23.5,0,0,1,66,35.32a20.19,20.19,0,0,1,1.1,7.09c-.75,9-4.87,17.21-14.75,21.7-1.1.5-.87-.35-.87-.86,0-3.69,0-7.37,0-11.06Z"/></g></g></svg>