<svg xmlns="http://www.w3.org/2000/svg" viewBox="0 0 54.53 50.32"><defs><style>.cls-1{fill-rule:evenodd;}</style></defs><title>twitter</title><g id="Capa_2" data-name="Capa 2"><g id="Capa_1-2" data-name="Capa 1"><path class="cls-1" d="M54.48,25.1c0,5.6-.13,11.2,0,16.8.15,4.79-4.36,8.45-9.17,8.42-12.1,0-24.2,0-36.29,0C4,50.3,0,46.6,0,42V8.16A8.44,8.44,0,0,1,6.07.34,8.31,8.31,0,0,1,8.59,0c12.51,0,25,0,37.53,0,4.52,0,8.47,4,8.39,7.88C54.4,13.62,54.48,19.36,54.48,25.1ZM52.84,11a24.7,24.7,0,0,1-5.25,1.13A10,10,0,0,0,51.93,7a26.14,26.14,0,0,1-5.78,2.11,1.33,1.33,0,0,1-1.3-.26,11.06,11.06,0,0,0-7.63-2.63c-5.76.07-10.66,5-10.16,10.32.16,1.61.15,1.64-1.53,1.46A30.23,30.23,0,0,1,6.24,8.62C5.66,8,5.46,8,5.09,8.76A9.35,9.35,0,0,0,7.81,20.21c.21.17.54.26.53.63A11,11,0,0,1,4,19.78c.41,5,3.12,8.13,8.23,9.62-1.49.53-2.92.18-4.43.34,1.75,4,5,6.15,9.72,6.65A23,23,0,0,1,2.41,40.48a1.27,1.27,0,0,0,.44.36A32.29,32.29,0,0,0,25.22,44a28.16,28.16,0,0,0,23-27.21,2,2,0,0,1,1-1.79A15.15,15.15,0,0,0,53,11.19l.09-.2Z"/></g></g></svg>