<svg xmlns="http://www.w3.org/2000/svg" viewBox="0 0 99.53 32.22"><title>visa</title><g id="Capa_2" data-name="Capa 2"><g id="Capa_1-2" data-name="Capa 1"><path d="M99.53,31.59v.11H92.1c-.35-1.58-.66-3.15-1-4.71H80.76q-.83,2.36-1.63,4.7H70.7l.1-.28q2.55-6.09,5.08-12.17,3.32-7.9,6.61-15.82a6.43,6.43,0,0,1,.93-1.63A3.22,3.22,0,0,1,85.12.66,4.46,4.46,0,0,1,86.27.53H93c0,.08,0,.13.06.19.16.76.31,1.52.47,2.29q.84,4,1.66,7.92l1.65,7.9c.53,2.56,1.07,5.12,1.6,7.67.34,1.59.67,3.18,1,4.77C99.47,31.38,99.51,31.49,99.53,31.59ZM87.36,9c-.14.18-4.17,11.35-4.21,11.61.29.06,6.49.05,6.69,0Q88.6,14.81,87.36,9Z"/><path d="M65.42,0,66,.06a21.92,21.92,0,0,1,6.2,1.21l.36.14Q71.86,4.68,71.14,8L71,7.88a16.21,16.21,0,0,0-4.87-1.31,9.94,9.94,0,0,0-3.52.14A5.05,5.05,0,0,0,61,7.34a3,3,0,0,0-.87.83,1.71,1.71,0,0,0,0,2,2.92,2.92,0,0,0,.6.66,10.57,10.57,0,0,0,1.31.91c.8.47,1.62.9,2.44,1.34a26.13,26.13,0,0,1,2.82,1.71,11.38,11.38,0,0,1,1.93,1.74A7.14,7.14,0,0,1,71,20.88a9.39,9.39,0,0,1-2.63,7.38,11.31,11.31,0,0,1-3.5,2.42A15.81,15.81,0,0,1,60.19,32c-.66.09-1.33.12-2,.18l-.28,0H56.61l-.55,0a25.49,25.49,0,0,1-7.62-1.57l-.19-.08-.07,0c0-.19,1.27-6.29,1.43-6.77a.71.71,0,0,1,.18.08,17.33,17.33,0,0,0,5.28,1.73,14.83,14.83,0,0,0,2.9.19,7.08,7.08,0,0,0,2.68-.57A4,4,0,0,0,62,24.23a2.35,2.35,0,0,0,.68-1.66,1.9,1.9,0,0,0-.4-1.17,7,7,0,0,0-.75-.8,9.24,9.24,0,0,0-1.61-1.08C58.94,19,58,18.47,57,17.93a17.4,17.4,0,0,1-2.78-1.88,8,8,0,0,1-2.12-2.64,6.7,6.7,0,0,1-.65-2.78A9.07,9.07,0,0,1,53.19,5a10.63,10.63,0,0,1,3.7-3.12A15.84,15.84,0,0,1,61.44.32,20.17,20.17,0,0,1,63.89.05a.87.87,0,0,0,.22,0Z"/><path d="M24.71,31.68H16.25L16,30.77Q12.94,18.92,9.85,7.08a11,11,0,0,0-.36-1.15A3,3,0,0,0,8.18,4.3a11.74,11.74,0,0,0-1.41-.73,33.72,33.72,0,0,0-6.5-2L0,1.49C.05,1.17.11.87.16.54H13.65a3.89,3.89,0,0,1,1.44.23,3.51,3.51,0,0,1,2.36,2.73c.32,1.55.6,3.12.9,4.68q.64,3.38,1.28,6.75l1.23,6.43a.64.64,0,0,0,.12.29Q25.15,11.08,29.34.54h8.4C37.72.73,24.93,31.3,24.71,31.68Z"/><path d="M42.63,31.67H34.58L41.21.54h8Q45.94,16.13,42.63,31.67Z"/></g></g></svg>